<svg width="276" height="77" viewBox="0 0 276 77" fill="none" xmlns="http://www.w3.org/2000/svg">
<rect width="276" height="77" rx="38.5" fill="#EDFF40"/>
<path d="M82.45 40.55L83.725 42.875C81.625 44.25 77.7 44.5 75.525 44.5C70.425 44.5 65.775 42.25 65.775 38C65.775 34.25 69.725 31.75 75.525 31.75C78.975 31.75 81.275 32.15 83.725 33.475C82.775 35.3 83.425 34.05 82.475 35.875C80.85 35 78.2 34.375 75.55 34.375C71.375 34.375 68.975 35.575 68.75 37.85C68.525 40.225 71.375 41.75 75.55 41.75C78.1 41.75 80.8 41.45 82.45 40.55ZM89.9988 38.925C88.9488 39.975 87.9988 41.1 87.9988 41.85V44.5H85.1738V32H88.0488V37.375C89.7238 35.575 92.3488 33.525 95.4738 32.575C96.9738 32.125 98.7738 32 100.399 32L100.224 34.475C97.5488 34.475 94.3738 35.45 92.4488 37.375L101.724 44.5H97.0988L89.9988 38.925ZM109.411 32H111.761L120.711 44.5H117.111L115.686 42.425H105.486L104.061 44.5H100.461L109.411 32ZM110.586 35.15L107.211 39.975H113.961L110.586 35.15ZM128.717 40.875C122.917 40.825 119.142 39 119.142 34.5V32H122.017L122.042 34.625C122.067 37.5 124.567 38.325 128.742 38.325C130.567 38.325 130.667 38.3 132.492 38.15V32H135.367V44.5H132.492V40.775L128.717 40.875ZM144.567 32H146.917L155.867 44.5H152.267L150.842 42.425H140.642L139.217 44.5H135.617L144.567 32ZM145.742 35.15L142.367 39.975H149.117L145.742 35.15ZM152.972 34.625V32H169.397V34.625H162.622V44.5H159.747V34.625H152.972ZM173.422 35.85H179.947C188.897 35.85 189.297 44.5 179.922 44.5H170.547V32H173.422V35.85ZM179.597 38.5H173.422V41.85H179.597C185.347 41.85 185.347 38.5 179.597 38.5Z" fill="black"/>
<path d="M204.053 32.25V41.1629M199.85 37.4036L203.294 40.8479C203.504 41.0571 203.778 41.1621 204.051 41.1621M208.254 37.4036L204.809 40.8479C204.6 41.0571 204.326 41.1621 204.052 41.1621M210.25 41.725V42.3929C210.25 42.7024 210.189 43.0089 210.071 43.2949C209.952 43.5809 209.778 43.8407 209.56 44.0596C209.341 44.2785 209.081 44.4521 208.795 44.5706C208.509 44.689 208.202 44.75 207.893 44.75H200.107C199.798 44.75 199.491 44.689 199.205 44.5706C198.919 44.4521 198.659 44.2785 198.44 44.0596C198.222 43.8407 198.048 43.5809 197.929 43.2949C197.811 43.0089 197.75 42.7024 197.75 42.3929V41.725" stroke="black" stroke-width="2" stroke-linecap="round" stroke-linejoin="round"/>
</svg>
