<svg width="89" height="89" viewBox="0 0 89 89" fill="none" xmlns="http://www.w3.org/2000/svg">
<g clip-path="url(#clip0_7196_120508)">
<path d="M39.3763 3.99335C42.8506 4.61635 46.0125 6.11205 49.0155 7.90935C49.1803 8.00824 49.322 8.20849 49.5478 8.17718C49.5791 8.27936 49.6591 8.37825 49.7786 8.47137C51.0897 9.49157 52.4049 10.5002 53.5437 11.6737C54.4906 12.6494 55.3312 13.7842 56.0811 14.9024L46.7666 14.9189C46.6397 14.9189 46.5993 15.1406 46.5993 15.2123L38.2547 10.5901C33.5863 8.00412 27.9925 8.07499 23.4197 10.8216C19.0793 13.429 16.2717 18.0858 16.2659 23.2157L16.2363 49.4583C13.4781 47.0183 11.4863 43.8983 9.9115 40.5888C9.82579 40.4092 9.7063 40.1002 9.63955 39.9024C8.92755 37.8043 8.2856 35.6905 8.01613 33.482C6.98851 25.0666 9.94199 16.7047 16.0756 10.876C22.3245 4.93774 30.9015 2.47293 39.3763 3.99335Z" fill="#FD54D3"/>
<path d="M46.5999 15.2122C46.5999 15.1405 46.6394 14.9196 46.7671 14.9188L56.0816 14.9023L64.9388 14.9164L64.9306 19.5633C64.0208 19.5386 63.3096 19.5476 62.5457 19.6952C61.4942 19.9638 60.7055 20.6882 60.544 21.7825C60.483 22.197 60.5094 22.6305 60.5094 23.0269L60.5078 54.0648L60.5201 63.3332C60.5218 64.6459 61.4629 65.5936 62.6569 65.8829C63.4077 66.0279 64.0521 66.037 64.9306 66.0155L64.938 70.6608H46.0865L46.0906 66.0246C46.9954 66.0485 47.7519 66.0263 48.5488 65.854C49.7008 65.5705 50.5093 64.6583 50.5159 63.4436L50.5373 59.6891L50.5422 41.7861C50.5422 41.1994 50.4722 39.5117 49.9489 39.2661C49.5072 39.0584 48.7375 39.9221 48.4425 40.2772C45.8994 43.3411 43.6785 46.5905 41.7691 50.0985C40.4061 52.6037 39.2096 55.1048 38.1177 57.7492C36.725 61.1238 35.465 64.5083 34.4777 67.9727C33.7707 69.9686 33.2515 72.0197 32.6549 74.1401L28.5617 74.1294L28.5469 68.1581L28.5543 22.0462C28.5543 21.0252 27.8579 20.2778 27.0034 19.9193C26.0746 19.5757 25.1723 19.5312 24.1084 19.56L24.1133 14.9139H42.3509L42.3542 19.5419L40.7407 19.5954C39.2376 19.9144 38.5009 21.1142 38.5009 22.6132L38.5025 43.7845C38.5025 44.377 38.589 47.0099 39.2788 47.0552C39.5038 47.0701 39.8012 46.8064 39.9265 46.6094L43.461 41.0214C46.0106 36.99 48.5883 32.7015 49.8887 28.0842C50.4351 26.1452 50.8059 24.1888 50.7087 22.2012C50.6403 20.8159 49.6728 19.8048 48.3477 19.6276C47.7659 19.5501 47.2105 19.5559 46.6238 19.5378L46.5974 15.2105L46.5999 15.2122Z" fill="#2C2C33"/>
<path d="M50.5384 59.6892L40.413 65.3564L37.6293 66.8117C36.6107 67.344 35.5501 67.7124 34.4805 67.9728C35.4677 64.5076 36.7277 61.1239 38.1204 57.7493C39.2115 55.1049 40.408 52.603 41.7719 50.0986C43.6813 46.5906 45.9013 43.3412 48.4452 40.2773C48.7402 39.9221 49.5099 39.0585 49.9516 39.2662C50.4749 39.5118 50.545 41.1995 50.545 41.7862L50.54 59.6892H50.5384Z" fill="#FEFDFE"/>
<path d="M46.5993 15.2123L46.6257 19.5395C47.2124 19.5577 47.767 19.5519 48.3497 19.6294C49.6748 19.8057 50.6422 20.8177 50.7106 22.203C50.8087 24.1906 50.437 26.147 49.8907 28.086C48.5903 32.7033 46.0126 36.9918 43.4629 41.0232L39.9285 46.6112C39.8032 46.809 39.5065 47.0719 39.2807 47.057C38.591 47.0117 38.5045 44.3788 38.5045 43.7863L38.5028 22.615C38.5028 21.116 39.2395 19.9162 40.7426 19.5972L42.3562 19.5437L42.3529 14.9165H24.1153L24.1104 19.5618C25.1742 19.533 26.0766 19.5775 27.0053 19.9211C27.8599 20.2787 28.5562 21.0262 28.5562 22.048L28.5488 68.1599C21.7766 67.0936 16.327 61.0218 16.2726 54.065L16.2363 49.4609L16.266 23.2182C16.2718 18.0884 19.0794 13.4315 23.4198 10.8241C27.9926 8.0775 33.5864 8.00663 38.2548 10.5926L46.5993 15.2148V15.2123Z" fill="#FEFEFE"/>
<path d="M77.671 52.0387L77.5054 51.5484C87.8121 41.3628 88.0214 24.6844 77.6801 14.2409C72.6277 9.13823 65.4912 6.19134 58.2336 6.48471C55.2751 6.60421 52.3217 7.06074 49.547 8.17654C49.3212 8.20785 49.1795 8.0076 49.0146 7.90871C51.6278 6.89593 54.3818 6.19876 57.1886 6.02488C68.2419 5.34008 78.5725 11.439 83.2533 21.4285C88.1203 31.8159 85.8326 44.0765 77.671 52.0387Z" fill="#F5F5F6"/>
<path d="M57.1892 6.02707C54.3824 6.20095 51.6283 6.89812 49.0152 7.91091C46.0122 6.1136 42.8503 4.61873 39.376 3.99491C45.3579 2.96728 51.5533 3.79878 57.1892 6.02707Z" fill="#9C61FC"/>
<path d="M65.3585 10.869C73.2136 12.3943 79.7131 18.2263 82.187 25.6751C84.9591 34.0197 82.6682 43.1282 76.3674 49.0153C75.4122 46.8835 73.7641 45.1496 72.0195 43.5649C73.0554 40.6914 73.0686 37.4981 72.2824 34.557C71.2523 30.7028 68.7092 27.5614 65.2539 25.6528L60.508 23.0306C60.508 22.6351 60.4808 22.2008 60.5427 21.7863C60.7042 20.6927 61.4928 19.9676 62.5443 19.6989C63.3082 19.5522 64.0194 19.5432 64.9292 19.5671L64.9374 14.9201L56.0803 14.9061C55.3304 13.7878 54.4898 12.6539 53.543 11.6774C57.3584 10.3646 61.4063 10.1017 65.3585 10.869Z" fill="#EDFD41"/>
<path d="M77.5054 51.5501L76.3681 49.0119C82.6682 43.1247 84.9591 34.0171 82.1877 25.6717C79.7139 18.2229 73.2136 12.3909 65.3593 10.8655C63.2011 9.08801 60.7684 7.66731 58.2344 6.48476C65.492 6.19222 72.6285 9.13828 77.6809 14.241C88.0222 24.6844 87.812 41.3629 77.5062 51.5484L77.5054 51.5501Z" fill="#2E2E34"/>
<path d="M58.2344 6.48438C60.7693 7.6661 63.2011 9.0868 65.3594 10.8652C61.4071 10.0971 57.3584 10.3608 53.5438 11.6736C52.4049 10.5001 51.0905 9.49142 49.7786 8.47122C49.6591 8.3781 49.5792 8.27838 49.5479 8.17702C52.3225 7.06123 55.276 6.60469 58.2344 6.4852V6.48438Z" fill="#9D61FD"/>
<path d="M76.3681 49.0113L77.5053 51.5494L77.671 52.0397C81.4032 63.0667 74.9853 74.5238 63.7787 77.558C63.5241 77.6272 63.1986 77.6619 62.9324 77.7088C60.836 78.078 58.6316 78.3483 56.4972 78.0508C49.2132 77.0347 42.9684 72.2831 40.4121 65.3568L50.5375 59.6896L50.5161 63.4441C50.5095 64.6588 49.7011 65.571 48.549 65.8545C47.7513 66.0259 46.9948 66.0482 46.0908 66.0251L46.0867 70.6613H64.9382L64.9308 66.0169C64.0523 66.0383 63.4079 66.0292 62.6572 65.8842C61.4639 65.5941 60.5228 64.6473 60.5203 63.3345L60.508 54.0661L65.3181 51.4052C68.4273 49.6854 70.8147 46.9082 72.0203 43.5625C73.7657 45.148 75.4138 46.8819 76.3681 49.0129V49.0113Z" fill="#FD54D3"/>
<path d="M72.0211 43.5616C70.8155 46.9074 68.4281 49.6845 65.3189 51.4043L60.5088 54.0653L60.5104 23.0273L65.2563 25.6495C68.7116 27.5589 71.2547 30.7003 72.2848 34.5537C73.071 37.494 73.0578 40.6873 72.0219 43.5616H72.0211Z" fill="#FEFEFE"/>
<path d="M9.63967 39.9047C2.92594 59.0101 13.7567 79.307 33.2164 84.5687C25.7569 83.8847 18.7004 80.5967 13.278 75.3885C6.34172 68.7259 2.58147 59.4279 2.98444 49.7829C3.22507 44.03 4.90454 38.2896 8.01624 33.4844C8.28571 35.6929 8.92767 37.8066 9.63967 39.9047Z" fill="#9C61FD"/>
<path d="M9.91083 40.5888C7.52019 47.4228 7.49052 55.0159 9.74519 61.8993C13.7263 74.0577 24.2093 82.9075 36.7641 84.8259C46.1025 86.2532 55.614 83.6055 62.9326 77.7076C63.1979 77.6606 63.5243 77.626 63.7789 77.5568C57.3594 83.0921 48.8615 85.9664 40.3332 85.5643C37.912 85.4506 35.5024 85.1836 33.2156 84.5655C13.756 79.3046 2.92515 59.0077 9.63888 39.9023C9.70563 40.1001 9.82512 40.4083 9.91083 40.5888Z" fill="#F7F6FA"/>
<path d="M16.2371 49.4585L16.2734 54.0626C16.3278 61.0186 21.7774 67.0912 28.5496 68.1576L28.5644 74.1288L32.6576 74.1395C33.2542 72.02 33.7734 69.9681 34.4805 67.9722C35.5509 67.7109 36.6115 67.3434 37.6292 66.8111L40.413 65.3557C42.9692 72.2821 49.2141 77.0337 56.4981 78.0498C50.999 82.3597 43.9697 84.6152 36.9576 84.7462C36.8958 84.747 36.7508 84.8163 36.7648 84.827C24.21 82.9085 13.727 74.0588 9.74588 61.9004C7.49121 55.0161 7.52088 47.4239 9.91152 40.5898C11.4863 43.8993 13.4781 47.0201 16.2363 49.4594L16.2371 49.4585Z" fill="#9D61FD"/>
<path d="M36.7646 84.8301C36.7506 84.8194 36.8956 84.7502 36.9575 84.7494C43.9695 84.6183 50.9989 82.3637 56.4979 78.0529C58.6323 78.3504 60.8366 78.0801 62.9331 77.7109C55.6145 83.6097 46.103 86.2566 36.7646 84.8293V84.8301Z" fill="#2E2D35"/>
</g>
<defs>
<clipPath id="clip0_7196_120508">
<rect width="89" height="89" fill="white"/>
</clipPath>
</defs>
</svg>
