<svg width="1470" height="625" viewBox="0 0 1470 625" fill="none" xmlns="http://www.w3.org/2000/svg">
<g clip-path="url(#clip0_7185_128082)">
<path d="M621.929 307.418C612.34 306.204 603.583 312.993 602.37 322.581C601.156 332.17 607.945 340.927 617.533 342.14L619.731 324.779L621.929 307.418ZM856.231 464.279L847.038 479.17C861.706 488.224 882.308 495.145 905.758 500.773C929.547 506.482 957.713 511.187 988.439 515.197C1049.88 523.216 1122.93 528.623 1194.17 533.497C1265.69 538.389 1335.29 542.736 1390.74 548.628C1418.46 551.574 1442.19 554.86 1460.58 558.691C1469.77 560.606 1477.31 562.594 1483.2 564.627C1489.3 566.735 1492.63 568.557 1494.12 569.692L1504.73 555.779L1515.34 541.865C1509.54 537.44 1502.19 534.156 1494.63 531.545C1486.85 528.86 1477.75 526.518 1467.71 524.427C1447.64 520.245 1422.58 516.814 1394.44 513.824C1338.14 507.843 1267.63 503.439 1196.56 498.578C1125.22 493.698 1053.19 488.351 992.969 480.491C962.86 476.562 936.039 472.047 913.926 466.739C891.473 461.351 875.256 455.458 865.424 449.388L856.231 464.279ZM619.731 324.779L617.533 342.14C619.636 342.407 620.969 342.686 622.529 343.039C624.205 343.419 626.604 344.002 629.866 344.543L632.731 327.279L635.596 310.015C633.578 309.68 632.339 309.375 630.267 308.905C628.078 308.409 625.551 307.876 621.929 307.418L619.731 324.779ZM632.731 327.279L629.866 344.543C687.212 354.06 716.751 372.298 743.543 394.962C770.369 417.654 798.652 449.299 847.038 479.17L856.231 464.279L865.424 449.388C819.889 421.277 797.202 394.509 766.147 368.24C735.059 341.942 699.809 320.671 635.596 310.015L632.731 327.279Z" fill="#EDFF40"/>
<path d="M-91.1252 247.525L-91.1843 247.505C-126.646 204.772 -116.469 142.311 -89.904 97.6348C-77.17 76.2048 -58.7733 56.3528 -35.9551 45.6138C-10.0616 33.4558 17.4022 35.5128 43.5123 45.8048C94.1553 65.7628 142.262 93.4238 189.778 119.734C237.294 146.043 286.661 174.195 337.141 197.318C386.497 219.929 439.667 241.409 494.114 246.904C540.142 251.559 599.905 243.866 622.523 197.01C631.126 179.188 633.343 157.447 627.344 138.51C620.792 117.809 604.294 104.986 583.502 100.145C558.438 94.3258 530.861 98.2428 505.862 102.524C476.623 107.535 447.998 115.734 420.935 127.97C368.72 151.591 326.576 189.362 294.013 236.207C261.45 283.052 237.351 338.183 215.603 392.313C193.865 446.414 174.401 503.671 143.421 553.383C116.337 596.894 71.1731 631.74 17.3831 619.402C-5.36728 614.203 -25.1966 598.763 -34.2239 576.932C-45.2728 550.213 -40.6781 520.602 -27.6568 495.525C-14.8003 470.753 6.13483 449.977 27.0505 431.874C49.5091 412.442 74.3257 395.557 100.291 381.168C148.454 354.483 200.507 338.242 253.301 323.646C300.317 310.637 347.954 300.394 396.649 296.392C478.22 289.695 539.876 286.581 618.732 306.777C629.732 308.838 640.268 310.521 644.732 311.777C669.232 316.277 659.929 348.833 640.232 346.277C636.282 345.189 616.487 342.209 612.732 341.277C561.255 328.502 527.214 329 471.255 327.317C418.184 325.732 365.714 330.942 313.87 342.367C270.798 351.838 226.816 363.251 185.467 378.574C129.908 399.166 77.1749 428.401 34.4291 469.832C16.7494 486.977 -1.73082 507.488 -6.50701 532.532C-10.7059 554.593 -2.72088 577.671 19.4219 585.743C68.5068 603.66 105.868 555.677 125.881 518.038C153.521 466.033 172.708 409.781 195.26 355.487C238.145 252.271 295.588 150.957 400.716 101.115C473.262 66.7148 645.047 23.0488 662.412 144.164C669.108 190.803 647.146 234.589 607.399 259.107C561.48 287.435 502.364 284.394 451.756 273.073C346.858 249.594 252.079 191.52 158.984 140.281C135.616 127.433 112.152 114.733 88.3085 102.743C64.4658 90.7528 41.1334 77.3438 15.9603 71.4568C-35.1835 59.4718 -70.9095 117.1 -79.0708 159.993C-83.3363 182.36 -81.8346 207.138 -66.7908 225.288C-53.2841 241.582 -77.569 263.868 -91.1252 247.525Z" fill="#EDFF40"/>
</g>
<defs>
<clipPath id="clip0_7185_128082">
<rect width="1470" height="625" fill="white"/>
</clipPath>
</defs>
</svg>
