<svg width="1089" height="724" viewBox="0 0 1089 724" fill="none" xmlns="http://www.w3.org/2000/svg">
<path d="M10.3234 679.31C51.1545 695.002 93.5577 706.777 136.697 714.06C179.836 721.342 222.549 725.72 264.797 722.063C284.906 720.325 304.613 715.174 321.75 704.248C337.837 693.991 349.626 677.632 356.75 660.124C372.43 621.609 371.662 576.1 368.608 535.361C364.695 483.226 352.837 432.137 341 381.358L337.465 394.094C345.963 385.36 362.012 387.687 372.658 389.511C390.678 392.588 408.363 398.316 425.956 403.15C464.29 413.668 502.529 424.545 540.658 435.801C617.637 458.52 694.2 482.664 770.277 508.243C791.401 515.341 812.396 522.941 833.572 529.893C850.939 535.591 873.833 538.539 885.497 520.734C889.423 514.736 891.009 505.546 885.62 499.631C859.956 471.429 834.307 443.208 808.643 415.006L797.018 442.619C851.75 439.744 905.135 456.782 957.933 468.621C984.751 474.619 1011.95 479.596 1039.47 480.445C1046.07 480.643 1053.42 481.411 1060 480.517C1067.18 479.53 1073.92 473.588 1078.27 468.078C1086 458.237 1088.36 445.821 1088.06 433.574C1087.45 408.055 1074.24 383.421 1063.43 360.964C1050.28 333.695 1035.52 307.252 1020.19 281.157C990.137 229.97 957.29 180.397 928.844 128.264C921.23 114.288 912.528 99.9585 907.699 84.7183C904.059 73.212 904.964 62.8702 912.4 54.7018C925.556 40.2633 952.168 36.5087 972.213 34.3954C994.319 32.0639 990.127 -2.21961 968.004 0.114034C938.272 3.26004 903.652 10.3817 883.896 34.9738C856.082 69.603 880.431 111.468 898.406 144.216C938.043 216.358 985.645 283.937 1023.1 357.303C1032.97 376.622 1043.26 396.516 1050.18 417.12C1052.29 423.42 1054.01 431.317 1053.72 437.616C1053.43 443.915 1052.28 446.475 1047.4 449.666L1055.77 446.255C1011.8 447.339 968.464 435.922 926.032 425.751C882.184 415.25 838.141 405.99 792.794 408.357C780.259 409.008 772.561 426.518 781.169 435.97C806.833 464.172 832.482 492.393 858.146 520.595C858.187 513.561 858.228 506.527 858.269 499.492L857.128 501.251C859.95 499.582 860.452 499.137 858.656 499.949C858.485 499.831 857.123 500.224 856.055 500.164C854.654 500.093 851.421 499.411 849.424 498.873C840.159 496.392 831.059 492.568 821.958 489.44C801.922 482.557 781.847 475.783 761.75 469.116C722.605 456.105 683.335 443.493 643.953 431.243C563.762 406.308 483.065 382.932 401.967 361.102C384.909 356.515 367.669 352.42 349.838 353.861C334.607 355.088 306.944 364.452 306.751 383.284C306.661 392.326 310.725 402.753 312.73 411.572C315.212 422.437 317.624 433.294 319.886 444.204C324.2 464.884 328.038 485.657 330.837 506.61C335.965 544.832 338.47 584.647 331.603 622.811C328.905 637.827 324.149 652.939 314.418 664.939C304.521 677.15 289.693 683.356 274.534 686.017C255.39 689.377 235.739 688.884 216.4 687.97C194.507 686.935 172.678 684.726 151.008 681.402C107.525 674.718 65.0373 663.388 23.9858 647.602C3.24071 639.623 -10.456 671.335 10.3255 679.327L10.3234 679.31Z" fill="#FF55D4"/>
</svg>
