<svg width="155" height="204" viewBox="0 0 155 204" fill="none" xmlns="http://www.w3.org/2000/svg">
<path d="M144.226 0.986774L143.485 1.97387L144.253 2.85129C144.939 3.61903 145.131 3.70128 146.035 3.53677C147.242 3.31741 149.463 1.01419 148.942 0.520646C148.722 0.301292 148.585 0.328711 148.503 0.575485C148.421 0.76742 148.064 1.28839 147.681 1.72709C146.584 3.04322 145.432 2.74161 145.158 1.01419L144.993 -0.00032012L144.226 0.986774Z" fill="white"/>
<path d="M15.574 4.25072C15.5191 4.44266 15.0256 6.36201 14.4772 8.50071C12.7498 15.4926 11.3788 19.1942 10.3094 19.7975C9.51429 20.2362 10.1175 20.4555 12.0094 20.4555C13.8465 20.4555 14.6417 20.2087 13.5998 19.9346C12.7772 19.7152 12.6401 19.1394 12.9965 17.3846C13.4901 14.9991 13.4627 14.9991 15.7659 15.0539L17.7675 15.0813L18.0691 16.1507C18.782 18.6184 18.782 19.1942 18.124 19.7975C17.7949 20.1265 17.5756 20.3733 17.6578 20.3733C19.7691 20.5652 21.7433 20.4555 21.7433 20.1539C21.7433 19.9894 21.5514 19.8249 21.332 19.8249C21.1127 19.8249 20.7562 19.5507 20.5369 19.1942C19.9885 18.3442 17.7127 10.3104 16.424 4.66201C16.232 3.89427 15.7933 3.67492 15.574 4.25072ZM16.6707 10.8588C17.1094 12.4765 17.3562 13.9023 17.2465 14.012C17.0272 14.2313 14.1756 14.2588 13.9562 14.0394C13.9014 13.9846 14.203 12.3943 14.6691 10.5572C15.1353 8.69265 15.6014 7.32168 15.7111 7.54104C15.8207 7.73297 16.2594 9.21361 16.6707 10.8588Z" fill="white"/>
<path d="M28.1875 8.22671C27.0359 12.9977 25.4456 18.838 25.144 19.3041C25.0617 19.4686 24.6779 19.5509 24.3214 19.4686C23.6359 19.3589 23.6908 19.2218 23.2521 22.6218C23.0601 24.0476 23.4988 24.4864 23.8004 23.1702C23.8827 22.7589 24.1843 22.0186 24.4859 21.5251L25.0343 20.6477H29.5585C33.8359 20.6477 34.0827 20.6751 34.3569 21.2235C34.5214 21.5251 34.6311 22.238 34.6037 22.7864C34.4666 24.5138 35.015 24.1573 35.3714 22.2928C35.8924 19.5235 35.865 19.3589 34.9601 19.496C34.5214 19.5509 34.0553 19.4412 33.8908 19.2218C33.5343 18.7831 31.5601 11.6267 30.7924 7.89768C30.4908 6.38962 30.1617 4.88156 30.0795 4.52511C30.0246 4.19608 29.8053 3.92189 29.5859 3.92189C29.3666 3.92189 28.873 5.37511 28.1875 8.22671ZM30.9295 14.067C31.615 16.8638 32.1633 19.2218 32.1633 19.3315C32.1633 19.4686 30.7924 19.5509 29.1198 19.5509C26.7892 19.5509 26.1037 19.4686 26.2133 19.1944C26.2682 19.0299 27.0085 16.1235 27.8037 12.7509C29.1746 7.0751 29.3117 6.74607 29.5037 7.81543C29.6133 8.47349 30.2714 11.2703 30.9295 14.067Z" fill="white"/>
<path d="M1.94674 4.38635C0.109646 4.49603 -0.438741 4.82506 0.630613 5.15409C1.39836 5.40087 1.50803 6.33312 1.39836 13.1879L1.3161 19.3024L0.630613 19.8234C0.246743 20.125 -3.13848e-05 20.3718 0.0822266 20.3718C1.12416 20.5089 4.19513 20.4541 4.19513 20.3444C4.19513 20.2347 3.89352 19.9605 3.50964 19.7137L2.82416 19.275V12.146V5.017H3.50964C5.18222 5.017 6.41609 6.25087 6.79997 8.33473C7.15642 10.3089 5.89513 12.9686 4.60642 12.9686C4.24997 12.9686 3.8661 13.0783 3.78384 13.2428C3.50964 13.6815 5.51126 13.5718 6.25158 13.0783C8.91125 11.3509 8.74674 5.94925 6.0048 4.63313C5.51126 4.38635 4.77093 4.22184 4.41448 4.24926C4.08545 4.27668 2.96126 4.33152 1.94674 4.38635Z" fill="white"/>
<path d="M47.792 6.85578C46.5856 8.96707 44.1178 12.888 40.7452 18.0977C40.4985 18.4816 40.4162 17.5219 40.4162 13.3816C40.3888 6.93804 40.5533 5.26546 41.2662 5.07353C42.4178 4.77192 41.5952 4.4703 39.6485 4.4703L37.5098 4.49772L38.2775 5.04611L39.0178 5.62191V13.2719C39.0178 17.467 39.1275 20.9219 39.2372 20.9219C39.3743 20.9219 39.7307 20.6477 40.0323 20.2912C40.8549 19.4412 45.8178 11.8735 47.2711 9.35094C47.9291 8.17191 48.5323 7.21223 48.6146 7.21223C48.834 7.21223 48.4775 18.8106 48.2307 19.3316C48.1211 19.5783 47.8469 19.8525 47.6275 19.9348C47.4081 20.017 47.2436 20.1816 47.2436 20.2912C47.2436 20.5654 51.0275 20.538 51.2743 20.2638C51.384 20.1816 51.3017 20.0993 51.1372 20.0993C50.9727 20.0993 50.6436 19.9074 50.4243 19.6606C50.0404 19.3041 49.9856 18.1799 49.9856 11.709C49.9856 5.86869 49.9033 4.19611 49.6565 4.19611C49.4646 4.22353 48.6146 5.40256 47.792 6.85578Z" fill="white"/>
<path d="M87.0839 4.38697C85 4.49665 84.6436 4.68858 85.7129 5.15471C86.4807 5.51116 86.6726 6.90954 86.6726 12.4208C86.7 17.6305 86.4533 19.1934 85.6033 19.8514C85.2468 20.1256 85 20.3724 85.0823 20.3724C85.1645 20.3998 86.5355 20.4547 88.1533 20.5369C91.7178 20.7014 92.5403 20.3998 93.3355 18.645C94.021 17.0821 93.9936 15.2998 93.2533 13.7918C92.7049 12.7499 92.4307 12.5031 91.3065 12.1192L89.9629 11.6805L90.9774 11.1047C92.5678 10.145 93.2258 7.81438 92.3758 6.16922C91.4984 4.44181 90.7033 4.19503 87.0839 4.38697ZM90.3194 5.78535C92.4307 7.64986 91.1145 11.5982 88.3726 11.5982C87.8516 11.5982 87.8242 11.4337 87.8242 9.32244C87.8242 5.89503 88.0436 5.01761 88.8113 5.01761C89.1678 5.01761 89.8533 5.37406 90.3194 5.78535ZM90.7855 12.695C92.0194 13.4628 92.5678 14.8611 92.4307 16.9176C92.321 18.316 92.1839 18.645 91.4436 19.3031C90.4565 20.1805 89.3323 20.3176 88.4823 19.7143C88.0162 19.3579 87.9613 18.9192 87.8791 15.7386L87.7694 12.1466H88.8387C89.4145 12.1466 90.292 12.3934 90.7855 12.695Z" fill="white"/>
<path d="M99.9434 4.7446C97.4482 6.0333 96.0498 8.80265 96.0498 12.422C96.0498 15.2188 96.7627 17.193 98.3804 18.8381C99.8063 20.3187 101.972 21.0865 103.919 20.8123C105.619 20.5929 106.168 20.2091 106.771 18.9204C107.676 16.9188 107.319 16.343 106.277 18.1526C104.413 21.4429 100.135 20.3736 98.1885 16.1236C97.2837 14.1494 97.3111 10.1188 98.2159 8.25426C99.5046 5.59459 101.972 4.30589 104.166 5.15588C105.564 5.67685 105.839 5.97846 106.305 7.51394L106.634 8.72039L106.853 6.71878C106.963 5.59459 106.99 4.63492 106.935 4.58008C106.853 4.49782 105.537 4.38814 103.974 4.30589C101.424 4.16879 101.013 4.22363 99.9434 4.7446Z" fill="white"/>
<path d="M132.792 7.12922C131.064 10.0905 126.376 17.4663 125.827 18.0969C125.443 18.5356 125.581 6.19696 125.964 5.48406C126.102 5.23729 126.403 5.01793 126.623 5.01793C126.842 5.01793 127.034 4.88084 127.034 4.74374C127.034 4.57922 126.156 4.46955 124.977 4.46955C123.798 4.46955 122.921 4.57922 122.921 4.74374C122.921 4.88084 123.113 5.01793 123.332 5.01793C124.127 5.01793 124.292 6.44374 124.292 13.655C124.292 20.0985 124.347 20.8937 124.731 20.7292C125.169 20.5647 130.598 12.5582 132.655 8.99373C133.861 6.90986 133.916 6.85502 133.779 7.89696C133.697 8.50018 133.614 11.2421 133.614 14.0115V19.0292L132.902 19.6873C132.49 20.0711 132.216 20.3727 132.271 20.4002C132.819 20.4824 136.356 20.4824 136.356 20.4002C136.356 20.3453 136.055 20.0163 135.671 19.6598L134.985 19.0292V11.5986C134.985 7.45825 134.876 4.19535 134.739 4.19535C134.602 4.19535 133.724 5.51148 132.792 7.12922Z" fill="white"/>
<path d="M149.107 7.10256C147.763 9.46061 143.76 15.8219 142.17 18.0977C141.895 18.509 141.84 17.4396 141.923 12.2848C142.005 8.80255 142.142 5.75901 142.252 5.48482C142.361 5.23804 142.608 5.01869 142.828 5.01869C143.047 5.01869 143.211 4.88159 143.211 4.7445C143.211 4.57998 142.334 4.4703 141.128 4.4703C139.839 4.4703 139.126 4.57998 139.236 4.7445C139.318 4.88159 139.565 5.01869 139.784 5.01869C139.976 5.01869 140.223 5.21063 140.305 5.4574C140.387 5.70417 140.47 9.26868 140.47 13.409C140.47 17.5493 140.579 20.9219 140.689 20.9219C140.826 20.9219 141.182 20.6477 141.511 20.2912C142.307 19.4412 147.489 11.5719 148.832 9.18642C149.436 8.11707 149.984 7.21223 150.066 7.21223C150.149 7.21223 150.149 9.92674 150.066 13.2719L149.929 19.3041L149.244 19.8251C148.449 20.4283 148.394 20.4009 150.752 20.4283C152.589 20.4557 153.274 20.2638 152.37 19.9074C152.095 19.8251 151.766 19.6057 151.657 19.4412C151.547 19.2767 151.437 15.767 151.437 11.6542C151.437 5.86869 151.355 4.19611 151.108 4.19611C150.916 4.19611 150.011 5.51224 149.107 7.10256Z" fill="white"/>
<path d="M54.0985 4.68898C54.0985 4.79866 54.3453 5.04543 54.6469 5.23736C55.1679 5.5664 55.1953 5.86801 55.1953 12.3664C55.1953 16.0954 55.0856 19.276 54.9759 19.4406C54.8663 19.6051 54.5372 19.8244 54.2356 19.9615C53.1388 20.4276 57.4985 20.6744 64.5727 20.5922L71.6195 20.4825L70.6598 21.5793C70.1114 22.2099 69.2888 23.3067 68.8227 24.0744C67.9179 25.5002 67.0405 25.9115 66.3001 25.3083C66.0808 25.1438 65.7517 25.0889 65.5872 25.1986C65.0663 25.5002 66.1082 26.1309 67.1775 26.1309C68.4114 26.1309 69.7001 24.9244 70.934 22.5938C71.4824 21.5518 72.113 20.647 72.3324 20.5373C72.5517 20.4551 72.7437 20.2083 72.7437 19.9889C72.7437 19.6599 72.5517 19.6051 71.9485 19.7147C71.3453 19.8518 71.0711 19.7422 70.7146 19.2486C70.3308 18.7002 70.2759 17.6857 70.2759 12.2019V5.81317L70.9888 5.15511L71.7292 4.46963H69.563C67.4517 4.46963 67.4243 4.49704 68.0001 4.96317C69.1243 5.84059 69.2066 6.66317 69.0146 13.2712L68.8227 19.4954L66.5469 19.6873C65.2856 19.797 64.0792 19.8244 63.8324 19.7147C63.4759 19.5777 63.4211 18.5906 63.4211 12.6954V5.81317L64.134 5.15511L64.8743 4.46963H62.9001C60.8711 4.46963 60.5695 4.63414 61.5017 5.23736C62.0227 5.5664 62.0501 5.86801 62.0501 12.7502V19.9067L59.555 19.7422C58.184 19.6325 56.9501 19.4954 56.813 19.3857C56.6759 19.3035 56.5663 16.2873 56.5663 12.5309V5.81317L57.2792 5.15511L58.0195 4.46963H56.0453C54.9759 4.46963 54.0985 4.55188 54.0985 4.68898Z" fill="white"/>
<path d="M75.0197 5.10032L75.7874 5.70354L75.8423 12.01C75.8697 15.4922 75.8149 18.6454 75.7052 19.0293C75.5955 19.4406 75.2116 19.8519 74.8826 19.9616C74.1149 20.2358 80.3939 20.7841 81.381 20.5374C82.0116 20.3729 82.2858 19.7971 82.7245 17.8229C82.9713 16.6987 82.3955 16.918 81.9019 18.1519C81.6826 18.7551 81.189 19.3309 80.8052 19.5229C79.9826 19.8793 78.5294 19.9067 77.981 19.5777C77.5149 19.2761 77.1584 17.3019 77.1584 14.6971L77.131 12.7229L78.1181 12.5309C79.4342 12.2842 80.339 12.7503 80.6681 13.8471L80.9149 14.7519L80.9423 13.7922C80.9697 13.2713 81.0519 12.1745 81.1342 11.3793C81.2713 10.3922 81.2165 9.95353 80.9971 9.95353C80.8326 9.95353 80.6955 10.2003 80.6955 10.4745C80.6955 11.5987 79.0229 12.2568 77.5697 11.7084C77.0761 11.5164 76.9939 9.67934 77.2955 6.99225L77.4874 5.56645H78.8858C80.5858 5.56645 80.9697 5.89548 80.9697 7.26644C80.9697 8.88418 81.4358 8.50031 81.7649 6.58096C81.9294 5.62128 82.0665 4.74387 82.0665 4.66161C82.0665 4.55193 80.3116 4.46968 78.1729 4.46968H74.252L75.0197 5.10032Z" fill="white"/>
<path d="M109.76 4.63487C109.76 4.71713 110.034 5.01874 110.39 5.29293C110.993 5.78648 110.993 5.86874 110.993 12.4219V19.0574L110.171 19.7155C109.732 20.0719 109.403 20.3735 109.485 20.401C109.568 20.401 110.527 20.4284 111.624 20.4558C112.94 20.4832 113.598 20.401 113.598 20.209C113.598 20.0171 113.351 19.8252 113.077 19.7429C112.337 19.551 112.145 17.3848 112.282 10.9413C112.364 5.97842 112.392 5.78648 112.995 5.29293C113.324 5.01874 113.598 4.71713 113.598 4.63487C113.598 4.55261 112.748 4.47035 111.679 4.47035C110.637 4.47035 109.76 4.55261 109.76 4.63487Z" fill="white"/>
<path d="M116.614 4.71639C116.614 4.85349 116.806 5.01801 117.025 5.12768C117.711 5.37446 117.491 5.89542 115.654 8.30832C114.667 9.59703 113.625 10.968 113.324 11.3519L112.803 12.0648L114.037 13.7648C114.722 14.7244 115.819 16.3696 116.477 17.4389C118.067 20.0438 118.78 20.7018 119.932 20.5922C120.425 20.5373 120.891 20.3454 120.946 20.126C121.029 19.9067 120.946 19.8244 120.782 19.9341C120.151 20.318 119.466 19.5502 117.985 16.918C117.162 15.4648 115.901 13.6277 115.216 12.8599L113.954 11.489L116.45 8.47284C117.875 6.77284 119.274 5.34704 119.712 5.18252C120.946 4.71639 120.562 4.46962 118.533 4.46962C117.491 4.46962 116.614 4.5793 116.614 4.71639Z" fill="white"/>
<path d="M0.356451 69.9193C0.356451 93.7467 0.274193 128.268 0.164516 146.638L0 180.035L29.0371 179.816C44.9951 179.706 58.129 179.569 58.1838 179.514C58.2387 179.459 58.2935 172.413 58.3209 163.858L58.3484 148.284L45.2967 148.393L32.2451 148.503L32.0806 132.216C31.9709 123.25 31.8887 102.932 31.8887 87.0564V58.2113H76.8564H121.824L121.879 101.726C121.906 125.69 121.934 145.816 121.961 146.501V147.735L116.889 147.9C114.092 148.009 109.102 148.092 105.784 148.119C102.466 148.147 98.737 148.229 97.5032 148.338L95.2274 148.503V150.751V153L102.576 152.863C106.606 152.808 113.653 152.671 118.26 152.588L126.623 152.397V149.161C126.623 147.406 126.595 125.169 126.54 99.7515L126.485 53.55H76.8564H27.2274L27.2822 90.3467C27.3097 110.61 27.3919 133.011 27.4468 140.168L27.529 153.164L40.608 153.055L53.6871 152.945V163.913V174.88L29.3387 175.127C15.9581 175.264 4.93548 175.319 4.88064 175.237C4.8258 175.182 4.8258 142.745 4.93548 103.179L5.1 31.2581L42.2806 31.4226C62.7354 31.5323 94.9806 31.6146 113.955 31.6146H148.421L148.366 103.234L148.284 174.88L110.527 174.963L72.7435 175.017V154.809V134.629L58.979 134.738L45.1871 134.848V103.316V71.7838L50.3967 71.6467C55.4419 71.4822 55.9354 71.4274 66.0258 69.4806L76.4451 67.479L87.5499 69.3435C97.5032 71.0161 99.1757 71.2354 103.59 71.3725L108.526 71.5096L108.663 103.042C108.745 120.371 108.773 134.629 108.718 134.711C108.663 134.766 102.631 134.93 95.2822 135.068C87.9338 135.177 81.8741 135.369 81.7919 135.424C81.7096 135.506 81.6274 142.471 81.5451 150.916L81.4629 166.243H110.966H140.469L140.305 103.371C140.222 68.8225 140.085 40.3613 140.031 40.142C139.921 39.8129 137.206 39.7855 121.468 39.9226C111.323 40.0323 84.1774 40.142 61.0903 40.1694C38.0306 40.1968 17.9322 40.2516 16.4516 40.3339L13.7919 40.4162L13.8468 103.261L13.929 166.106L29.0919 166.188L44.2274 166.243V163.913V161.582L31.4226 161.527L18.5903 161.445L18.5081 103.261C18.4532 48.0387 18.4806 45.0774 18.9193 44.9403C19.9064 44.6662 135.342 44.6387 135.424 44.9129C135.452 45.05 135.561 71.3725 135.616 103.371L135.753 161.582H110.966H86.179V150.916C86.179 144.088 86.2887 140.168 86.4532 140.058C86.5903 139.976 92.7322 139.784 100.081 139.647C107.456 139.509 113.461 139.4 113.461 139.4C113.461 118.205 113.269 67.2871 113.187 67.0403C113.105 66.7935 111.514 66.7113 106.469 66.7113H99.8886L88.1806 64.7645L76.4725 62.8177L66.0258 64.8193L55.6064 66.8484L48.0661 66.9854L40.5258 67.1225V103.316V139.509L54.3177 139.427L68.0822 139.345V159.498V179.679L110.527 179.624L152.945 179.542L153.027 103.234L153.082 26.9533H116.669C96.6257 26.9533 62.2693 26.871 40.3064 26.7614L0.356451 26.5968V69.9193Z" fill="white"/>
<path d="M146.611 183.217C146.063 183.875 146.063 184.012 146.392 184.642C146.885 185.602 148.092 186.068 149.408 185.821C150.833 185.547 153.987 182.421 152.835 182.421C152.698 182.421 152.314 182.833 152.013 183.326C151.409 184.313 150.45 184.889 149.408 184.889C148.558 184.889 147.379 183.93 147.269 183.134L147.187 182.504L146.611 183.217Z" fill="white"/>
<path d="M4.277 188.123C4.08506 188.26 3.67377 189.768 3.37216 191.468C2.74152 194.978 2.05603 196.76 1.20603 197.199C0.164097 197.775 0.602807 198.021 2.68668 198.021C4.71571 198.021 5.37377 197.72 4.08506 197.391C3.26248 197.199 3.07055 196.404 3.39958 194.621C3.53668 193.854 3.72861 192.647 3.81087 191.934C3.97539 190.755 4.46893 189.823 4.46893 190.673C4.46893 191.139 7.81409 198.049 8.03345 198.049C8.2528 198.049 11.598 191.167 11.598 190.7C11.598 190.509 11.7076 190.371 11.8447 190.371C12.1463 190.371 12.6947 193.799 12.6947 195.718C12.6947 197.034 12.6125 197.309 12.1463 197.418C10.9399 197.747 11.7076 198.021 13.7915 197.994C16.0673 197.994 16.4512 197.802 15.327 197.281C14.4496 196.897 13.9286 195.17 13.5173 191.413C13.3254 189.85 13.1334 188.425 13.0786 188.26C12.8318 187.41 12.0367 188.507 10.3093 192.044C9.29474 194.128 8.3899 195.855 8.30764 195.855C8.19796 195.855 7.97861 195.417 7.81409 194.896C7.62216 194.375 6.827 192.592 6.03184 190.947C5.01732 188.809 4.49635 187.986 4.277 188.123Z" fill="white"/>
<path d="M77.5691 188.289C76.9932 188.509 76.3078 188.892 76.061 189.112C75.6771 189.523 75.6771 189.605 76.1158 190.017C76.582 190.483 76.6368 190.483 76.8836 190.017C77.7336 188.536 79.1868 188.042 80.3658 188.892C81.7642 189.879 80.6674 192.292 78.8303 192.292C78.3368 192.292 77.9529 192.402 77.9529 192.567C77.9529 192.704 78.3916 192.841 78.9126 192.841C80.3658 192.841 81.2432 193.828 81.2432 195.418C81.2432 196.405 81.1061 196.734 80.5303 197.2C79.2416 198.215 77.4868 197.694 76.9932 196.131C76.7739 195.446 76.5271 195.446 75.8965 196.131C75.4303 196.652 75.4303 196.707 75.8965 197.228C76.582 197.968 78.3368 198.407 79.79 198.188C81.2432 197.968 82.7787 196.734 83.0255 195.583C83.2997 194.267 82.2852 192.868 81.0513 192.841C80.6949 192.841 80.4207 192.704 80.4207 192.567C80.4207 192.402 80.5578 192.292 80.6949 192.292C80.8594 192.292 81.2981 191.991 81.6545 191.607C82.5045 190.784 82.5868 189.304 81.7916 188.591C81.0787 187.933 78.94 187.796 77.5691 188.289Z" fill="white"/>
<path d="M112.172 188.152C110.938 188.563 109.787 189.523 109.211 190.647C108.58 191.909 108.498 194.102 109.046 195.391C109.567 196.68 111.158 197.968 112.501 198.188C113.516 198.352 113.927 198.243 115.682 197.365C116.806 196.789 117.711 196.186 117.711 195.994C117.711 195.775 117.245 195.884 116.422 196.323C114.859 197.118 112.858 197.091 111.898 196.241C111.13 195.555 110.308 193.718 110.308 192.649V191.772L113.872 191.936C117.135 192.101 117.437 192.073 117.601 191.607C117.848 190.976 116.998 189.359 116.038 188.646C115.216 188.043 113.269 187.796 112.172 188.152ZM114.832 189.057C115.243 189.441 115.572 190.017 115.6 190.51L115.654 191.333L113.05 191.251C111.624 191.223 110.417 191.113 110.362 191.059C110.116 190.812 110.938 189.249 111.514 188.865C112.364 188.234 113.982 188.344 114.832 189.057Z" fill="white"/>
<path d="M150.312 190.839C149.024 192.484 147.543 194.403 147.022 195.144L146.09 196.46L146.007 193.252C145.925 189.769 146.227 188.727 147.324 188.727C147.625 188.727 147.872 188.59 147.872 188.453C147.872 188.289 146.857 188.179 145.404 188.179C143.951 188.179 142.937 188.289 142.937 188.453C142.937 188.59 143.183 188.727 143.485 188.727C144.39 188.727 144.582 189.605 144.582 194.047C144.582 196.569 144.691 198.324 144.828 198.324C145.157 198.324 148.53 194.458 150.312 192.1C150.998 191.14 151.628 190.373 151.711 190.373C151.793 190.373 151.82 191.689 151.766 193.306C151.656 196.487 151.299 197.502 150.312 197.502C150.011 197.502 149.819 197.611 149.928 197.748C150.12 198.105 154.453 198.105 154.453 197.776C154.453 197.611 154.343 197.502 154.206 197.502C154.069 197.502 153.74 197.31 153.52 197.063C153.164 196.706 153.082 195.884 153.082 192.265C153.082 189.879 152.972 187.905 152.862 187.905C152.753 187.905 151.601 189.221 150.312 190.839Z" fill="white"/>
<path d="M40.1143 188.426C40.1143 188.563 40.361 188.727 40.6352 188.81C40.9094 188.865 41.3481 189.221 41.5675 189.577C42.061 190.345 45.0497 198.9 45.2417 200.134C45.5159 201.834 44.2546 202.821 43.0481 201.861C42.3901 201.368 42.3901 201.368 42.061 202.053C41.6223 203.04 41.6772 203.232 42.4997 203.561C43.4868 203.918 44.3917 203.671 44.9126 202.876C45.1594 202.519 45.7626 200.655 46.311 198.708C48.3675 191.113 49.2997 188.727 50.1223 188.727C50.3417 188.727 50.5336 188.59 50.5336 188.453C50.5336 188.289 49.711 188.179 48.6143 188.179C46.7772 188.179 46.0643 188.508 47.2433 188.81C47.9562 189.002 47.9562 189.303 46.8868 193.855C45.982 197.748 45.5981 198.818 45.5981 197.419C45.5981 197.008 45.0772 195.061 44.4465 193.087L43.2675 189.495L43.8981 189.002C44.2272 188.727 44.5014 188.426 44.5014 188.344C44.5014 188.261 43.5143 188.179 42.3078 188.179C41.1014 188.179 40.1143 188.289 40.1143 188.426Z" fill="white"/>
</svg>
