<svg width="351" height="156" viewBox="0 0 351 156" fill="none" xmlns="http://www.w3.org/2000/svg">
<path fill-rule="evenodd" clip-rule="evenodd" d="M192.968 19.044L182.259 16.174V154.079L175.123 156L167.988 154.079V16.174L157.231 19.0561V4.79138L175.111 0L192.968 4.79138V19.044ZM274.555 26.6445L257.015 93.4321V21.9626L242.72 18.1197V137.88L256.99 134.001L274.555 71.6154L274.58 129.331L288.838 125.513V30.4874L274.555 26.6445ZM235.597 118.374V16.1375L196.529 5.7521V150.248L210.8 146.429V125.014L235.597 118.374ZM221.375 26.6688V107.964L210.812 110.798V23.8353L221.375 26.6688ZM335.951 43.1103L323.699 80.5659L310.268 36.1786L295.96 32.3967V123.603L310.23 119.773V68.7821L315.944 96.8614L330.216 92.9457L335.916 71.9439V112.841L350.234 109.047L350.185 46.941L335.951 43.1103ZM86.255 23.8475L100.525 19.9925V135.995L86.255 132.165V68.5996L79.1198 108.889L64.8493 105.022L57.7141 71.3114V124.527L43.4436 120.697V35.291L57.7141 31.4602L71.7899 84.5668L86.255 23.8475ZM107.661 18.0833L153.657 5.73994V150.236L107.661 137.917V18.0833ZM121.931 28.5294V127.483L139.386 132.152V23.8475L121.931 28.5294ZM0 46.941L36.3084 37.2003V65.7054L22.0378 69.5359V55.3076L14.2705 57.3871V98.6126L22.0378 100.704V86.4639L36.3084 90.2946V118.788L0 109.059V46.941Z" fill="white"/>
</svg>
