<svg width="445" height="154" viewBox="0 0 445 154" fill="none" xmlns="http://www.w3.org/2000/svg">
<g clip-path="url(#clip0_7176_126903)">
<path d="M160.813 54.5313L170.29 25.8105H175.192L181.869 45.2586H181.95L188.543 25.8105H193.445L202.881 54.5313H195.918L190.847 37.7906H190.766L184.753 54.5313H178.942L172.928 37.7906H172.848L167.777 54.5313H160.813Z" fill="#DA2031"/>
<path d="M219.709 44.111C219.709 40.9106 218.058 38.6524 215.34 38.6524C212.621 38.6524 210.93 40.9106 210.93 44.111C210.93 47.2314 212.621 49.69 215.34 49.69C218.058 49.69 219.709 47.2314 219.709 44.111ZM204.671 44.111C204.671 37.7942 209.037 33.3223 215.34 33.3223C221.562 33.3223 225.969 37.7942 225.969 44.111C225.969 50.5523 221.562 55.0242 215.34 55.0242C209.037 55.0242 204.671 50.5523 204.671 44.111Z" fill="#DA2031"/>
<path d="M229.03 44.111C229.03 37.7942 233.11 33.3223 239.328 33.3223C241.922 33.3223 244.851 33.8557 247.239 36.1938L243.409 39.968C242.462 38.9813 241.141 38.6124 239.699 38.6124C236.981 38.6124 235.333 40.9106 235.333 44.111C235.333 47.3116 236.981 49.69 239.699 49.69C241.141 49.69 242.462 49.321 243.409 48.3785L247.239 52.1525C244.851 54.4908 241.922 55.0242 239.328 55.0242C233.11 55.0242 229.03 50.5523 229.03 44.111Z" fill="#DA2031"/>
<path d="M250.875 33.8125H256.888V41.6495H257.794L262.7 33.8125H269.579L262.905 44.068L270.4 54.532H263.07L257.549 46.655H256.888V54.532H250.875V33.8125Z" fill="#DA2031"/>
<path d="M286.889 44.111C286.889 40.9106 285.242 38.6524 282.523 38.6524C279.805 38.6524 278.113 40.9106 278.113 44.111C278.113 47.2314 279.805 49.69 282.523 49.69C285.242 49.69 286.889 47.2314 286.889 44.111ZM271.851 44.111C271.851 37.7942 276.22 33.3223 282.523 33.3223C288.746 33.3223 293.152 37.7942 293.152 44.111C293.152 50.5523 288.746 55.0242 282.523 55.0242C276.22 55.0242 271.851 50.5523 271.851 44.111Z" fill="#DA2031"/>
<path d="M308.117 50.1803C309.805 50.1803 310.385 49.322 310.385 48.3794C310.385 47.3928 309.805 46.4063 308.117 46.4063H303.586V50.1803H308.117ZM307.006 42.3874C308.528 42.3874 309.724 41.7737 309.724 40.2137C309.724 38.6535 308.528 38.1602 307.006 38.1602H303.586V42.3874H307.006ZM297.569 54.5319V33.8125H308.323C312.403 33.8125 315.943 35.3326 315.943 39.4356C315.943 41.3206 314.465 42.961 312.854 43.4142V43.4944C315.286 44.1522 316.809 45.8768 316.809 48.4196C316.809 51.4556 314.545 54.5319 309.229 54.5319H297.569Z" fill="#DA2031"/>
<path d="M319.831 44.111C319.831 37.7942 323.911 33.3223 330.129 33.3223C332.723 33.3223 335.651 33.8557 338.04 36.1938L334.209 39.968C333.263 38.9813 331.942 38.6124 330.5 38.6124C327.782 38.6124 326.134 40.9106 326.134 44.111C326.134 47.3116 327.782 49.69 330.5 49.69C331.942 49.69 333.263 49.321 334.209 48.3785L338.04 52.1525C335.651 54.4908 332.723 55.0242 330.129 55.0242C323.911 55.0242 319.831 50.5523 319.831 44.111Z" fill="#DA2031"/>
<path d="M341.675 33.8125H347.688V41.6495H348.594L353.499 33.8125H360.379L353.705 44.068L361.2 54.532H353.87L348.348 46.655H347.688V54.532H341.675V33.8125Z" fill="#DA2031"/>
<path d="M364.054 33.8125H370.07V45.5038H370.151L378.102 33.8125H383.293V54.532H377.28V42.8366H377.199L369.289 54.532H364.054V33.8125Z" fill="#DA2031"/>
<path d="M391.586 27.5372L394.72 24.4609C395.292 25.5678 396.447 27.0839 398.385 27.0839C400.858 27.0839 401.724 25.5678 402.34 24.4609L405.308 27.5372C404.523 29.1374 402.219 31.6401 398.509 31.6401C394.84 31.6401 392.532 29.1374 391.586 27.5372ZM389.073 33.8138H395.09V45.5052H395.171L403.121 33.8138H408.313V54.5333H402.3V42.838H402.219L394.309 54.5333H389.073V33.8138Z" fill="#DA2031"/>
<path d="M166.581 77.7129H170.661L175.768 90.5112H175.852L181.004 77.7129H184.955L190.275 98.4324H184.258L181.991 88.0927H181.906L177.625 98.4324H173.71L169.63 88.0526H169.55L167.197 98.4324H161.39L166.581 77.7129Z" fill="#DA2031"/>
<path d="M206.308 85.7116C206.067 83.4134 204.83 81.9776 202.523 81.9776C200.42 81.9776 199.103 83.5778 198.729 85.7116H206.308ZM192.305 88.0497C192.305 81.7329 196.55 77.2168 202.563 77.2168C208.245 77.2168 212.616 80.6661 212.616 88.5833V90.0191H198.813C199.268 92.6862 201.616 93.5485 203.55 93.5485C205.446 93.5485 207.134 92.6461 207.879 91.5792L211.749 95.4335C209.237 97.856 206.353 98.9229 202.889 98.9229C197.452 98.9229 192.305 95.0646 192.305 88.0497Z" fill="#DA2031"/>
<path d="M220.621 82.9228H214.523V77.7129H233.227L231.29 82.9228H226.634V98.4323H220.621V82.9228Z" fill="#DA2031"/>
<path d="M246.665 93.5063C249.428 93.5063 251.361 91.1682 251.361 87.9676C251.361 84.9314 249.428 82.5531 246.665 82.5531C243.906 82.5531 241.929 84.9314 241.929 87.9676C241.929 91.1682 243.906 93.5063 246.665 93.5063ZM242.174 106.02H236.161V77.7121H242.174V79.7616H242.259C243.165 78.6546 244.937 77.2188 248.107 77.2188C253.548 77.2188 257.624 81.6908 257.624 88.0076C257.624 94.3686 253.548 98.9209 248.107 98.9209C244.937 98.9209 243.165 97.485 242.259 96.378H242.174V106.02Z" fill="#DA2031"/>
<path d="M275.722 88.0095C275.722 84.809 274.075 82.5509 271.356 82.5509C268.638 82.5509 266.946 84.809 266.946 88.0095C266.946 91.1299 268.638 93.5885 271.356 93.5885C274.075 93.5885 275.722 91.1299 275.722 88.0095ZM260.684 88.0095C260.684 81.6926 265.053 77.2207 271.356 77.2207C277.575 77.2207 281.985 81.6926 281.985 88.0095C281.985 94.4508 277.575 98.9227 271.356 98.9227C265.053 98.9227 260.684 94.4508 260.684 88.0095Z" fill="#DA2031"/>
<path d="M286.401 77.7129H304.529V98.4324H298.516V82.9229H292.418V98.4324H286.401V77.7129Z" fill="#DA2031"/>
<path d="M323.906 88.0095C323.906 84.809 322.259 82.5509 319.54 82.5509C316.822 82.5509 315.13 84.809 315.13 88.0095C315.13 91.1299 316.822 93.5885 319.54 93.5885C322.259 93.5885 323.906 91.1299 323.906 88.0095ZM308.867 88.0095C308.867 81.6926 313.237 77.2207 319.54 77.2207C325.763 77.2207 330.169 81.6926 330.169 88.0095C330.169 94.4508 325.763 98.9227 319.54 98.9227C313.237 98.9227 308.867 94.4508 308.867 88.0095Z" fill="#DA2031"/>
<path d="M332.608 98.4303V93.9584C332.813 94.0387 333.269 94.1629 333.639 94.1629C335.202 94.1629 335.576 93.1362 335.907 89.4865C336.483 82.0185 336.483 77.7109 336.483 77.7109H353.209V98.4303H347.273V82.9209H341.755C341.674 84.481 341.715 86.4102 341.509 89.0332C341.054 95.4344 340.067 98.8395 334.916 98.8395C333.72 98.8395 332.608 98.4303 332.608 98.4303Z" fill="#DA2031"/>
<path d="M359.028 77.7129H365.045V89.4042H365.126L373.076 77.7129H378.268V98.4324H372.255V86.737H372.174L364.264 98.4324H359.028V77.7129Z" fill="#DA2031"/>
<path d="M388.043 82.9228H381.949V77.7129H400.649L398.716 82.9228H394.06V98.4323H388.043V82.9228Z" fill="#DA2031"/>
<path d="M415.53 85.7116C415.285 83.4134 414.048 81.9776 411.74 81.9776C409.642 81.9776 408.321 83.5778 407.95 85.7116H415.53ZM401.522 88.0497C401.522 81.7329 405.767 77.2168 411.781 77.2168C417.468 77.2168 421.833 80.6661 421.833 88.5833V90.0191H408.035C408.486 92.6862 410.834 93.5485 412.767 93.5485C414.668 93.5485 416.356 92.6461 417.097 91.5792L420.972 95.4335C418.454 97.856 415.57 98.9229 412.111 98.9229C406.673 98.9229 401.522 95.0646 401.522 88.0497Z" fill="#DA2031"/>
<path d="M426.171 77.7129H432.184V85.3454H438.982V77.7129H445V98.4324H438.982V90.5954H432.184V98.4324H426.171V77.7129Z" fill="#DA2031"/>
<path d="M54.0059 75.0955H50.377L53.909 65.0246L64.0502 81.6452L74.188 65.0246L77.724 75.0955H74.0912V81.1838H98.3373V75.0955H93.6288L77.5711 34.6875L64.0502 58.2907L50.526 34.6875L34.4717 75.0955H29.7676V81.1838H54.0059V75.0955Z" fill="#DA2031"/>
<path d="M128.105 63.7826C128.105 28.5564 99.4286 0 64.0505 0C28.6764 0 0 28.5564 0 63.7826C0 81.3697 7.17709 97.3444 18.7038 108.823C19.6866 109.802 20.9836 110.375 22.4413 110.375C25.313 110.375 27.641 108.049 27.641 105.193C27.641 103.742 27.021 102.414 26.0544 101.439C16.4245 91.8577 10.4112 78.4819 10.4112 63.7826C10.4112 34.3359 34.4719 10.3637 64.0505 10.3637C93.633 10.3637 117.698 34.3359 117.698 63.7826C117.698 78.514 111.677 91.8698 101.962 101.54L56.66 146.652L64.0382 154L109.373 108.863C120.948 97.3164 128.105 81.3857 128.105 63.7826Z" fill="#DA2031"/>
</g>
<defs>
<clipPath id="clip0_7176_126903">
<rect width="445" height="154" fill="white"/>
</clipPath>
</defs>
</svg>
