<svg width="477" height="120" viewBox="0 0 477 120" fill="none" xmlns="http://www.w3.org/2000/svg">
<g clip-path="url(#clip0_7176_126949)">
<path d="M1.87358 8.585C0.880265 8.4437 0 9.22027 0 10.2229V81.1729C0 82.0419 0.673497 82.7643 1.5396 82.8446C25.2235 85.0396 41.0497 93.8406 58.3788 108.335V33.9569C42.922 21.0366 23.7729 11.7 1.87358 8.585Z" fill="#82B9FF"/>
<path d="M94.6202 93.3649C94.2029 92.4862 94.6235 91.4372 95.5405 91.1106C101.789 88.8846 108.503 87.3109 116.018 86.4402C117.503 86.2682 118.096 84.3846 116.95 83.4276L72.1755 46.0416L64.4391 39.5769C63.3533 38.6696 61.7012 39.4409 61.7012 40.8552V108.101C61.7012 109.515 63.3567 110.291 64.4584 109.403C70.2668 104.72 75.9655 100.693 81.9056 97.3492C82.7379 96.8809 83.7879 97.2259 84.1969 98.0886L85.6509 101.156L90.1784 110.706C90.4543 111.288 91.041 111.659 91.6858 111.659H100.661C101.886 111.659 102.693 110.385 102.169 109.279L96.1326 96.5492L94.6202 93.3649Z" fill="#1576EF"/>
<path d="M9.94922 35.002C18.7045 36.6686 38.2581 42.3353 46.4298 51.6686" stroke="white" stroke-linecap="round"/>
<path d="M9.94922 48.3359C18.7045 50.0026 38.2581 55.6693 46.4298 65.0026" stroke="white" stroke-linecap="round"/>
<path d="M9.94922 61.668C18.7045 63.3346 38.2581 69.0013 46.4298 78.3346" stroke="white" stroke-linecap="round"/>
<path d="M142.767 29.1497V5.81641H160.379V8.64974H146.069V15.3164H153.341C156.12 15.3164 158.233 15.8942 159.678 17.0497C161.124 18.2053 161.847 19.8831 161.847 22.0831C161.847 24.3497 161.057 26.0942 159.478 27.3164C157.922 28.5386 155.687 29.1497 152.774 29.1497H142.767ZM146.069 26.5164H152.64C154.575 26.5164 156.032 26.1497 157.01 25.4164C158.011 24.6831 158.511 23.5942 158.511 22.1497C158.511 19.3497 156.554 17.9497 152.64 17.9497H146.069V26.5164Z" fill="white"/>
<path d="M179.673 29.4174C177.894 29.4174 176.238 29.1174 174.703 28.5174C173.191 27.9174 171.879 27.0841 170.767 26.0174C169.655 24.9285 168.788 23.6619 168.165 22.2174C167.543 20.773 167.231 19.1952 167.231 17.4841C167.231 15.773 167.543 14.1952 168.165 12.7508C168.788 11.3063 169.655 10.0508 170.767 8.98411C171.879 7.89521 173.191 7.05078 174.703 6.45078C176.215 5.85078 177.872 5.55078 179.673 5.55078C181.452 5.55078 183.087 5.85078 184.577 6.45078C186.089 7.02855 187.401 7.86188 188.513 8.95078C189.647 10.0174 190.514 11.273 191.115 12.7174C191.737 14.1619 192.049 15.7508 192.049 17.4841C192.049 19.2174 191.737 20.8063 191.115 22.2508C190.514 23.6952 189.647 24.9619 188.513 26.0508C187.401 27.1174 186.089 27.9508 184.577 28.5508C183.087 29.1285 181.452 29.4174 179.673 29.4174ZM179.673 26.4508C180.963 26.4508 182.153 26.2285 183.243 25.7841C184.354 25.3397 185.311 24.7174 186.111 23.9174C186.934 23.0952 187.568 22.1397 188.013 21.0508C188.48 19.9619 188.713 18.773 188.713 17.4841C188.713 16.1952 188.48 15.0063 188.013 13.9174C187.568 12.8285 186.934 11.8841 186.111 11.0841C185.311 10.2619 184.354 9.62855 183.243 9.18411C182.153 8.73968 180.963 8.51745 179.673 8.51745C178.361 8.51745 177.149 8.73968 176.038 9.18411C174.948 9.62855 173.992 10.2619 173.169 11.0841C172.346 11.8841 171.701 12.8285 171.234 13.9174C170.789 15.0063 170.567 16.1952 170.567 17.4841C170.567 18.773 170.789 19.9619 171.234 21.0508C171.701 22.1397 172.346 23.0952 173.169 23.9174C173.992 24.7174 174.948 25.3397 176.038 25.7841C177.149 26.2285 178.361 26.4508 179.673 26.4508Z" fill="white"/>
<path d="M197.69 29.4164C197.357 29.4164 197.023 29.3942 196.69 29.3497C196.356 29.3053 195.989 29.2386 195.589 29.1497L195.822 26.1831C196.178 26.272 196.534 26.3164 196.89 26.3164C197.868 26.3164 198.647 25.9275 199.225 25.1497C199.803 24.372 200.225 23.1942 200.492 21.6164C200.782 20.0386 200.97 18.0497 201.059 15.6497L201.426 5.81641H217.871V29.1497H214.602V7.84974L215.403 8.71641H203.561L204.295 7.81641L204.028 15.5497C203.961 17.8608 203.806 19.8831 203.561 21.6164C203.317 23.3497 202.95 24.7942 202.46 25.9497C201.971 27.1053 201.337 27.972 200.559 28.5497C199.803 29.1275 198.847 29.4164 197.69 29.4164Z" fill="white"/>
<path d="M237.386 13.9497C240.144 13.9497 242.267 14.572 243.757 15.8164C245.247 17.0386 245.992 18.872 245.992 21.3164C245.992 23.8942 245.18 25.8497 243.557 27.1831C241.956 28.4942 239.699 29.1497 236.786 29.1497H227.146V5.81641H230.448V13.9497H237.386ZM236.652 26.5164C238.587 26.5164 240.066 26.0831 241.089 25.2164C242.134 24.3497 242.656 23.072 242.656 21.3831C242.656 19.7386 242.145 18.5275 241.122 17.7497C240.099 16.972 238.609 16.5831 236.652 16.5831H230.448V26.5164H236.652Z" fill="white"/>
<path d="M266.703 26.2497L265.936 27.1164V5.81641H269.205V27.1164L268.371 26.2497H279.746L278.912 27.1164V5.81641H282.181V29.1497H252.927V5.81641H256.229V27.1164L255.395 26.2497H266.703Z" fill="white"/>
<path d="M288.209 29.1497L298.783 5.81641H302.085L312.693 29.1497H309.19L299.75 7.68307H301.085L291.645 29.1497H288.209ZM292.712 23.3164L293.613 20.6497H306.755L307.723 23.3164H292.712Z" fill="white"/>
<path d="M331.459 29.1497V21.5497L332.327 22.3497H325.021C323.131 22.3497 321.497 22.0275 320.118 21.3831C318.761 20.7386 317.716 19.8164 316.982 18.6164C316.271 17.3942 315.915 15.9275 315.915 14.2164C315.915 12.4386 316.304 10.9275 317.083 9.68307C317.861 8.41641 318.962 7.46084 320.385 6.81641C321.808 6.14974 323.465 5.81641 325.355 5.81641H334.727V29.1497H331.459ZM315.915 29.1497L321.686 20.8831H325.088L319.451 29.1497H315.915ZM331.459 20.4831V7.74974L332.327 8.71641H325.488C323.487 8.71641 321.953 9.18307 320.885 10.1164C319.818 11.0275 319.284 12.3831 319.284 14.1831C319.284 15.8942 319.784 17.2164 320.785 18.1497C321.808 19.0831 323.309 19.5497 325.288 19.5497H332.327L331.459 20.4831Z" fill="white"/>
<path d="M142.767 69.1497V45.8164H151.873C153.919 45.8164 155.665 46.1387 157.11 46.7831C158.555 47.4277 159.667 48.3611 160.446 49.5831C161.224 50.8054 161.613 52.2611 161.613 53.9497C161.613 55.6387 161.224 57.0944 160.446 58.3164C159.667 59.5164 158.555 60.4497 157.11 61.1164C155.665 61.7611 153.919 62.0831 151.873 62.0831H144.601L146.102 60.5164V69.1497H142.767ZM146.102 60.8497L144.601 59.1831H151.773C153.908 59.1831 155.52 58.7277 156.61 57.8164C157.721 56.9054 158.277 55.6164 158.277 53.9497C158.277 52.2831 157.721 50.9944 156.61 50.0831C155.52 49.1721 153.908 48.7164 151.773 48.7164H144.601L146.102 47.0497V60.8497Z" fill="white"/>
<path d="M179.088 69.4175C177.308 69.4175 175.652 69.1175 174.117 68.5175C172.605 67.9175 171.293 67.0841 170.181 66.0175C169.069 64.9288 168.202 63.6621 167.58 62.2175C166.957 60.7731 166.646 59.1955 166.646 57.4841C166.646 55.7731 166.957 54.1954 167.58 52.7508C168.202 51.3064 169.069 50.0508 170.181 48.9841C171.293 47.8954 172.605 47.0508 174.117 46.4508C175.629 45.8508 177.286 45.5508 179.088 45.5508C180.866 45.5508 182.501 45.8508 183.991 46.4508C185.503 47.0288 186.815 47.8621 187.927 48.9508C189.061 50.0174 189.928 51.2731 190.529 52.7174C191.151 54.1621 191.463 55.7508 191.463 57.4841C191.463 59.2175 191.151 60.8064 190.529 62.2508C189.928 63.6954 189.061 64.9621 187.927 66.0508C186.815 67.1175 185.503 67.9508 183.991 68.5508C182.501 69.1288 180.866 69.4175 179.088 69.4175ZM179.088 66.4508C180.377 66.4508 181.567 66.2288 182.657 65.7841C183.768 65.3398 184.725 64.7174 185.525 63.9174C186.348 63.0954 186.982 62.1398 187.427 61.0508C187.894 59.9621 188.127 58.7731 188.127 57.4841C188.127 56.1955 187.894 55.0064 187.427 53.9174C186.982 52.8288 186.348 51.8841 185.525 51.0841C184.725 50.2621 183.768 49.6288 182.657 49.1841C181.567 48.7398 180.377 48.5174 179.088 48.5174C177.775 48.5174 176.563 48.7398 175.452 49.1841C174.362 49.6288 173.406 50.2621 172.583 51.0841C171.76 51.8841 171.115 52.8288 170.648 53.9174C170.203 55.0064 169.981 56.1955 169.981 57.4841C169.981 58.7731 170.203 59.9621 170.648 61.0508C171.115 62.1398 171.76 63.0954 172.583 63.9174C173.406 64.7174 174.362 65.3398 175.452 65.7841C176.563 66.2288 177.775 66.4508 179.088 66.4508Z" fill="white"/>
<path d="M209.297 69.4175C207.518 69.4175 205.873 69.1288 204.36 68.5508C202.871 67.9508 201.57 67.1175 200.458 66.0508C199.368 64.9621 198.512 63.6954 197.889 62.2508C197.267 60.8064 196.955 59.2175 196.955 57.4841C196.955 55.7508 197.267 54.1621 197.889 52.7174C198.512 51.2731 199.379 50.0174 200.491 48.9508C201.603 47.8621 202.904 47.0288 204.394 46.4508C205.906 45.8508 207.551 45.5508 209.33 45.5508C211.132 45.5508 212.788 45.8621 214.301 46.4841C215.835 47.0841 217.136 47.9841 218.203 49.1841L216.035 51.2841C215.146 50.3508 214.145 49.6621 213.033 49.2174C211.921 48.7508 210.731 48.5174 209.464 48.5174C208.152 48.5174 206.929 48.7398 205.795 49.1841C204.683 49.6288 203.715 50.2508 202.893 51.0508C202.07 51.8508 201.425 52.8064 200.958 53.9174C200.513 55.0064 200.291 56.1955 200.291 57.4841C200.291 58.7731 200.513 59.9731 200.958 61.0841C201.425 62.1731 202.07 63.1174 202.893 63.9174C203.715 64.7174 204.683 65.3398 205.795 65.7841C206.929 66.2288 208.152 66.4508 209.464 66.4508C210.731 66.4508 211.921 66.2288 213.033 65.7841C214.145 65.3175 215.146 64.6064 216.035 63.6508L218.203 65.7508C217.136 66.9508 215.835 67.8621 214.301 68.4841C212.788 69.1064 211.121 69.4175 209.297 69.4175Z" fill="white"/>
<path d="M234.752 69.4175C232.973 69.4175 231.327 69.1288 229.815 68.5508C228.325 67.9508 227.024 67.1175 225.913 66.0508C224.823 64.9621 223.967 63.6954 223.344 62.2508C222.721 60.8064 222.41 59.2175 222.41 57.4841C222.41 55.7508 222.721 54.1621 223.344 52.7174C223.967 51.2731 224.834 50.0174 225.946 48.9508C227.058 47.8621 228.359 47.0288 229.849 46.4508C231.361 45.8508 233.006 45.5508 234.785 45.5508C236.587 45.5508 238.244 45.8621 239.756 46.4841C241.29 47.0841 242.591 47.9841 243.658 49.1841L241.49 51.2841C240.601 50.3508 239.6 49.6621 238.488 49.2174C237.376 48.7508 236.186 48.5174 234.919 48.5174C233.607 48.5174 232.384 48.7398 231.25 49.1841C230.138 49.6288 229.17 50.2508 228.348 51.0508C227.525 51.8508 226.88 52.8064 226.413 53.9174C225.968 55.0064 225.746 56.1955 225.746 57.4841C225.746 58.7731 225.968 59.9731 226.413 61.0841C226.88 62.1731 227.525 63.1174 228.348 63.9174C229.17 64.7174 230.138 65.3398 231.25 65.7841C232.384 66.2288 233.607 66.4508 234.919 66.4508C236.186 66.4508 237.376 66.2288 238.488 65.7841C239.6 65.3175 240.601 64.6064 241.49 63.6508L243.658 65.7508C242.591 66.9508 241.29 67.8621 239.756 68.4841C238.244 69.1064 236.575 69.4175 234.752 69.4175Z" fill="white"/>
<path d="M250.256 69.1497V45.8164H253.558V63.8164L267.368 45.8164H270.437V69.1497H267.168V51.1831L253.325 69.1497H250.256Z" fill="white"/>
<path d="M279.718 69.1505V45.8172H283.02V63.8172L296.83 45.8172H299.899V69.1505H296.63V51.1839L282.787 69.1505H279.718ZM289.758 44.1839C287.935 44.1839 286.523 43.7839 285.522 42.9839C284.543 42.1839 284.043 41.0619 284.021 39.6172H286.389C286.411 40.4839 286.723 41.1619 287.323 41.6505C287.924 42.1172 288.735 42.3505 289.758 42.3505C290.759 42.3505 291.559 42.1172 292.16 41.6505C292.783 41.1619 293.105 40.4839 293.127 39.6172H295.462C295.44 41.0619 294.928 42.1839 293.928 42.9839C292.949 43.7839 291.559 44.1839 289.758 44.1839Z" fill="white"/>
<path d="M319.62 69.4175C317.841 69.4175 316.196 69.1288 314.683 68.5508C313.193 67.9508 311.893 67.1175 310.781 66.0508C309.691 64.9621 308.835 63.6954 308.212 62.2508C307.59 60.8064 307.278 59.2175 307.278 57.4841C307.278 55.7508 307.59 54.1621 308.212 52.7174C308.835 51.2731 309.702 50.0174 310.814 48.9508C311.926 47.8621 313.227 47.0288 314.717 46.4508C316.229 45.8508 317.874 45.5508 319.654 45.5508C321.455 45.5508 323.111 45.8621 324.624 46.4841C326.158 47.0841 327.459 47.9841 328.526 49.1841L326.358 51.2841C325.469 50.3508 324.468 49.6621 323.356 49.2174C322.244 48.7508 321.055 48.5174 319.787 48.5174C318.475 48.5174 317.252 48.7398 316.118 49.1841C315.006 49.6288 314.038 50.2508 313.216 51.0508C312.393 51.8508 311.748 52.8064 311.281 53.9174C310.836 55.0064 310.614 56.1955 310.614 57.4841C310.614 58.7731 310.836 59.9731 311.281 61.0841C311.748 62.1731 312.393 63.1174 313.216 63.9174C314.038 64.7174 315.006 65.3398 316.118 65.7841C317.252 66.2288 318.475 66.4508 319.787 66.4508C321.055 66.4508 322.244 66.2288 323.356 65.7841C324.468 65.3175 325.469 64.6064 326.358 63.6508L328.526 65.7508C327.459 66.9508 326.158 67.8621 324.624 68.4841C323.111 69.1064 321.444 69.4175 319.62 69.4175Z" fill="white"/>
<path d="M350.835 69.1497L342.362 57.6497L345.064 55.9831L354.638 69.1497H350.835ZM335.124 69.1497V45.8164H338.393V69.1497H335.124ZM337.392 58.8831V55.9497H344.964V58.8831H337.392ZM345.365 57.8497L342.296 57.3831L350.668 45.8164H354.237L345.365 57.8497Z" fill="white"/>
<path d="M356.496 69.1497L367.07 45.8164H370.372L380.98 69.1497H377.477L368.037 47.6831H369.372L359.932 69.1497H356.496ZM360.999 63.3164L361.9 60.6497H375.042L376.01 63.3164H360.999Z" fill="white"/>
<path d="M399.746 69.1497V61.5497L400.614 62.3497H393.309C391.421 62.3497 389.786 62.0277 388.405 61.3831C387.051 60.7387 386.003 59.8164 385.27 58.6164C384.559 57.3944 384.202 55.9277 384.202 54.2164C384.202 52.4387 384.592 50.9277 385.37 49.6831C386.15 48.4164 387.251 47.4611 388.672 46.8164C390.096 46.1497 391.754 45.8164 393.642 45.8164H403.015V69.1497H399.746ZM384.202 69.1497L389.973 60.8831H393.375L387.738 69.1497H384.202ZM399.746 60.4831V47.7497L400.614 48.7164H393.776C391.774 48.7164 390.24 49.1831 389.172 50.1164C388.105 51.0277 387.571 52.3831 387.571 54.1831C387.571 55.8944 388.072 57.2164 389.072 58.1497C390.096 59.0831 391.597 59.5497 393.575 59.5497H400.614L399.746 60.4831Z" fill="white"/>
<path d="M146.202 98.6508V95.9174H158.711V98.6508H146.202ZM149.204 85.5508C150.894 85.5508 152.451 85.8508 153.874 86.4508C155.297 87.0288 156.531 87.8621 157.577 88.9508C158.644 90.0174 159.467 91.2731 160.045 92.7174C160.645 94.1621 160.946 95.7508 160.946 97.4841C160.946 99.2174 160.645 100.806 160.045 102.251C159.467 103.695 158.644 104.962 157.577 106.051C156.531 107.117 155.297 107.951 153.874 108.551C152.451 109.129 150.894 109.417 149.204 109.417C147.336 109.417 145.613 109.106 144.034 108.484C142.477 107.862 141.165 106.951 140.098 105.751L142.199 103.651C143.133 104.606 144.167 105.306 145.301 105.751C146.458 106.195 147.703 106.417 149.037 106.417C150.26 106.417 151.395 106.195 152.44 105.751C153.485 105.306 154.385 104.695 155.141 103.917C155.92 103.117 156.52 102.173 156.943 101.084C157.365 99.9731 157.577 98.7731 157.577 97.4841C157.577 96.1954 157.365 95.0064 156.943 93.9174C156.52 92.8064 155.92 91.8621 155.141 91.0841C154.385 90.2841 153.485 89.6621 152.44 89.2174C151.395 88.7731 150.26 88.5508 149.037 88.5508C147.703 88.5508 146.458 88.7731 145.301 89.2174C144.167 89.6621 143.133 90.3621 142.199 91.3174L140.098 89.2174C141.165 88.0174 142.477 87.1064 144.034 86.4841C145.613 85.8621 147.336 85.5508 149.204 85.5508Z" fill="white"/>
<path d="M185.097 85.8164H188.432V109.15H185.097V85.8164ZM171.687 109.15H168.352V85.8164H171.687V109.15ZM185.397 98.7497H171.354V95.8497H185.397V98.7497Z" fill="white"/>
<path d="M197.716 109.15V85.8164H201.018V106.25H214.027V85.8164H217.33V109.15H197.716ZM217.83 114.45V108.283L218.63 109.15H214.027V106.25H220.932V114.45H217.83Z" fill="white"/>
<path d="M227.374 109.15V85.8164H230.676V103.816L244.486 85.8164H247.555V109.15H244.286V91.1831L230.443 109.15H227.374Z" fill="white"/>
<path d="M272.547 109.15L264.074 97.6497L266.776 95.9831L276.35 109.15H272.547ZM256.836 109.15V85.8164H260.105V109.15H256.836ZM259.104 98.8831V95.9497H266.676V98.8831H259.104ZM267.076 97.8497L264.008 97.3831L272.38 85.8164H275.949L267.076 97.8497Z" fill="white"/>
<path d="M284.493 109.416C284.159 109.416 283.826 109.394 283.492 109.35C283.159 109.305 282.792 109.239 282.392 109.15L282.625 106.183C282.981 106.272 283.337 106.316 283.693 106.316C284.671 106.316 285.449 105.928 286.027 105.15C286.606 104.372 287.028 103.194 287.295 101.616C287.584 100.039 287.773 98.0497 287.862 95.6497L288.229 85.8164H304.674V109.15H301.405V87.8497L302.205 88.7164H290.364L291.098 87.8164L290.831 95.5497C290.764 97.8611 290.608 99.8831 290.364 101.616C290.119 103.35 289.752 104.794 289.263 105.95C288.774 107.105 288.14 107.972 287.362 108.55C286.606 109.128 285.649 109.416 284.493 109.416Z" fill="white"/>
<path d="M324.456 109.417C322.677 109.417 321.02 109.117 319.486 108.517C317.974 107.917 316.662 107.084 315.549 106.017C314.438 104.929 313.57 103.662 312.948 102.217C312.325 100.773 312.014 99.1954 312.014 97.4841C312.014 95.7731 312.325 94.1954 312.948 92.7508C313.57 91.3064 314.438 90.0508 315.549 88.9841C316.662 87.8954 317.974 87.0508 319.486 86.4508C320.998 85.8508 322.654 85.5508 324.456 85.5508C326.235 85.5508 327.869 85.8508 329.359 86.4508C330.872 87.0288 332.183 87.8621 333.295 88.9508C334.43 90.0174 335.298 91.2731 335.898 92.7174C336.518 94.1621 336.832 95.7508 336.832 97.4841C336.832 99.2174 336.518 100.806 335.898 102.251C335.298 103.695 334.43 104.962 333.295 106.051C332.183 107.117 330.872 107.951 329.359 108.551C327.869 109.129 326.235 109.417 324.456 109.417ZM324.456 106.451C325.746 106.451 326.935 106.229 328.025 105.784C329.137 105.34 330.093 104.717 330.894 103.917C331.716 103.095 332.35 102.14 332.795 101.051C333.262 99.9621 333.495 98.7731 333.495 97.4841C333.495 96.1954 333.262 95.0064 332.795 93.9174C332.35 92.8288 331.716 91.8841 330.894 91.0841C330.093 90.2621 329.137 89.6288 328.025 89.1841C326.935 88.7398 325.746 88.5174 324.456 88.5174C323.144 88.5174 321.932 88.7398 320.82 89.1841C319.73 89.6288 318.774 90.2621 317.951 91.0841C317.129 91.8841 316.483 92.8288 316.016 93.9174C315.572 95.0064 315.349 96.1954 315.349 97.4841C315.349 98.7731 315.572 99.9621 316.016 101.051C316.483 102.14 317.129 103.095 317.951 103.917C318.774 104.717 319.73 105.34 320.82 105.784C321.932 106.229 323.144 106.451 324.456 106.451Z" fill="white"/>
<path d="M344.224 109.15V85.8164H364.338V109.15H361.069V87.8497L361.869 88.7164H346.692L347.526 87.8497V109.15H344.224Z" fill="white"/>
<path d="M376.657 95.8831H388.665V98.7164H376.657V95.8831ZM376.957 106.25H390.566V109.15H373.621V85.8164H390.099V88.7164H376.957V106.25Z" fill="white"/>
<path d="M413.319 107.583V88.7164H403.078L402.911 93.6164C402.845 95.2611 402.731 96.8387 402.578 98.3497C402.444 99.8611 402.244 101.228 401.977 102.45C401.71 103.65 401.33 104.639 400.843 105.416C400.376 106.194 399.776 106.672 399.042 106.85L395.439 106.25C396.307 106.316 397.017 106.028 397.574 105.383C398.151 104.716 398.595 103.794 398.908 102.616C399.242 101.416 399.486 100.028 399.642 98.4497C399.796 96.8497 399.909 95.1387 399.976 93.3164L400.209 85.8164H416.621V107.583H413.319ZM394.605 114.25L394.639 106.25H420.057V114.25H416.954V109.15H397.741L397.708 114.25H394.605Z" fill="white"/>
<path d="M426.618 109.15V85.8164H429.92V103.816L443.73 85.8164H446.799V109.15H443.53V91.1831L429.687 109.15H426.618Z" fill="white"/>
<path d="M469.922 109.15V101.55L470.789 102.35H463.484C461.593 102.35 459.958 102.028 458.581 101.383C457.223 100.739 456.179 99.8164 455.445 98.6164C454.735 97.3944 454.378 95.9277 454.378 94.2164C454.378 92.4387 454.768 90.9277 455.545 89.6831C456.323 88.4164 457.423 87.4611 458.848 86.8164C460.272 86.1497 461.927 85.8164 463.818 85.8164H473.191V109.15H469.922ZM454.378 109.15L460.149 100.883H463.551L457.914 109.15H454.378ZM469.922 100.483V87.7497L470.789 88.7164H463.951C461.95 88.7164 460.415 89.1831 459.348 90.1164C458.281 91.0277 457.747 92.3831 457.747 94.1831C457.747 95.8944 458.247 97.2164 459.248 98.1497C460.272 99.0831 461.773 99.5497 463.751 99.5497H470.789L469.922 100.483Z" fill="white"/>
<path d="M214.027 106.251H201.018V85.8173H197.716V109.151H217.33V85.8173H214.027V106.251ZM214.027 106.251V109.151H218.631L217.83 108.284V114.451H220.932V106.251H214.027ZM142.766 29.1508V5.81745H160.379V8.65078H146.068V15.3174H153.34C156.12 15.3174 158.233 15.8952 159.678 17.0508C161.123 18.2063 161.846 19.8841 161.846 22.0841C161.846 24.3508 161.057 26.0952 159.478 27.3174C157.921 28.5397 155.686 29.1508 152.773 29.1508H142.766ZM146.068 26.5174H152.64C154.574 26.5174 156.031 26.1508 157.009 25.4174C158.01 24.6841 158.511 23.5952 158.511 22.1508C158.511 19.3508 156.553 17.9508 152.64 17.9508H146.068V26.5174ZM179.674 29.4174C177.894 29.4174 176.238 29.1174 174.704 28.5174C173.191 27.9174 171.879 27.0841 170.767 26.0174C169.655 24.9285 168.788 23.6619 168.166 22.2174C167.543 20.773 167.232 19.1952 167.232 17.4841C167.232 15.773 167.543 14.1952 168.166 12.7508C168.788 11.3063 169.655 10.0508 170.767 8.98411C171.879 7.89521 173.191 7.05078 174.704 6.45078C176.216 5.85078 177.872 5.55078 179.674 5.55078C181.453 5.55078 183.087 5.85078 184.577 6.45078C186.089 7.02855 187.401 7.86188 188.513 8.95078C189.647 10.0174 190.515 11.273 191.115 12.7174C191.737 14.1619 192.049 15.7508 192.049 17.4841C192.049 19.2174 191.737 20.8063 191.115 22.2508C190.515 23.6952 189.647 24.9619 188.513 26.0508C187.401 27.1174 186.089 27.9508 184.577 28.5508C183.087 29.1285 181.453 29.4174 179.674 29.4174ZM179.674 26.4508C180.963 26.4508 182.153 26.2285 183.243 25.7841C184.355 25.3397 185.311 24.7174 186.111 23.9174C186.934 23.0952 187.568 22.1397 188.013 21.0508C188.48 19.9619 188.713 18.773 188.713 17.4841C188.713 16.1952 188.48 15.0063 188.013 13.9174C187.568 12.8285 186.934 11.8841 186.111 11.0841C185.311 10.2619 184.355 9.62855 183.243 9.18411C182.153 8.73968 180.963 8.51745 179.674 8.51745C178.361 8.51745 177.15 8.73968 176.038 9.18411C174.948 9.62855 173.992 10.2619 173.169 11.0841C172.346 11.8841 171.701 12.8285 171.234 13.9174C170.789 15.0063 170.567 16.1952 170.567 17.4841C170.567 18.773 170.789 19.9619 171.234 21.0508C171.701 22.1397 172.346 23.0952 173.169 23.9174C173.992 24.7174 174.948 25.3397 176.038 25.7841C177.15 26.2285 178.361 26.4508 179.674 26.4508ZM197.69 29.4174C197.357 29.4174 197.023 29.3952 196.69 29.3508C196.356 29.3063 195.989 29.2397 195.589 29.1508L195.822 26.1841C196.178 26.273 196.534 26.3174 196.89 26.3174C197.868 26.3174 198.647 25.9285 199.225 25.1508C199.803 24.373 200.225 23.1952 200.492 21.6174C200.781 20.0397 200.97 18.0508 201.059 15.6508L201.426 5.81745H217.871V29.1508H214.602V7.85078L215.403 8.71745H203.561L204.295 7.81745L204.028 15.5508C203.961 17.8619 203.806 19.8841 203.561 21.6174C203.316 23.3508 202.95 24.7952 202.46 25.9508C201.971 27.1063 201.337 27.973 200.559 28.5508C199.803 29.1285 198.847 29.4174 197.69 29.4174ZM237.386 13.9508C240.144 13.9508 242.267 14.573 243.757 15.8174C245.247 17.0397 245.992 18.873 245.992 21.3174C245.992 23.8952 245.18 25.8508 243.557 27.1841C241.956 28.4952 239.699 29.1508 236.786 29.1508H227.145V5.81745H230.448V13.9508H237.386ZM236.652 26.5174C238.587 26.5174 240.066 26.0841 241.089 25.2174C242.134 24.3508 242.656 23.073 242.656 21.3841C242.656 19.7397 242.145 18.5285 241.122 17.7508C240.099 16.973 238.609 16.5841 236.652 16.5841H230.448V26.5174H236.652ZM266.703 26.2508L265.936 27.1174V5.81745H269.205V27.1174L268.371 26.2508H279.745L278.911 27.1174V5.81745H282.18V29.1508H252.926V5.81745H256.229V27.1174L255.395 26.2508H266.703ZM288.209 29.1508L298.783 5.81745H302.085L312.693 29.1508H309.19L299.75 7.68411H301.084L291.645 29.1508H288.209ZM292.712 23.3174L293.613 20.6508H306.755L307.722 23.3174H292.712ZM331.459 29.1508V21.5508L332.327 22.3508H325.022C323.131 22.3508 321.497 22.0285 320.118 21.3841C318.762 20.7397 317.716 19.8174 316.983 18.6174C316.271 17.3952 315.915 15.9285 315.915 14.2174C315.915 12.4397 316.304 10.9285 317.083 9.68411C317.861 8.41745 318.962 7.46188 320.385 6.81745C321.808 6.15078 323.465 5.81745 325.355 5.81745H334.727V29.1508H331.459ZM315.915 29.1508L321.686 20.8841H325.088L319.451 29.1508H315.915ZM331.459 20.4841V7.75078L332.327 8.71745H325.489C323.487 8.71745 321.953 9.18411 320.885 10.1174C319.818 11.0285 319.284 12.3841 319.284 14.1841C319.284 15.8952 319.785 17.2174 320.785 18.1508C321.808 19.0841 323.309 19.5508 325.288 19.5508H332.327L331.459 20.4841ZM142.766 69.1506V45.8173H151.873C153.918 45.8173 155.664 46.1396 157.11 46.784C158.555 47.4286 159.667 48.362 160.445 49.584C161.223 50.8063 161.613 52.262 161.613 53.9506C161.613 55.6396 161.223 57.0953 160.445 58.3173C159.667 59.5173 158.555 60.4506 157.11 61.1173C155.664 61.762 153.918 62.084 151.873 62.084H144.601L146.102 60.5173V69.1506H142.766ZM146.102 60.8506L144.601 59.184H151.772C153.907 59.184 155.519 58.7286 156.609 57.8173C157.721 56.9063 158.277 55.6173 158.277 53.9506C158.277 52.284 157.721 50.9953 156.609 50.084C155.519 49.173 153.907 48.7173 151.772 48.7173H144.601L146.102 47.0506V60.8506ZM179.087 69.4173C177.308 69.4173 175.652 69.1173 174.117 68.5173C172.605 67.9173 171.293 67.084 170.181 66.0173C169.069 64.9287 168.202 63.662 167.579 62.2173C166.956 60.773 166.645 59.1953 166.645 57.484C166.645 55.773 166.956 54.1953 167.579 52.7506C168.202 51.3063 169.069 50.0506 170.181 48.984C171.293 47.8953 172.605 47.0506 174.117 46.4506C175.629 45.8506 177.286 45.5506 179.087 45.5506C180.866 45.5506 182.501 45.8506 183.991 46.4506C185.503 47.0286 186.815 47.862 187.927 48.9506C189.061 50.0173 189.928 51.273 190.529 52.7173C191.151 54.162 191.463 55.7506 191.463 57.484C191.463 59.2173 191.151 60.8063 190.529 62.2506C189.928 63.6953 189.061 64.962 187.927 66.0506C186.815 67.1173 185.503 67.9506 183.991 68.5506C182.501 69.1286 180.866 69.4173 179.087 69.4173ZM179.087 66.4506C180.377 66.4506 181.567 66.2287 182.656 65.784C183.768 65.3397 184.725 64.7173 185.525 63.9173C186.348 63.0953 186.981 62.1396 187.426 61.0506C187.893 59.962 188.127 58.773 188.127 57.484C188.127 56.1953 187.893 55.0063 187.426 53.9173C186.981 52.8286 186.348 51.884 185.525 51.084C184.725 50.262 183.768 49.6286 182.656 49.184C181.567 48.7396 180.377 48.5173 179.087 48.5173C177.775 48.5173 176.563 48.7396 175.451 49.184C174.362 49.6286 173.405 50.262 172.583 51.084C171.76 51.884 171.115 52.8286 170.648 53.9173C170.203 55.0063 169.981 56.1953 169.981 57.484C169.981 58.773 170.203 59.962 170.648 61.0506C171.115 62.1396 171.76 63.0953 172.583 63.9173C173.405 64.7173 174.362 65.3397 175.451 65.784C176.563 66.2287 177.775 66.4506 179.087 66.4506ZM209.297 69.4173C207.518 69.4173 205.872 69.1286 204.36 68.5506C202.87 67.9506 201.569 67.1173 200.457 66.0506C199.368 64.962 198.511 63.6953 197.889 62.2506C197.266 60.8063 196.955 59.2173 196.955 57.484C196.955 55.7506 197.266 54.162 197.889 52.7173C198.511 51.273 199.379 50.0173 200.491 48.9506C201.603 47.862 202.904 47.0286 204.393 46.4506C205.906 45.8506 207.551 45.5506 209.33 45.5506C211.131 45.5506 212.788 45.862 214.3 46.484C215.835 47.084 217.135 47.984 218.203 49.184L216.035 51.284C215.145 50.3506 214.145 49.662 213.033 49.2173C211.921 48.7506 210.731 48.5173 209.463 48.5173C208.152 48.5173 206.928 48.7396 205.794 49.184C204.682 49.6286 203.715 50.2506 202.892 51.0506C202.07 51.8506 201.425 52.8063 200.958 53.9173C200.513 55.0063 200.29 56.1953 200.29 57.484C200.29 58.773 200.513 59.973 200.958 61.084C201.425 62.173 202.07 63.1173 202.892 63.9173C203.715 64.7173 204.682 65.3397 205.794 65.784C206.928 66.2287 208.152 66.4506 209.463 66.4506C210.731 66.4506 211.921 66.2287 213.033 65.784C214.145 65.3173 215.145 64.6063 216.035 63.6506L218.203 65.7506C217.135 66.9506 215.835 67.862 214.3 68.484C212.788 69.1063 211.12 69.4173 209.297 69.4173ZM234.752 69.4173C232.973 69.4173 231.327 69.1286 229.815 68.5506C228.325 67.9506 227.024 67.1173 225.913 66.0506C224.823 64.962 223.967 63.6953 223.344 62.2506C222.721 60.8063 222.41 59.2173 222.41 57.484C222.41 55.7506 222.721 54.162 223.344 52.7173C223.967 51.273 224.834 50.0173 225.946 48.9506C227.058 47.862 228.359 47.0286 229.849 46.4506C231.361 45.8506 233.006 45.5506 234.785 45.5506C236.587 45.5506 238.244 45.862 239.756 46.484C241.29 47.084 242.591 47.984 243.658 49.184L241.49 51.284C240.601 50.3506 239.6 49.662 238.488 49.2173C237.376 48.7506 236.186 48.5173 234.919 48.5173C233.607 48.5173 232.384 48.7396 231.25 49.184C230.138 49.6286 229.17 50.2506 228.348 51.0506C227.525 51.8506 226.88 52.8063 226.413 53.9173C225.968 55.0063 225.746 56.1953 225.746 57.484C225.746 58.773 225.968 59.973 226.413 61.084C226.88 62.173 227.525 63.1173 228.348 63.9173C229.17 64.7173 230.138 65.3397 231.25 65.784C232.384 66.2287 233.607 66.4506 234.919 66.4506C236.186 66.4506 237.376 66.2287 238.488 65.784C239.6 65.3173 240.601 64.6063 241.49 63.6506L243.658 65.7506C242.591 66.9506 241.29 67.862 239.756 68.484C238.244 69.1063 236.575 69.4173 234.752 69.4173ZM250.255 69.1506V45.8173H253.558V63.8173L267.367 45.8173H270.436V69.1506H267.167V51.184L253.324 69.1506H250.255ZM279.717 69.1506V45.8173H283.02V63.8173L296.829 45.8173H299.898V69.1506H296.629V51.184L282.786 69.1506H279.717ZM289.758 44.184C287.934 44.184 286.522 43.784 285.521 42.984C284.543 42.184 284.043 41.062 284.02 39.6173H286.389C286.411 40.484 286.722 41.162 287.323 41.6506C287.923 42.1173 288.735 42.3506 289.758 42.3506C290.758 42.3506 291.559 42.1173 292.159 41.6506C292.782 41.162 293.105 40.484 293.127 39.6173H295.462C295.44 41.062 294.928 42.184 293.927 42.984C292.949 43.784 291.559 44.184 289.758 44.184ZM319.62 69.4173C317.841 69.4173 316.195 69.1286 314.683 68.5506C313.193 67.9506 311.892 67.1173 310.781 66.0506C309.691 64.962 308.835 63.6953 308.212 62.2506C307.589 60.8063 307.278 59.2173 307.278 57.484C307.278 55.7506 307.589 54.162 308.212 52.7173C308.835 51.273 309.702 50.0173 310.814 48.9506C311.926 47.862 313.227 47.0286 314.717 46.4506C316.229 45.8506 317.874 45.5506 319.653 45.5506C321.455 45.5506 323.111 45.862 324.624 46.484C326.158 47.084 327.459 47.984 328.526 49.184L326.358 51.284C325.469 50.3506 324.468 49.662 323.356 49.2173C322.244 48.7506 321.054 48.5173 319.787 48.5173C318.475 48.5173 317.252 48.7396 316.118 49.184C315.006 49.6286 314.038 50.2506 313.216 51.0506C312.393 51.8506 311.748 52.8063 311.281 53.9173C310.836 55.0063 310.614 56.1953 310.614 57.484C310.614 58.773 310.836 59.973 311.281 61.084C311.748 62.173 312.393 63.1173 313.216 63.9173C314.038 64.7173 315.006 65.3397 316.118 65.784C317.252 66.2287 318.475 66.4506 319.787 66.4506C321.054 66.4506 322.244 66.2287 323.356 65.784C324.468 65.3173 325.469 64.6063 326.358 63.6506L328.526 65.7506C327.459 66.9506 326.158 67.862 324.624 68.484C323.111 69.1063 321.443 69.4173 319.62 69.4173ZM350.835 69.1506L342.362 57.6506L345.064 55.984L354.638 69.1506H350.835ZM335.124 69.1506V45.8173H338.393V69.1506H335.124ZM337.392 58.884V55.9506H344.964V58.884H337.392ZM345.364 57.8506L342.296 57.384L350.668 45.8173H354.237L345.364 57.8506ZM356.496 69.1506L367.07 45.8173H370.372L380.979 69.1506H377.477L368.037 47.684H369.371L359.931 69.1506H356.496ZM360.999 63.3173L361.899 60.6506H375.042L376.009 63.3173H360.999ZM399.746 69.1506V61.5507L400.613 62.3506H393.308C391.42 62.3506 389.785 62.0287 388.405 61.384C387.05 60.7397 386.003 59.8173 385.269 58.6173C384.558 57.3953 384.202 55.9286 384.202 54.2173C384.202 52.4396 384.592 50.9286 385.369 49.684C386.15 48.4173 387.25 47.462 388.671 46.8173C390.096 46.1506 391.754 45.8173 393.642 45.8173H403.015V69.1506H399.746ZM384.202 69.1506L389.972 60.884H393.375L387.737 69.1506H384.202ZM399.746 60.484V47.7506L400.613 48.7173H393.775C391.774 48.7173 390.239 49.184 389.172 50.1173C388.104 51.0286 387.571 52.384 387.571 54.184C387.571 55.8953 388.071 57.2173 389.072 58.1506C390.096 59.084 391.597 59.5506 393.575 59.5506H400.613L399.746 60.484ZM146.202 98.6506V95.9173H158.711V98.6506H146.202ZM149.204 85.5507C150.894 85.5507 152.451 85.8506 153.874 86.4506C155.297 87.0286 156.531 87.862 157.577 88.9506C158.644 90.0173 159.467 91.273 160.045 92.7173C160.645 94.162 160.946 95.7506 160.946 97.484C160.946 99.2173 160.645 100.806 160.045 102.251C159.467 103.695 158.644 104.962 157.577 106.051C156.531 107.117 155.297 107.951 153.874 108.551C152.451 109.129 150.894 109.417 149.204 109.417C147.336 109.417 145.613 109.106 144.034 108.484C142.477 107.862 141.165 106.951 140.098 105.751L142.199 103.651C143.133 104.606 144.167 105.306 145.301 105.751C146.458 106.195 147.703 106.417 149.037 106.417C150.26 106.417 151.395 106.195 152.44 105.751C153.485 105.306 154.385 104.695 155.141 103.917C155.92 103.117 156.52 102.173 156.943 101.084C157.365 99.973 157.577 98.773 157.577 97.484C157.577 96.1953 157.365 95.0063 156.943 93.9173C156.52 92.8063 155.92 91.862 155.141 91.084C154.385 90.284 153.485 89.662 152.44 89.2173C151.395 88.773 150.26 88.5506 149.037 88.5506C147.703 88.5506 146.458 88.773 145.301 89.2173C144.167 89.662 143.133 90.362 142.199 91.3173L140.098 89.2173C141.165 88.0173 142.477 87.1063 144.034 86.484C145.613 85.862 147.336 85.5507 149.204 85.5507ZM185.097 85.8173H188.432V109.151H185.097V85.8173ZM171.687 109.151H168.352V85.8173H171.687V109.151ZM185.397 98.7506H171.354V95.8506H185.397V98.7506ZM227.374 109.151V85.8173H230.676V103.817L244.486 85.8173H247.554V109.151H244.285V91.184L230.442 109.151H227.374ZM272.547 109.151L264.074 97.6506L266.776 95.984L276.349 109.151H272.547ZM256.836 109.151V85.8173H260.105V109.151H256.836ZM259.104 98.884V95.9506H266.676V98.884H259.104ZM267.076 97.8506L264.007 97.384L272.38 85.8173H275.949L267.076 97.8506ZM284.493 109.417C284.16 109.417 283.826 109.395 283.493 109.351C283.159 109.306 282.792 109.24 282.392 109.151L282.625 106.184C282.981 106.273 283.337 106.317 283.693 106.317C284.671 106.317 285.449 105.929 286.028 105.151C286.606 104.373 287.028 103.195 287.295 101.617C287.584 100.04 287.773 98.0506 287.862 95.6506L288.229 85.8173H304.674V109.151H301.405V87.8506L302.206 88.7173H290.364L291.098 87.8173L290.831 95.5507C290.764 97.862 290.609 99.884 290.364 101.617C290.119 103.351 289.752 104.795 289.263 105.951C288.774 107.106 288.14 107.973 287.362 108.551C286.606 109.129 285.649 109.417 284.493 109.417ZM324.455 109.417C322.677 109.417 321.02 109.117 319.485 108.517C317.973 107.917 316.661 107.084 315.549 106.017C314.437 104.929 313.57 103.662 312.947 102.217C312.325 100.773 312.013 99.1953 312.013 97.484C312.013 95.773 312.325 94.1953 312.947 92.7507C313.57 91.3063 314.437 90.0506 315.549 88.984C316.661 87.8953 317.973 87.0506 319.485 86.4506C320.998 85.8506 322.654 85.5507 324.455 85.5507C326.235 85.5507 327.869 85.8506 329.359 86.4506C330.871 87.0286 332.183 87.862 333.295 88.9506C334.43 90.0173 335.297 91.273 335.898 92.7173C336.518 94.162 336.832 95.7506 336.832 97.484C336.832 99.2173 336.518 100.806 335.898 102.251C335.297 103.695 334.43 104.962 333.295 106.051C332.183 107.117 330.871 107.951 329.359 108.551C327.869 109.129 326.235 109.417 324.455 109.417ZM324.455 106.451C325.745 106.451 326.935 106.229 328.025 105.784C329.137 105.34 330.093 104.717 330.893 103.917C331.716 103.095 332.35 102.14 332.795 101.051C333.262 99.962 333.495 98.773 333.495 97.484C333.495 96.1953 333.262 95.0063 332.795 93.9173C332.35 92.8286 331.716 91.884 330.893 91.084C330.093 90.262 329.137 89.6286 328.025 89.184C326.935 88.7396 325.745 88.5173 324.455 88.5173C323.144 88.5173 321.932 88.7396 320.82 89.184C319.73 89.6286 318.774 90.262 317.951 91.084C317.128 91.884 316.483 92.8286 316.016 93.9173C315.572 95.0063 315.349 96.1953 315.349 97.484C315.349 98.773 315.572 99.962 316.016 101.051C316.483 102.14 317.128 103.095 317.951 103.917C318.774 104.717 319.73 105.34 320.82 105.784C321.932 106.229 323.144 106.451 324.455 106.451ZM344.224 109.151V85.8173H364.338V109.151H361.069V87.8506L361.869 88.7173H346.692L347.526 87.8506V109.151H344.224ZM376.656 95.884H388.665V98.7173H376.656V95.884ZM376.957 106.251H390.566V109.151H373.621V85.8173H390.099V88.7173H376.957V106.251ZM413.319 107.584V88.7173H403.078L402.911 93.6173C402.845 95.262 402.731 96.8396 402.578 98.3506C402.444 99.862 402.244 101.229 401.977 102.451C401.71 103.651 401.33 104.64 400.843 105.417C400.376 106.195 399.776 106.673 399.042 106.851L395.439 106.251C396.307 106.317 397.017 106.029 397.574 105.384C398.151 104.717 398.595 103.795 398.909 102.617C399.242 101.417 399.486 100.029 399.642 98.4506C399.796 96.8506 399.909 95.1396 399.976 93.3173L400.209 85.8173H416.621V107.584H413.319ZM394.606 114.251L394.639 106.251H420.057V114.251H416.954V109.151H397.741L397.708 114.251H394.606ZM426.618 109.151V85.8173H429.92V103.817L443.73 85.8173H446.799V109.151H443.53V91.184L429.687 109.151H426.618ZM469.921 109.151V101.551L470.789 102.351H463.484C461.592 102.351 459.958 102.029 458.58 101.384C457.223 100.74 456.179 99.8173 455.445 98.6173C454.734 97.3953 454.377 95.9286 454.377 94.2173C454.377 92.4396 454.768 90.9286 455.545 89.684C456.322 88.4173 457.423 87.462 458.847 86.8173C460.271 86.1506 461.926 85.8173 463.817 85.8173H473.19V109.151H469.921ZM454.377 109.151L460.148 100.884H463.55L457.913 109.151H454.377ZM469.921 100.484V87.7507L470.789 88.7173H463.951C461.949 88.7173 460.415 89.184 459.347 90.1173C458.28 91.0286 457.746 92.384 457.746 94.184C457.746 95.8953 458.247 97.2173 459.247 98.1506C460.271 99.084 461.772 99.5506 463.75 99.5506H470.789L469.921 100.484Z" stroke="white" stroke-width="0.7"/>
</g>
<defs>
<clipPath id="clip0_7176_126949">
<rect width="477" height="120" fill="white"/>
</clipPath>
</defs>
</svg>
