<svg width="283" height="85" viewBox="0 0 283 85" fill="none" xmlns="http://www.w3.org/2000/svg">
<rect width="283" height="85" rx="10" fill="black"/>
<path d="M96.179 52.6621H103.539L100.904 45.5429C100.541 44.5594 100.185 43.4732 99.8332 42.2835C99.516 43.336 99.1702 44.4107 98.7963 45.5086L96.179 52.6621ZM104.796 56.0417H94.9383L92.5254 62.6979H88.1914L97.8447 37.8405H101.941L111.815 62.6979H107.261L104.796 56.0417Z" fill="white"/>
<path d="M124.6 58.1776C125.456 57.017 125.883 55.3212 125.883 53.0911C125.883 51.0214 125.529 49.5199 124.821 48.5876C124.113 47.6557 123.17 47.1898 121.991 47.1898C121.176 47.1898 120.422 47.3846 119.731 47.773C119.04 48.1619 118.383 48.6821 117.759 49.334V59.2498C118.179 59.4554 118.666 59.6186 119.221 59.7381C119.777 59.859 120.326 59.919 120.87 59.919C122.502 59.919 123.745 59.3381 124.6 58.1776ZM113.562 48.7166C113.562 47.3443 113.516 45.8344 113.426 44.1878H117.369C117.516 44.9541 117.618 45.7377 117.675 46.5379C119.306 44.7427 121.176 43.8444 123.283 43.8444C124.507 43.8444 125.64 44.1561 126.682 44.7792C127.724 45.4028 128.566 46.3862 129.206 47.7298C129.846 49.0739 130.166 50.7812 130.166 52.8509C130.166 55.0124 129.801 56.8596 129.07 58.3919C128.339 59.9247 127.317 61.085 126.003 61.8746C124.688 62.6633 123.17 63.0582 121.448 63.0582C120.201 63.0582 118.971 62.8464 117.759 62.4236V70.0742L113.562 70.4346V48.7166Z" fill="white"/>
<path d="M143.752 58.1776C144.608 57.017 145.036 55.3212 145.036 53.0911C145.036 51.0214 144.682 49.5199 143.974 48.5876C143.265 47.6557 142.322 47.1898 141.144 47.1898C140.328 47.1898 139.574 47.3846 138.883 47.773C138.192 48.1619 137.535 48.6821 136.912 49.334V59.2498C137.331 59.4554 137.818 59.6186 138.374 59.7381C138.928 59.859 139.478 59.919 140.022 59.919C141.653 59.919 142.897 59.3381 143.752 58.1776ZM132.714 48.7166C132.714 47.3443 132.668 45.8344 132.578 44.1878H136.521C136.668 44.9541 136.77 45.7377 136.827 46.5379C138.458 44.7427 140.328 43.8444 142.435 43.8444C143.659 43.8444 144.792 44.1561 145.835 44.7792C146.877 45.4028 147.718 46.3862 148.359 47.7298C148.998 49.0739 149.319 50.7812 149.319 52.8509C149.319 55.0124 148.953 56.8596 148.222 58.3919C147.491 59.9247 146.468 61.085 145.155 61.8746C143.84 62.6633 142.322 63.0582 140.6 63.0582C139.353 63.0582 138.124 62.8464 136.912 62.4236V70.0742L132.714 70.4346V48.7166Z" fill="white"/>
<path d="M157.03 61.5227C155.217 60.5111 153.823 59.061 152.849 57.174C151.874 55.2869 151.387 53.0567 151.387 50.4835C151.387 47.6934 151.948 45.3226 153.07 43.3725C154.192 41.4231 155.719 39.959 157.65 38.9811C159.582 38.0034 161.749 37.5144 164.152 37.5144C165.567 37.5144 166.919 37.6717 168.205 37.9861C169.491 38.3008 170.689 38.7323 171.8 39.2815L170.728 42.5406C168.496 41.4657 166.366 40.9281 164.339 40.9281C162.627 40.9281 161.129 41.2971 159.843 42.0348C158.557 42.7726 157.557 43.8562 156.843 45.2857C156.129 46.7154 155.773 48.4422 155.773 50.4662C155.773 52.2395 156.047 53.8116 156.596 55.1839C157.146 56.5564 158.013 57.6432 159.197 58.4434C160.381 59.2441 161.874 59.644 163.675 59.644C164.491 59.644 165.307 59.5756 166.123 59.4384C166.938 59.3014 167.704 59.1013 168.417 58.8379V53.8116H162.724V50.5178H172.496V60.9826C171.091 61.6455 169.615 62.1551 168.069 62.5092C166.522 62.8634 164.984 63.0407 163.454 63.0407C160.984 63.0407 158.842 62.5354 157.03 61.5227Z" fill="white"/>
<path d="M184.899 59.2666C185.771 58.844 186.485 58.3174 187.04 57.6886V54.2576C185.895 54.1321 184.961 54.069 184.236 54.069C182.502 54.069 181.304 54.3517 180.642 54.9184C179.978 55.4837 179.647 56.2476 179.647 57.208C179.647 58.1238 179.888 58.8009 180.369 59.2412C180.851 59.6815 181.505 59.9014 182.332 59.9014C183.17 59.9014 184.026 59.6901 184.899 59.2666ZM187.414 62.6978C187.266 61.9771 187.17 61.1598 187.125 60.2448C186.479 61.0228 185.638 61.6829 184.601 62.2264C183.565 62.7693 182.394 63.0407 181.091 63.0407C180.038 63.0407 179.078 62.8322 178.21 62.4145C177.345 61.9975 176.656 61.3684 176.146 60.5274C175.636 59.6872 175.381 58.661 175.381 57.4482C175.381 55.653 176.021 54.2204 177.301 53.1508C178.582 52.0817 180.718 51.5471 183.709 51.5471C184.83 51.5471 185.941 51.6275 187.04 51.7873V51.4272C187.04 49.7918 186.694 48.6396 186.003 47.9701C185.312 47.3016 184.321 46.9669 183.029 46.9669C182.134 46.9669 181.177 47.0986 180.157 47.3613C179.137 47.6247 178.242 47.9391 177.471 48.305L176.808 45.2171C177.556 44.8737 178.542 44.5594 179.766 44.2734C180.99 43.9879 182.281 43.8444 183.641 43.8444C185.227 43.8444 186.575 44.0875 187.686 44.5733C188.796 45.0597 189.663 45.8949 190.286 47.078C190.909 48.2622 191.221 49.8548 191.221 51.8559V59.215C191.221 59.9818 191.266 61.1431 191.357 62.6978H187.414Z" fill="white"/>
<path d="M194.442 58.2546V36.3822L198.622 36.0391V57.4998C198.622 58.2891 198.755 58.8463 199.021 59.1725C199.288 59.4979 199.71 59.6617 200.288 59.6617C200.548 59.6617 200.917 59.5989 201.392 59.4729L201.885 62.5092C201.488 62.6695 201.004 62.7981 200.433 62.8951C199.86 62.992 199.319 63.0407 198.809 63.0407C195.897 63.0407 194.442 61.4456 194.442 58.2546Z" fill="white"/>
<path d="M204.894 58.2546V36.3822L209.074 36.0391V57.4998C209.074 58.2891 209.208 58.8463 209.474 59.1725C209.74 59.4979 210.163 59.6617 210.74 59.6617C211.001 59.6617 211.369 59.5989 211.845 59.4729L212.338 62.5092C211.941 62.6695 211.457 62.7981 210.885 62.8951C210.312 62.992 209.771 63.0407 209.261 63.0407C206.349 63.0407 204.894 61.4456 204.894 58.2546Z" fill="white"/>
<path d="M225.439 51.2899C225.355 49.8146 224.99 48.7083 224.333 47.9701C223.676 47.2329 222.795 46.8637 221.7 46.8637C220.633 46.8637 219.746 47.2358 219.039 47.9789C218.332 48.7226 217.866 49.8261 217.652 51.2899H225.439ZM229.532 53.9831H217.534C217.725 57.8604 219.555 59.7988 223.025 59.7988C223.884 59.7988 224.765 59.693 225.669 59.4815C226.567 59.2695 227.432 58.9868 228.257 58.632L229.178 61.5311C227.123 62.538 224.821 63.0407 222.261 63.0407C220.308 63.0407 218.668 62.6695 217.332 61.926C215.99 61.1827 214.986 60.1133 214.312 58.7177C213.639 57.3231 213.302 55.6418 213.302 53.6744C213.302 51.6275 213.659 49.866 214.374 48.3906C215.087 46.9153 216.08 45.789 217.355 45.0112C218.629 44.2336 220.1 43.8444 221.767 43.8444C223.502 43.8444 224.945 44.2535 226.107 45.0714C227.269 45.8886 228.128 46.9784 228.689 48.339C229.251 49.7006 229.532 51.204 229.532 52.8509V53.9831Z" fill="white"/>
<path d="M232.709 48.8367C232.709 47.8191 232.658 46.2696 232.569 44.1878H236.498C236.566 44.7024 236.628 45.3171 236.695 46.0321C236.757 46.7466 236.796 47.327 236.819 47.773C237.307 46.9611 237.784 46.2778 238.256 45.7233C238.727 45.1681 239.277 44.7168 239.906 44.3675C240.535 44.0189 241.248 43.8445 242.056 43.8445C242.702 43.8445 243.252 43.9133 243.718 44.0506L243.19 47.7217C242.786 47.596 242.331 47.5329 241.832 47.5329C240.849 47.5329 239.985 47.7874 239.249 48.2965C238.514 48.805 237.728 49.6428 236.886 50.8094V62.6979H232.709V48.8367Z" fill="white"/>
<path d="M246.076 70.2715C245.464 70.1632 244.959 70.0401 244.566 69.9031L245.329 66.8152C245.61 66.8947 245.969 66.9722 246.402 67.0465C246.828 67.1214 247.238 67.1581 247.626 67.1581C249.484 67.1581 250.876 65.9511 251.802 63.5383L252.077 62.8521L245.313 44.1878H249.815L253.217 54.6177C253.767 56.4023 254.127 57.769 254.284 58.7177C254.604 57.3798 254.974 56.0417 255.407 54.7036L258.859 44.1878H263.087L256.344 62.9382C255.71 64.7106 255.019 66.1399 254.284 67.2268C253.548 68.3129 252.678 69.1193 251.679 69.6457C250.674 70.1712 249.467 70.4346 248.047 70.4346C247.345 70.4346 246.688 70.3808 246.076 70.2715Z" fill="white"/>
<path d="M88.1729 14.1774H95.6552L95.4447 16.0015H90.3657V19.5341H95.155V21.2431H90.3657V25.1565H95.7164L95.5323 26.9982H88.1729V14.1774Z" fill="white"/>
<path d="M100.813 20.4549L96.8656 14.1774H99.3566L102.032 18.7906L104.848 14.1774H107.269L103.357 20.375L107.593 26.9982H105.067L102.041 21.9515L98.9619 26.9982H96.5411L100.813 20.4549Z" fill="white"/>
<path d="M114.708 19.9013C115.175 19.474 115.409 18.8699 115.409 18.0908C115.409 17.2997 115.171 16.7308 114.695 16.3823C114.218 16.0338 113.517 15.8598 112.594 15.8598H111.401V20.4107C111.951 20.4991 112.372 20.5433 112.664 20.5433C113.558 20.5433 114.24 20.3297 114.708 19.9013ZM109.207 14.1774H112.629C114.237 14.1774 115.468 14.5083 116.322 15.169C117.176 15.8303 117.602 16.7863 117.602 18.0375C117.602 18.8875 117.411 19.6304 117.028 20.2645C116.644 20.8992 116.111 21.3865 115.427 21.7254C114.743 22.0654 113.956 22.2348 113.067 22.2348C112.582 22.2348 112.026 22.1759 111.401 22.0574V26.9982H109.207V14.1774Z" fill="white"/>
<path d="M119.769 14.1774H121.962V25.1033H127.216L127.032 26.9982H119.769V14.1774Z" fill="white"/>
<path d="M136.234 24.7978C136.848 24.3819 137.307 23.8096 137.611 23.0803C137.915 22.3515 138.068 21.5174 138.068 20.579C138.068 19.6582 137.933 18.8382 137.664 18.1174C137.394 17.3972 136.965 16.8237 136.374 16.3953C135.784 15.9675 135.024 15.7533 134.093 15.7533C133.205 15.7533 132.45 15.9703 131.83 16.4044C131.211 16.8379 130.746 17.4198 130.436 18.1486C130.126 18.8779 129.971 19.682 129.971 20.5614C129.971 21.4879 130.117 22.3175 130.409 23.0491C130.701 23.7812 131.149 24.3598 131.752 24.7848C132.354 25.2098 133.099 25.4223 133.988 25.4223C134.871 25.4223 135.62 25.2138 136.234 24.7978ZM130.55 26.3698C129.62 25.8326 128.909 25.0783 128.418 24.1071C127.927 23.1364 127.682 22.0076 127.682 20.7207C127.682 19.3692 127.943 18.1871 128.466 17.1745C128.99 16.1624 129.744 15.3804 130.729 14.8279C131.715 14.2765 132.877 14 134.216 14C135.497 14 136.599 14.2675 137.524 14.8013C138.447 15.3362 139.152 16.087 139.637 17.0549C140.123 18.0233 140.365 19.1448 140.365 20.4198C140.365 21.7951 140.101 22.9907 139.572 24.0056C139.042 25.0205 138.288 25.8031 137.309 26.3516C136.329 26.9007 135.179 27.1752 133.857 27.1752C132.582 27.1752 131.479 26.907 130.55 26.3698Z" fill="white"/>
<path d="M146.252 20.2424C146.783 20.2424 147.254 20.1381 147.664 19.9279C148.073 19.7188 148.392 19.4236 148.62 19.0428C148.848 18.662 148.962 18.2205 148.962 17.719C148.962 17.0759 148.76 16.605 148.357 16.3069C147.953 16.0088 147.366 15.8598 146.594 15.8598H145.006V20.2424H146.252ZM142.813 14.1774H146.787C148.237 14.1774 149.335 14.4698 150.081 15.054C150.826 15.6382 151.199 16.4741 151.199 17.5598C151.199 18.2387 151.064 18.8365 150.795 19.3527C150.526 19.8695 150.193 20.29 149.795 20.6141C149.397 20.9388 148.989 21.1808 148.568 21.3406L152.471 26.9982H149.927L146.62 21.9158H145.006V26.9982H142.813V14.1774Z" fill="white"/>
<path d="M154.208 14.1774H161.69L161.48 16.0015H156.401V19.5341H161.19V21.2431H156.401V25.1565H161.751L161.567 26.9982H154.208V14.1774Z" fill="white"/>
<path d="M169.831 14.1774H172.024V26.9982H169.831V14.1774Z" fill="white"/>
<path d="M177.822 16.0281H173.883L174.076 14.1774H183.962L183.76 16.0281H180.014V26.9982H177.822V16.0281Z" fill="white"/>
<path d="M199.164 24.7978C199.778 24.3819 200.237 23.8096 200.541 23.0803C200.845 22.3515 200.997 21.5174 200.997 20.579C200.997 19.6582 200.862 18.8382 200.594 18.1174C200.324 17.3972 199.894 16.8237 199.304 16.3953C198.713 15.9675 197.953 15.7533 197.023 15.7533C196.134 15.7533 195.38 15.9703 194.76 16.4044C194.14 16.8379 193.675 17.4198 193.366 18.1486C193.055 18.8779 192.9 19.682 192.9 20.5614C192.9 21.4879 193.046 22.3175 193.339 23.0491C193.631 23.7812 194.079 24.3598 194.681 24.7848C195.284 25.2098 196.029 25.4223 196.918 25.4223C197.801 25.4223 198.55 25.2138 199.164 24.7978ZM193.48 26.3698C192.55 25.8326 191.839 25.0783 191.348 24.1071C190.857 23.1364 190.611 22.0076 190.611 20.7207C190.611 19.3692 190.873 18.1871 191.396 17.1745C191.919 16.1624 192.674 15.3804 193.659 14.8279C194.645 14.2765 195.807 14 197.146 14C198.427 14 199.529 14.2675 200.454 14.8013C201.377 15.3362 202.082 16.087 202.567 17.0549C203.052 18.0233 203.295 19.1448 203.295 20.4198C203.295 21.7951 203.03 22.9907 202.502 24.0056C201.972 25.0205 201.218 25.8031 200.239 26.3516C199.259 26.9007 198.108 27.1752 196.786 27.1752C195.512 27.1752 194.41 26.907 193.48 26.3698Z" fill="white"/>
<path d="M205.743 14.1774H208.26L214.542 24.1116C214.486 23.1675 214.463 22.2966 214.463 21.4998V14.1774H216.496V26.9982H214.059L207.682 16.9042C207.746 18.05 207.778 19.0649 207.778 19.95V26.9982H205.743V14.1774Z" fill="white"/>
<path fill-rule="evenodd" clip-rule="evenodd" d="M57.3281 14.2448H34.0052C23.0185 14.2448 19 18.301 19 29.3907V52.9327C19 64.022 23.0185 68.0781 34.0052 68.0781H57.3208C68.3075 68.0781 72.3333 64.022 72.3333 52.9327V29.3907C72.3333 18.301 68.3148 14.2448 57.3281 14.2448" fill="#C91C2E"/>
<path d="M42.2681 45.4666H44.407L43.3342 42.9482L42.2681 45.4666ZM41.7415 46.736L41.1071 48.2014H39.6626L42.7346 41.167H43.9826L47.0423 48.2014H45.559L44.9325 46.736H41.7415ZM64.9853 48.1965H66.3815V41.167H64.9853V48.1965ZM59.4291 45.1759H62.002V43.895H59.4291V42.4539H63.1641V41.1714H58.0334V48.2007H63.2988V46.9186H59.4291V45.1759ZM53.8818 46.0066L52.2987 41.1667H51.1444L49.5613 46.0066L48.0208 41.1701H46.5151L48.9454 48.2047H50.1165L51.7019 43.5839L53.2867 48.2047H54.4685L56.8926 41.1701H55.4257L53.8818 46.0066ZM37.5315 45.1954C37.5315 46.3398 36.9684 46.9512 35.9461 46.9512C34.9182 46.9512 34.3523 46.3225 34.3523 45.1467V41.1709H32.9375V45.1954C32.9375 47.1754 34.0272 48.3105 35.927 48.3105C37.8453 48.3105 38.9457 47.1537 38.9457 45.1372V41.1667H37.5315V45.1954ZM29.5618 41.167H30.976V48.2051H29.5618V45.3471H26.3669V48.2051H24.9521V41.167H26.3669V44.0063H29.5618V41.167Z" fill="white"/>
<path d="M45.6665 32.2051C40.7717 32.2051 36.7891 28.1851 36.7891 23.2443H38.0432C38.0432 27.4872 41.4627 30.9392 45.6665 30.9392C49.8703 30.9392 53.2898 27.4872 53.2898 23.2443H54.544C54.544 28.1851 50.5614 32.2051 45.6665 32.2051" fill="white"/>
</svg>
