<svg width="283" height="85" viewBox="0 0 283 85" fill="none" xmlns="http://www.w3.org/2000/svg">
<rect width="283" height="85" rx="10" fill="black"/>
<path d="M72.3994 31.8101V27.5404H72.684C73.0529 27.5404 73.348 27.4518 73.5694 27.2745C73.7907 27.0973 73.9752 26.7428 74.1227 26.211C74.2808 25.6688 74.4021 24.8712 74.4864 23.8181L74.9449 18H81.9647V27.5404H83.5932V31.8101H81.9647V29.0262H74.0279V31.8101H72.3994ZM80.3362 27.5404V19.4858H76.4469L76.1149 23.8963C75.9884 25.6584 75.6616 26.8731 75.1346 27.5404H80.3362Z" fill="white"/>
<path d="M88.7698 29.1826C87.9371 29.1826 87.1941 29.0053 86.5406 28.6508C85.8871 28.2963 85.3759 27.8011 85.007 27.165C84.638 26.529 84.4536 25.8044 84.4536 24.9911C84.4536 24.1778 84.638 23.4531 85.007 22.8171C85.3759 22.1811 85.8871 21.6858 86.5406 21.3313C87.1941 20.9664 87.9371 20.7839 88.7698 20.7839C89.6025 20.7839 90.3456 20.9664 90.9991 21.3313C91.6526 21.6858 92.1638 22.1811 92.5327 22.8171C92.9016 23.4531 93.0861 24.1778 93.0861 24.9911C93.0861 25.8044 92.9016 26.529 92.5327 27.165C92.1638 27.8011 91.6526 28.2963 90.9991 28.6508C90.3456 29.0053 89.6025 29.1826 88.7698 29.1826ZM88.7698 27.775C89.5709 27.775 90.2191 27.5195 90.7145 27.0086C91.2204 26.4977 91.4734 25.8252 91.4734 24.9911C91.4734 24.1569 91.2204 23.4844 90.7145 22.9735C90.2191 22.4522 89.5709 22.1915 88.7698 22.1915C87.9688 22.1915 87.3205 22.4522 86.8251 22.9735C86.3298 23.4844 86.0821 24.1569 86.0821 24.9911C86.0821 25.8148 86.3298 26.4873 86.8251 27.0086C87.3205 27.5195 87.9688 27.775 88.7698 27.775Z" fill="white"/>
<path d="M98.5105 29.1826C97.6989 29.1826 96.9663 29.0053 96.3128 28.6508C95.6699 28.2859 95.1692 27.7854 94.8109 27.1494C94.4525 26.5134 94.2733 25.7939 94.2733 24.9911C94.2733 24.1778 94.4525 23.4531 94.8109 22.8171C95.1692 22.1811 95.6699 21.6858 96.3128 21.3313C96.9558 20.9664 97.6884 20.7839 98.5105 20.7839C99.3853 20.7839 100.165 20.9925 100.85 21.4095C101.546 21.8266 102.041 22.4261 102.337 23.2081L100.882 23.4427C100.692 23.0674 100.392 22.765 99.9809 22.5356C99.5803 22.3062 99.1218 22.1915 98.6054 22.1915C97.8043 22.1915 97.1508 22.4522 96.6449 22.9735C96.1495 23.4949 95.9018 24.1674 95.9018 24.9911C95.9018 25.8148 96.1495 26.4873 96.6449 27.0086C97.1508 27.5195 97.8043 27.775 98.6054 27.775C99.1429 27.775 99.6172 27.6551 100.028 27.4153C100.45 27.1755 100.756 26.8575 100.945 26.4612L102.4 26.6958C102.105 27.4883 101.599 28.1034 100.882 28.5414C100.176 28.9689 99.3853 29.1826 98.5105 29.1826Z" fill="white"/>
<path d="M107.184 29.0262H105.634V22.3479H102.804V20.9403H110.014V22.3479H107.184V29.0262Z" fill="white"/>
<path d="M117.333 20.9403H118.93L115.515 30.2461C115.262 30.9447 114.93 31.4504 114.519 31.7632C114.108 32.076 113.56 32.2324 112.875 32.2324H111.658L111.515 30.8248H112.97C113.275 30.8248 113.513 30.757 113.681 30.6215C113.85 30.4964 113.992 30.2722 114.108 29.949L114.282 29.4798L110.646 20.9403H112.306L114.899 27.1807H115.12L117.333 20.9403Z" fill="white"/>
<path d="M121.881 29.0262H120.331V20.9403H127.288V29.0262H125.739V22.3479H121.881V29.0262Z" fill="white"/>
<path d="M134.912 24.2404V20.9403H136.461V29.0262H134.912V25.648H130.975V29.0262H129.425V20.9403H130.975V24.2404H134.912Z" fill="white"/>
<path d="M142.439 29.1826C141.606 29.1826 140.863 29.0053 140.209 28.6508C139.556 28.2963 139.045 27.8011 138.676 27.165C138.307 26.529 138.122 25.8044 138.122 24.9911C138.122 24.1778 138.307 23.4531 138.676 22.8171C139.045 22.1811 139.556 21.6858 140.209 21.3313C140.863 20.9664 141.606 20.7839 142.439 20.7839C143.271 20.7839 144.014 20.9664 144.668 21.3313C145.321 21.6858 145.833 22.1811 146.201 22.8171C146.57 23.4531 146.755 24.1778 146.755 24.9911C146.755 25.8044 146.57 26.529 146.201 27.165C145.833 27.8011 145.321 28.2963 144.668 28.6508C144.014 29.0053 143.271 29.1826 142.439 29.1826ZM142.439 27.775C143.24 27.775 143.888 27.5195 144.383 27.0086C144.889 26.4977 145.142 25.8252 145.142 24.9911C145.142 24.1569 144.889 23.4844 144.383 22.9735C143.888 22.4522 143.24 22.1915 142.439 22.1915C141.638 22.1915 140.989 22.4522 140.494 22.9735C139.999 23.4844 139.751 24.1569 139.751 24.9911C139.751 25.8148 139.999 26.4873 140.494 27.0086C140.989 27.5195 141.638 27.775 142.439 27.775Z" fill="white"/>
<path d="M157.638 24.7878C158.059 24.9442 158.396 25.1996 158.649 25.5541C158.913 25.8982 159.045 26.3048 159.045 26.774C159.045 27.2015 158.918 27.5873 158.665 27.9314C158.423 28.2755 158.08 28.5466 157.638 28.7447C157.195 28.9324 156.689 29.0262 156.12 29.0262H152.215V20.9403H155.977C156.515 20.9403 156.995 21.0342 157.416 21.2218C157.838 21.4095 158.165 21.665 158.396 21.9882C158.639 22.3114 158.76 22.6816 158.76 23.0986C158.76 23.4949 158.66 23.8389 158.46 24.1309C158.27 24.4124 157.996 24.6314 157.638 24.7878ZM153.764 22.2384V24.2247H155.977C156.336 24.2247 156.631 24.1361 156.863 23.9588C157.095 23.7712 157.211 23.5313 157.211 23.2394C157.211 22.9475 157.095 22.7076 156.863 22.52C156.631 22.3323 156.336 22.2384 155.977 22.2384H153.764ZM156.12 27.7281C156.531 27.7281 156.863 27.6238 157.116 27.4153C157.369 27.2067 157.495 26.9357 157.495 26.602C157.495 26.2683 157.369 25.9973 157.116 25.7887C156.863 25.5802 156.531 25.4759 156.12 25.4759H153.764V27.7281H156.12Z" fill="white"/>
<path d="M90.4558 59.4542H91.3441V36.5144H88.5683V47.2514L88.8644 53.8108L73.8011 36.5511H72.8389V59.4175H75.5776V48.424L75.3556 42.1577L90.4558 59.4542ZM111.848 53.7742L114.55 59.4175H117.399V59.0511L106.74 36.4411H105.482L94.712 59.0511V59.4175H97.5988L100.301 53.7742H111.848ZM106.074 40.7286L110.923 51.4289H101.226L106.074 40.7286ZM118.843 53.1879C118.991 57.8784 123.839 59.9305 128.132 59.8206C132.315 59.7107 137.089 57.9517 137.089 53.0413C137.089 47.9843 132.796 47.1415 128.206 46.6284C125.394 46.262 122.063 46.152 122.063 42.7441C122.063 39.7392 125.246 38.6765 127.762 38.6032C130.39 38.6032 133.499 39.5193 133.758 42.4143H136.349C136.201 37.9802 131.685 36.038 127.688 36.148C123.617 36.148 119.287 38.2734 119.287 42.7807C119.287 47.3613 123.506 48.424 127.688 48.8638C130.834 49.3035 134.313 49.3402 134.313 53.0413C134.202 56.376 130.797 57.3288 128.058 57.4387C125.209 57.4387 121.656 56.266 121.47 53.1879H118.806H118.843ZM159.406 59.4175V36.5511H156.63V46.1887H144.417V36.5511H141.678V59.4175H144.417V48.6805H156.63V59.4175H159.406ZM169.51 52.4183C167.511 52.4183 165.772 52.4183 163.81 52.4183C163.662 62.4957 182.501 62.2392 182.501 52.6016C182.501 46.8849 178.022 46.2986 173.433 45.7856C171.36 45.5657 169.621 45.1993 169.769 43.477C169.954 40.7652 176.172 40.5087 176.172 43.5503C178.17 43.5503 179.688 43.5503 181.797 43.5503C181.945 33.6928 163.958 33.6928 164.18 43.5503C164.254 48.534 167.548 50.2196 172.582 50.5861C174.876 50.7327 176.801 50.9892 176.801 52.5649C176.801 55.24 169.584 55.3133 169.584 52.4183H169.51ZM190.199 41.7546V59.4175C192.16 59.4175 194.085 59.4175 196.046 59.4175V41.7546H201.709C201.709 39.9957 201.709 38.2734 201.709 36.5144H184.536C184.536 38.2367 184.536 39.9957 184.536 41.7546H190.199ZM227.653 47.9843C227.653 32.1537 203.93 32.1537 203.93 47.9843C203.93 63.8516 227.653 63.8516 227.653 47.9843ZM210.036 47.9843C210.036 39.7392 221.621 39.7392 221.621 47.9843C221.621 56.3027 210.036 56.3027 210.036 47.9843ZM247.121 51.2823C252.968 47.3613 251.303 36.5511 242.235 36.5144C238.867 36.5144 235.425 36.5144 232.094 36.5144C232.094 44.1732 232.094 51.7954 232.094 59.3809C234.019 59.3809 236.018 59.3809 238.016 59.3809V52.6382H241.088L245.048 59.3809H251.636V58.538L247.121 51.2823ZM242.235 47.398H238.016C238.016 45.5657 238.016 43.6235 238.016 41.7546C239.386 41.7546 240.866 41.718 242.235 41.7546C245.603 41.7913 245.455 47.398 242.235 47.398ZM269.623 36.5144C264.219 36.5144 260.555 36.5144 255.189 36.5144C255.189 44.0999 255.189 51.7587 255.189 59.3809C260.555 59.3809 264.516 59.3809 269.919 59.3809C269.919 57.6586 269.919 55.8996 269.919 54.1773C266.44 54.1773 264.479 54.1773 261.074 54.1773C261.074 52.8214 261.074 51.5022 261.074 50.1463H268.92C268.92 48.424 268.92 46.6651 268.92 44.9428H261.074V41.718C264.479 41.718 266.181 41.718 269.623 41.718C269.623 39.959 269.623 38.2001 269.623 36.4778V36.5144Z" fill="white"/>
<path d="M52.2235 29.4052C52.4086 29.1121 52.1865 28.709 51.8164 28.709H44.1553C43.7852 28.709 43.5631 29.0754 43.7482 29.4052L47.5602 35.9647C47.7453 36.2578 48.1894 36.2578 48.3745 35.9647L52.2235 29.4052Z" fill="#AE2B30"/>
<path d="M44.1183 66.1953C43.9332 66.4885 44.1553 66.8916 44.5254 66.8916H52.1865C52.5566 66.8916 52.7787 66.5251 52.5936 66.1953L48.7446 59.6359C48.5595 59.3427 48.1154 59.3427 47.9303 59.6359L44.0813 66.1953H44.1183Z" fill="#AE2B30"/>
<path d="M57.9237 36.9541C58.2938 36.9541 58.5159 36.5876 58.3309 36.2578L54.4818 29.6984C54.2967 29.4052 53.8526 29.4052 53.6675 29.6984L49.8185 36.2578C49.6334 36.551 49.8555 36.9541 50.2256 36.9541H57.8867H57.9237Z" fill="#AE2B30"/>
<path d="M53.6667 45.5643C53.8517 45.8575 54.2958 45.8575 54.4809 45.5643L58.33 39.0048C58.515 38.7117 58.293 38.3086 57.9229 38.3086H50.2617C49.8916 38.3086 49.6695 38.675 49.8546 39.0048L53.7037 45.5643H53.6667Z" fill="#AE2B30"/>
<path d="M63.6972 46.8838C64.0673 46.8838 64.2893 46.5173 64.1043 46.1875L60.2552 39.6281C60.0702 39.3349 59.626 39.3349 59.441 39.6281L55.5919 46.1875C55.4069 46.4807 55.6289 46.8838 55.999 46.8838H63.6602H63.6972Z" fill="#AE2B30"/>
<path d="M59.4772 55.4959C59.6623 55.7891 60.1064 55.7891 60.2914 55.4959L64.1405 48.9365C64.3256 48.6433 64.1035 48.2402 63.7334 48.2402H56.0723C55.7022 48.2402 55.4801 48.6067 55.6651 48.9365L59.5142 55.4959H59.4772Z" fill="#AE2B30"/>
<path d="M49.8546 56.1563C49.6695 56.4494 49.8916 56.8525 50.2617 56.8525H57.9229C58.293 56.8525 58.515 56.4861 58.33 56.1563L54.4809 49.5968C54.2958 49.3037 53.8517 49.3037 53.6667 49.5968L49.8176 56.1563H49.8546Z" fill="#AE2B30"/>
<path d="M53.6667 65.4276C53.8517 65.7207 54.2958 65.7207 54.4809 65.4276L58.33 58.8681C58.515 58.575 58.293 58.1719 57.9229 58.1719H50.2617C49.8916 58.1719 49.6695 58.5383 49.8546 58.8681L53.7037 65.4276H53.6667Z" fill="#AE2B30"/>
<path d="M37.0126 29.0009C37.1976 28.7078 36.9756 28.3047 36.6055 28.3047H28.9443C28.5742 28.3047 28.3522 28.6711 28.5372 29.0009L32.3493 35.5604C32.5343 35.8535 32.9785 35.8535 33.1635 35.5604L37.0126 29.0009Z" fill="#363789"/>
<path d="M28.3517 66.1602C28.1666 66.4533 28.3887 66.8564 28.7588 66.8564H36.4199C36.79 66.8564 37.0121 66.49 36.827 66.1602L32.978 59.6007C32.7929 59.3076 32.3488 59.3076 32.1637 59.6007L28.3147 66.1602H28.3517Z" fill="#363789"/>
<path d="M42.6015 36.917C42.9716 36.917 43.1936 36.5505 43.0086 36.2207L39.1595 29.6613C38.9745 29.3681 38.5303 29.3681 38.3453 29.6613L34.4962 36.2207C34.3112 36.5139 34.5332 36.917 34.9033 36.917H42.5645H42.6015Z" fill="#363789"/>
<path d="M38.3444 45.492C38.5295 45.7852 38.9736 45.7852 39.1586 45.492L43.0077 38.9326C43.1928 38.6394 42.9707 38.2363 42.6006 38.2363H34.9394C34.5693 38.2363 34.3473 38.6028 34.5323 38.9326L38.3814 45.492H38.3444Z" fill="#363789"/>
<path d="M48.3749 46.8486C48.745 46.8486 48.9671 46.4822 48.782 46.1524L44.9329 39.5929C44.7479 39.2998 44.3038 39.2998 44.1187 39.5929L40.2696 46.1524C40.0846 46.4455 40.3067 46.8486 40.6768 46.8486H48.3379H48.3749Z" fill="#363789"/>
<path d="M44.155 55.4217C44.34 55.7149 44.7841 55.7149 44.9692 55.4217L48.8183 48.8623C49.0033 48.5691 48.7812 48.166 48.4111 48.166H40.75C40.3799 48.166 40.1578 48.5325 40.3429 48.8623L44.192 55.4217H44.155Z" fill="#363789"/>
<path d="M34.5323 56.082C34.3473 56.3752 34.5693 56.7783 34.9394 56.7783H42.6006C42.9707 56.7783 43.1928 56.4119 43.0077 56.082L39.1586 49.5226C38.9736 49.2294 38.5295 49.2294 38.3444 49.5226L34.4953 56.082H34.5323Z" fill="#363789"/>
<path d="M38.3444 65.3534C38.5295 65.6465 38.9736 65.6465 39.1586 65.3534L43.0077 58.7939C43.1928 58.5008 42.9707 58.0977 42.6006 58.0977H34.9394C34.5693 58.0977 34.3473 58.4641 34.5323 58.7939L38.3814 65.3534H38.3444Z" fill="#363789"/>
<path d="M22.2821 28.7451C22.4672 28.4519 22.2451 28.0488 21.875 28.0488H14.2139C13.8438 28.0488 13.6217 28.4153 13.8067 28.7451L17.6188 35.3045C17.8039 35.5977 18.248 35.5977 18.433 35.3045L22.2821 28.7451Z" fill="#D9DADA"/>
<path d="M13.0646 65.9024C12.8795 66.1955 13.1016 66.5986 13.4717 66.5986H21.1328C21.5029 66.5986 21.725 66.2322 21.5399 65.9024L17.6909 59.3429C17.5058 59.0498 17.0617 59.0498 16.8766 59.3429L13.0276 65.9024H13.0646Z" fill="#D9DADA"/>
<path d="M28.0927 36.6611C28.4628 36.6611 28.6849 36.2947 28.4998 35.9649L24.6507 29.4054C24.4657 29.1123 24.0215 29.1123 23.8365 29.4054L19.9874 35.9649C19.8024 36.258 20.0244 36.6611 20.3945 36.6611H28.0557H28.0927Z" fill="#D9DADA"/>
<path d="M23.0592 45.2362C23.2443 45.5293 23.6884 45.5293 23.8735 45.2362L27.7226 38.6767C27.9076 38.3836 27.6855 37.9805 27.3154 37.9805H19.6543C19.2842 37.9805 19.0621 38.3469 19.2472 38.6767L23.0963 45.2362H23.0592Z" fill="#D9DADA"/>
<path d="M33.0888 46.5908C33.4589 46.5908 33.6809 46.2244 33.4959 45.8945L29.6468 39.3351C29.4618 39.0419 29.0176 39.0419 28.8326 39.3351L24.9835 45.8945C24.7985 46.1877 25.0205 46.5908 25.3906 46.5908H33.0518H33.0888Z" fill="#D9DADA"/>
<path d="M28.8698 55.1659C29.0548 55.459 29.499 55.459 29.684 55.1659L33.5331 48.6064C33.7182 48.3133 33.4961 47.9102 33.126 47.9102H25.4648C25.0947 47.9102 24.8727 48.2766 25.0577 48.6064L28.9068 55.1659H28.8698Z" fill="#D9DADA"/>
<path d="M19.2472 55.8262C19.0621 56.1193 19.2842 56.5224 19.6543 56.5224H27.3154C27.6855 56.5224 27.9076 56.156 27.7226 55.8262L23.8735 49.2667C23.6884 48.9736 23.2443 48.9736 23.0592 49.2667L19.2102 55.8262H19.2472Z" fill="#D9DADA"/>
<path d="M23.0592 65.0975C23.2443 65.3907 23.6884 65.3907 23.8735 65.0975L27.7226 58.5381C27.9076 58.2449 27.6855 57.8418 27.3154 57.8418H19.6543C19.2842 57.8418 19.0621 58.2082 19.2472 58.5381L23.0963 65.0975H23.0592Z" fill="#D9DADA"/>
</svg>
