<svg width="283" height="85" viewBox="0 0 283 85" fill="none" xmlns="http://www.w3.org/2000/svg">
<rect width="283" height="85" rx="10" fill="black"/>
<path d="M225.14 62.4124H229.107V35.8465H225.14V62.4124ZM260.87 45.4166L256.323 56.9339H256.187L251.467 45.4166H247.194L254.273 61.5135L250.236 70.4683H254.373L265.282 45.4166H260.87ZM238.372 59.3951C237.075 59.3951 235.261 58.745 235.261 57.139C235.261 55.0885 237.519 54.3025 239.466 54.3025C241.21 54.3025 242.032 54.6778 243.091 55.1908C242.783 57.6519 240.663 59.3951 238.372 59.3951V59.3951ZM238.852 44.8354C235.98 44.8354 233.006 46.1004 231.775 48.9029L235.295 50.3721C236.048 48.9029 237.449 48.4248 238.92 48.4248C240.972 48.4248 243.057 49.6541 243.091 51.8422V52.1152C242.373 51.7051 240.833 51.0901 238.954 51.0901C235.157 51.0901 231.294 53.1743 231.294 57.0707C231.294 60.6252 234.407 62.9154 237.893 62.9154C240.559 62.9154 242.032 61.7192 242.953 60.3173H243.091V62.3692H246.922V52.1832C246.922 47.4668 243.397 44.8354 238.852 44.8354V44.8354ZM214.336 48.6504H208.694V39.5446H214.336C217.301 39.5446 218.985 41.9983 218.985 44.0974C218.985 46.1561 217.301 48.6504 214.336 48.6504V48.6504ZM214.234 35.8465H204.728V62.4124H208.694V52.3477H214.234C218.63 52.3477 222.952 49.1668 222.952 44.0974C222.952 39.0291 218.63 35.8465 214.234 35.8465ZM162.401 59.4C159.66 59.4 157.367 57.1056 157.367 53.9572C157.367 50.7722 159.66 48.4454 162.401 48.4454C165.106 48.4454 167.23 50.7722 167.23 53.9572C167.23 57.1056 165.106 59.4 162.401 59.4V59.4ZM166.956 46.9041H166.819C165.928 45.8431 164.215 44.8845 162.059 44.8845C157.537 44.8845 153.393 48.8563 153.393 53.9572C153.393 59.0232 157.537 62.9602 162.059 62.9602C164.215 62.9602 165.928 62.0014 166.819 60.9066H166.956V62.2064C166.956 65.6654 165.106 67.5132 162.127 67.5132C159.696 67.5132 158.189 65.7675 157.572 64.2958L154.113 65.7335C155.105 68.1291 157.742 71.0742 162.127 71.0742C166.785 71.0742 170.724 68.335 170.724 61.6586V45.4323H166.956V46.9041ZM173.465 62.4124H177.436V35.8465H173.465V62.4124ZM183.293 53.6484C183.191 50.1562 186 48.3765 188.02 48.3765C189.596 48.3765 190.93 49.1643 191.377 50.2933L183.293 53.6484ZM195.623 50.6352C194.869 48.6164 192.575 44.8845 187.883 44.8845C183.224 44.8845 179.354 48.5476 179.354 53.9223C179.354 58.9892 183.191 62.9602 188.327 62.9602C192.471 62.9602 194.869 60.4276 195.863 58.955L192.781 56.9005C191.753 58.4072 190.349 59.4 188.327 59.4C186.307 59.4 184.868 58.4754 183.945 56.6608L196.033 51.6628L195.623 50.6352ZM99.3015 47.6576V51.4918H108.48C108.206 53.6484 107.487 55.2231 106.391 56.3187C105.055 57.6534 102.965 59.126 99.3015 59.126C93.6502 59.126 89.2323 54.573 89.2323 48.9243C89.2323 43.2757 93.6502 38.722 99.3015 38.722C102.35 38.722 104.576 39.9205 106.22 41.4611L108.926 38.756C106.631 36.5653 103.583 34.8879 99.3015 34.8879C91.56 34.8879 85.0527 41.1872 85.0527 48.9243C85.0527 56.6608 91.56 62.9602 99.3015 62.9602C103.479 62.9602 106.631 61.5906 109.097 59.0232C111.631 56.4898 112.419 52.9295 112.419 50.0534C112.419 49.1643 112.35 48.3425 112.213 47.6576H99.3015ZM122.854 59.4C120.114 59.4 117.751 57.1404 117.751 53.9223C117.751 50.67 120.114 48.4454 122.854 48.4454C125.594 48.4454 127.957 50.67 127.957 53.9223C127.957 57.1404 125.594 59.4 122.854 59.4V59.4ZM122.854 44.8845C117.853 44.8845 113.778 48.6844 113.778 53.9223C113.778 59.126 117.853 62.9602 122.854 62.9602C127.854 62.9602 131.93 59.126 131.93 53.9223C131.93 48.6844 127.854 44.8845 122.854 44.8845ZM142.653 59.4C139.914 59.4 137.55 57.1404 137.55 53.9223C137.55 50.67 139.914 48.4454 142.653 48.4454C145.393 48.4454 147.756 50.67 147.756 53.9223C147.756 57.1404 145.393 59.4 142.653 59.4ZM142.653 44.8845C137.653 44.8845 133.578 48.6844 133.578 53.9223C133.578 59.126 137.653 62.9602 142.653 62.9602C147.655 62.9602 151.73 59.126 151.73 53.9223C151.73 48.6844 147.655 44.8845 142.653 44.8845Z" fill="white"/>
<path d="M92.3594 26.7851C90.4534 26.7851 88.814 26.1148 87.4922 24.7938C86.1698 23.4719 85.5 21.8168 85.5 19.8922C85.5 17.9676 86.1701 16.3154 87.4922 14.9906C88.814 13.6693 90.4535 12.9992 92.3594 12.9992C93.3305 12.9992 94.2367 13.1668 95.1028 13.5159C95.9692 13.865 96.678 14.3497 97.2362 14.9839L97.3678 15.1338L95.8809 16.6196L95.7323 16.437C95.3621 15.9823 94.8913 15.6291 94.2948 15.3724C93.7004 15.1163 93.0494 14.998 92.3594 14.998C91.017 14.998 89.9031 15.4537 88.9729 16.3801C88.9727 16.3803 88.9723 16.3803 88.972 16.3805C88.063 17.3256 87.606 18.4763 87.606 19.8922C87.606 21.3092 88.0636 22.4601 88.9737 23.4055C89.9039 24.3315 91.0177 24.7896 92.3594 24.7896C93.5883 24.7896 94.6047 24.4467 95.4038 23.7678H95.4042C96.1481 23.136 96.5946 22.2822 96.7525 21.1937H92.1468V19.2348H98.743L98.7713 19.4141C98.8253 19.7584 98.8634 20.0908 98.8634 20.4102C98.8634 22.238 98.3059 23.7301 97.2121 24.8278C95.9774 26.1362 94.3535 26.7852 92.3594 26.7852L92.3594 26.7851ZM149.636 26.7851C147.727 26.7851 146.107 26.1145 144.802 24.7938C144.802 24.7936 144.801 24.7936 144.801 24.7934C144.801 24.7932 144.801 24.7931 144.801 24.7929C143.494 23.4865 142.846 21.831 142.846 19.8922C142.846 17.9533 143.494 16.2978 144.801 14.9914C144.801 14.9912 144.801 14.9912 144.801 14.991L144.802 14.9905C146.107 13.6696 147.727 12.9992 149.636 12.9992C151.541 12.9992 153.162 13.6698 154.466 15.0104C155.773 16.3167 156.422 17.9691 156.422 19.8921C156.422 21.831 155.774 23.4865 154.467 24.7929L154.467 24.7933C153.161 26.115 151.525 26.7851 149.636 26.7851L149.636 26.7851ZM100.751 26.4996V13.2848H100.964H108.647V15.2836H102.82V18.9127H108.076V20.8717H102.82V24.5041H108.647V26.4996H100.751ZM113.479 26.4996V15.2836H109.905V13.2848H119.123V15.2836H118.91H115.549V26.4996H113.479ZM125.014 26.4996V13.2848H127.083V13.4973V26.4996H125.014ZM132.293 26.4996V15.2836H128.719V13.2848H137.936V15.2836H137.724H134.362V26.4996H132.293ZM158.259 26.4996V13.2848H160.593L166.531 22.7883L166.48 20.9841V13.2848H168.55V26.4996H166.502L160.277 16.5158L160.328 18.3188V18.3217V26.4996H158.259ZM149.636 24.7896C150.978 24.7896 152.074 24.332 152.967 23.4071L152.969 23.4054L152.97 23.4042C153.876 22.4983 154.319 21.3321 154.319 19.8921C154.319 18.4557 153.876 17.2855 152.97 16.38L152.969 16.3788L152.967 16.3775C152.074 15.4528 150.978 14.9979 149.636 14.9979C148.291 14.9979 147.195 15.4521 146.285 16.3767L146.284 16.3775C145.395 17.305 144.952 18.4561 144.952 19.8921C144.952 21.3316 145.395 22.479 146.284 23.4066L146.285 23.4075C147.195 24.3322 148.291 24.7895 149.636 24.7895V24.7896Z" fill="white"/>
<path d="M41.8417 39.9383L19.208 63.9508C19.2089 63.9558 19.2106 63.96 19.2114 63.9649C19.9055 66.5722 22.288 68.4922 25.1157 68.4922C26.2461 68.4922 27.3074 68.1867 28.2175 67.6505L28.2897 67.6081L53.7668 52.9133L41.8417 39.9383" fill="#EA4335"/>
<path d="M64.7407 35.8487L64.7191 35.8339L53.7199 29.4604L41.3281 40.4823L53.7631 52.9102L64.7042 46.6C66.6224 45.5649 67.9245 43.5436 67.9245 41.2127C67.9245 38.8985 66.6398 36.8872 64.7407 35.8487" fill="#FBBC04"/>
<path d="M19.2076 18.3745C19.0715 18.876 19 19.4013 19 19.9468V62.378C19 62.9224 19.0707 63.4495 19.2084 63.9492L42.621 40.551L19.2076 18.3745Z" fill="#4285F4"/>
<path d="M42.0094 41.1641L53.7245 29.4574L28.2764 14.7095C27.3514 14.1557 26.2718 13.8361 25.1166 13.8361C22.2889 13.8361 19.9032 15.7595 19.2089 18.37C19.208 18.3726 19.208 18.3743 19.208 18.3766L42.0094 41.1641Z" fill="#34A853"/>
</svg>
