<svg width="283" height="85" viewBox="0 0 283 85" fill="none" xmlns="http://www.w3.org/2000/svg">
<rect width="283" height="85" rx="10" fill="black"/>
<path d="M193.619 38.3727V43.7626H190.215V47.2972H193.619V59.3073C193.619 63.4083 195.488 65.0487 200.191 65.0487C201.018 65.0487 201.805 64.9511 202.493 64.8339V61.3383C201.903 61.3969 201.529 61.4359 200.88 61.4359C198.774 61.4359 197.85 60.4595 197.85 58.2332V47.2972H202.493V43.7626H197.85V38.3727H193.619Z" fill="white"/>
<path d="M214.474 65.3416C220.731 65.3416 224.568 61.1821 224.568 54.2885C224.568 47.4339 220.711 43.2548 214.474 43.2548C208.216 43.2548 204.36 47.4339 204.36 54.2885C204.36 61.1821 208.197 65.3416 214.474 65.3416ZM214.474 61.6117C210.794 61.6117 208.728 58.9363 208.728 54.2885C208.728 49.6797 210.794 46.9848 214.474 46.9848C218.133 46.9848 220.219 49.6797 220.219 54.2885C220.219 58.9167 218.133 61.6117 214.474 61.6117Z" fill="white"/>
<path d="M227.851 64.9315H232.081V52.3747C232.081 49.3868 234.344 47.3753 237.551 47.3753C238.299 47.3753 239.559 47.512 239.913 47.6292V43.4892C239.46 43.372 238.653 43.3134 238.024 43.3134C235.23 43.3134 232.849 44.8366 232.239 46.9262H231.924V43.6649H227.851V64.9315Z" fill="white"/>
<path d="M250.417 46.8285C253.546 46.8285 255.592 48.9962 255.691 52.3356H244.868C245.104 49.0157 247.288 46.8285 250.417 46.8285ZM255.671 59.1901C254.884 60.8501 253.133 61.7679 250.575 61.7679C247.19 61.7679 245.006 59.405 244.868 55.675V55.4406H260V53.976C260 47.2972 256.399 43.2548 250.437 43.2548C244.396 43.2548 240.559 47.5706 240.559 54.3666C240.559 61.1625 244.317 65.3416 250.456 65.3416C255.356 65.3416 258.78 62.9982 259.744 59.1901H255.671Z" fill="white"/>
<path d="M165.876 57.0781C166.202 62.3002 170.587 65.64 177.113 65.64C184.088 65.64 188.453 62.1383 188.453 56.5518C188.453 52.1596 185.964 49.7307 179.928 48.3341L176.685 47.5447C172.851 46.6541 171.301 45.4599 171.301 43.3751C171.301 40.7438 173.707 39.0233 177.317 39.0233C180.743 39.0233 183.109 40.7033 183.537 43.3953H187.983C187.718 38.4768 183.354 35.0156 177.378 35.0156C170.954 35.0156 166.671 38.4768 166.671 43.6787C166.671 47.9697 169.098 50.5201 174.421 51.7548L178.214 52.6656C182.11 53.5764 183.823 54.9123 183.823 57.1388C183.823 59.7297 181.131 61.612 177.46 61.612C173.524 61.612 170.791 59.8511 170.403 57.0781H165.876Z" fill="white"/>
<path d="M122.051 43.3134C119.139 43.3134 116.621 44.7585 115.322 47.1801H115.007V43.6649H110.934V72.0009H115.165V61.7093H115.499C116.621 63.9551 119.041 65.2831 122.091 65.2831C127.502 65.2831 130.945 61.0454 130.945 54.2885C130.945 47.5316 127.502 43.3134 122.051 43.3134ZM120.851 61.514C117.309 61.514 115.086 58.741 115.086 54.308C115.086 49.8555 117.309 47.0824 120.871 47.0824C124.452 47.0824 126.597 49.7969 126.597 54.2885C126.597 58.7996 124.452 61.514 120.851 61.514Z" fill="white"/>
<path d="M145.749 43.3134C142.837 43.3134 140.318 44.7585 139.019 47.1801H138.705V43.6649H134.631V72.0009H138.862V61.7093H139.196C140.318 63.9551 142.738 65.2831 145.788 65.2831C151.199 65.2831 154.643 61.0454 154.643 54.2885C154.643 47.5316 151.199 43.3134 145.749 43.3134ZM144.549 61.514C141.007 61.514 138.783 58.741 138.783 54.308C138.783 49.8555 141.007 47.0824 144.568 47.0824C148.149 47.0824 150.294 49.7969 150.294 54.2885C150.294 58.7996 148.149 61.514 144.549 61.514Z" fill="white"/>
<path d="M103.344 64.9315H108.198L97.572 35.7241H92.6569L82.0312 64.9315H86.722L89.4345 57.1793H100.652L103.344 64.9315ZM94.8799 41.0271H95.2266L99.4891 53.374H90.597L94.8799 41.0271Z" fill="white"/>
<path d="M84.873 13.6933V27.7831H89.9989C94.2295 27.7831 96.6792 25.1956 96.6792 20.6943C96.6792 16.2613 94.2098 13.6933 89.9989 13.6933H84.873ZM87.0769 15.6852H89.7529C92.6947 15.6852 94.4361 17.5404 94.4361 20.7236C94.4361 23.9555 92.7242 25.7912 89.7529 25.7912H87.0769V15.6852Z" fill="white"/>
<path d="M104.182 27.9882C107.311 27.9882 109.229 25.9084 109.229 22.4616C109.229 19.0343 107.301 16.9448 104.182 16.9448C101.053 16.9448 99.1251 19.0343 99.1251 22.4616C99.1251 25.9084 101.044 27.9882 104.182 27.9882ZM104.182 26.1232C102.342 26.1232 101.309 24.7855 101.309 22.4616C101.309 20.1572 102.342 18.8098 104.182 18.8098C106.012 18.8098 107.055 20.1572 107.055 22.4616C107.055 24.7757 106.012 26.1232 104.182 26.1232Z" fill="white"/>
<path d="M125.567 17.1498H123.452L121.543 25.264H121.376L119.172 17.1498H117.145L114.941 25.264H114.784L112.866 17.1498H110.721L113.672 27.7831H115.847L118.05 19.9522H118.218L120.431 27.7831H122.625L125.567 17.1498Z" fill="white"/>
<path d="M128.003 27.7831H130.118V21.5633C130.118 19.9034 131.112 18.8683 132.676 18.8683C134.241 18.8683 134.988 19.7178 134.988 21.4266V27.7831H137.104V20.8993C137.104 18.3704 135.785 16.9448 133.395 16.9448C131.781 16.9448 130.718 17.6576 130.197 18.839H130.04V17.1498H128.003V27.7831Z" fill="white"/>
<path d="M140.435 27.7831H142.55V13H140.435V27.7831Z" fill="white"/>
<path d="M150.506 27.9882C153.634 27.9882 155.553 25.9084 155.553 22.4616C155.553 19.0343 153.624 16.9448 150.506 16.9448C147.377 16.9448 145.449 19.0343 145.449 22.4616C145.449 25.9084 147.367 27.9882 150.506 27.9882ZM150.506 26.1232C148.666 26.1232 147.633 24.7855 147.633 22.4616C147.633 20.1572 148.666 18.8098 150.506 18.8098C152.336 18.8098 153.379 20.1572 153.379 22.4616C153.379 24.7757 152.336 26.1232 150.506 26.1232Z" fill="white"/>
<path d="M161.855 26.1916C160.704 26.1916 159.868 25.635 159.868 24.6781C159.868 23.7407 160.537 23.2427 162.013 23.1451L164.63 22.9791V23.8677C164.63 25.1858 163.449 26.1916 161.855 26.1916ZM161.314 27.9589C162.721 27.9589 163.892 27.3535 164.531 26.2892H164.699V27.7831H166.735V20.5185C166.735 18.2727 165.22 16.9448 162.534 16.9448C160.104 16.9448 158.373 18.1165 158.156 19.9424H160.203C160.439 19.1906 161.255 18.7609 162.436 18.7609C163.882 18.7609 164.63 19.3956 164.63 20.5185V21.4364L161.727 21.6023C159.179 21.7586 157.743 22.8619 157.743 24.7757C157.743 26.7188 159.248 27.9589 161.314 27.9589Z" fill="white"/>
<path d="M173.913 27.9589C175.389 27.9589 176.639 27.2656 177.278 26.1037H177.445V27.7831H179.472V13H177.357V18.839H177.2C176.619 17.6673 175.379 16.9741 173.913 16.9741C171.208 16.9741 169.466 19.1027 169.466 22.4616C169.466 25.8303 171.188 27.9589 173.913 27.9589ZM174.514 18.8586C176.285 18.8586 177.396 20.2549 177.396 22.4714C177.396 24.6976 176.294 26.0744 174.514 26.0744C172.723 26.0744 171.651 24.7172 171.651 22.4616C171.651 20.2256 172.733 18.8586 174.514 18.8586Z" fill="white"/>
<path d="M193.189 27.9882C196.318 27.9882 198.236 25.9084 198.236 22.4616C198.236 19.0343 196.308 16.9448 193.189 16.9448C190.06 16.9448 188.132 19.0343 188.132 22.4616C188.132 25.9084 190.051 27.9882 193.189 27.9882ZM193.189 26.1232C191.349 26.1232 190.316 24.7855 190.316 22.4616C190.316 20.1572 191.349 18.8098 193.189 18.8098C195.019 18.8098 196.062 20.1572 196.062 22.4616C196.062 24.7757 195.019 26.1232 193.189 26.1232Z" fill="white"/>
<path d="M201.036 27.7831H203.152V21.5633C203.152 19.9034 204.145 18.8683 205.71 18.8683C207.274 18.8683 208.022 19.7178 208.022 21.4266V27.7831H210.137V20.8993C210.137 18.3704 208.818 16.9448 206.428 16.9448C204.814 16.9448 203.752 17.6576 203.23 18.839H203.073V17.1498H201.036V27.7831Z" fill="white"/>
<path d="M219.879 14.5037V17.1986H218.177V18.966H219.879V24.971C219.879 27.0215 220.814 27.8417 223.165 27.8417C223.578 27.8417 223.972 27.7929 224.316 27.7343V25.9865C224.021 26.0158 223.834 26.0353 223.509 26.0353C222.457 26.0353 221.994 25.5471 221.994 24.434V18.966H224.316V17.1986H221.994V14.5037H219.879Z" fill="white"/>
<path d="M227.155 27.7831H229.271V21.5731C229.271 19.9619 230.235 18.8781 231.967 18.8781C233.462 18.8781 234.259 19.7374 234.259 21.4364V27.7831H236.374V20.9188C236.374 18.3899 234.967 16.9545 232.685 16.9545C231.071 16.9545 229.94 17.6673 229.418 18.8586H229.251V13H227.155V27.7831Z" fill="white"/>
<path d="M244.005 18.7316C245.569 18.7316 246.592 19.8155 246.642 21.4852H241.23C241.348 19.8252 242.441 18.7316 244.005 18.7316ZM246.632 24.9124C246.238 25.7424 245.363 26.2013 244.084 26.2013C242.391 26.2013 241.299 25.0198 241.23 23.1549V23.0377H248.796V22.3054C248.796 18.966 246.996 16.9448 244.015 16.9448C240.994 16.9448 239.076 19.1027 239.076 22.5007C239.076 25.8986 240.955 27.9882 244.025 27.9882C246.474 27.9882 248.186 26.8165 248.668 24.9124H246.632Z" fill="white"/>
<path d="M59.077 40.959C59.1284 37.0043 61.2684 33.2622 64.6633 31.1908C62.5216 28.1552 58.9343 26.2305 55.2022 26.1146C51.2216 25.6999 47.3625 28.4786 45.3341 28.4786C43.2663 28.4786 40.1432 26.1558 36.7801 26.2245C32.3965 26.365 28.3098 28.8385 26.1771 32.6421C21.5925 40.5197 25.0122 52.097 29.4038 58.4646C31.601 61.5827 34.1689 65.0656 37.529 64.9421C40.817 64.8068 42.045 62.8613 46.0139 62.8613C49.946 62.8613 51.0982 64.9421 54.5264 64.8636C58.0546 64.8067 60.2775 61.7317 62.3977 58.5841C63.9764 56.3624 65.1912 53.9069 65.9971 51.3086C61.8508 49.5682 59.0819 45.427 59.077 40.959Z" fill="white"/>
<path d="M52.6016 21.9269C54.5253 19.635 55.4731 16.6891 55.2436 13.7148C52.3046 14.0212 49.5897 15.4153 47.64 17.6193C45.7335 19.7727 44.7413 22.6668 44.9289 25.5274C47.8689 25.5574 50.7593 24.2011 52.6016 21.9269Z" fill="white"/>
</svg>
