<svg width="283" height="85" viewBox="0 0 283 85" fill="none" xmlns="http://www.w3.org/2000/svg">
<rect width="283" height="85" rx="10" fill="black"/>
<path d="M81.8646 34.8526H105.135V54.2468C105.135 55.3989 104.222 56.333 103.097 56.333H100.766V62.2396C100.766 63.7395 99.5963 64.9551 98.1522 64.9551C96.7045 64.9551 95.5365 63.7395 95.5365 62.2396V56.333H91.4655V62.2396C91.4655 63.7395 90.2934 64.9551 88.8495 64.9551C87.4058 64.9551 86.2338 63.7395 86.2338 62.2396V56.333H83.905C82.7796 56.333 81.8645 55.3989 81.8645 54.2468L81.8646 34.8526ZM77.3043 34.6943C75.8456 34.6943 74.6641 35.9215 74.6641 37.4365V48.1536C74.6641 49.6668 75.8456 50.8961 77.3043 50.8961C78.7633 50.8961 79.9446 49.6668 79.9446 48.1536V37.4365C79.9446 35.9215 78.7633 34.6943 77.3043 34.6943ZM105.136 32.8982H81.8646C82.1518 29.5076 84.3024 26.5898 87.3983 24.9004L85.1857 21.5777C84.8874 21.1297 84.9999 20.5183 85.4389 20.2132C85.8774 19.9082 86.4739 20.0242 86.7738 20.4719L89.1853 24.0958C90.5223 23.623 91.9736 23.3515 93.5 23.3515C95.0282 23.3515 96.4796 23.623 97.8166 24.0964L100.228 20.4732C100.524 20.0243 101.123 19.9083 101.561 20.2133C102 20.5184 102.113 21.1298 101.814 21.5778L99.6036 24.9005C102.699 26.5888 104.848 29.5066 105.136 32.8982ZM89.879 28.2911C89.879 27.564 89.3033 26.9742 88.5926 26.9742C87.8801 26.9742 87.3044 27.564 87.3044 28.2911C87.3044 29.0179 87.882 29.6073 88.5926 29.6073C89.3033 29.6073 89.879 29.0179 89.879 28.2911ZM99.8587 28.2911C99.8587 27.564 99.281 26.9742 98.5705 26.9742C97.858 26.9742 97.284 27.564 97.284 28.2911C97.284 29.0179 97.858 29.6073 98.5705 29.6073C99.2811 29.6073 99.8587 29.0179 99.8587 28.2911ZM109.698 34.6905C108.24 34.6905 107.055 35.9196 107.055 37.4346V48.1555C107.055 49.6706 108.24 50.9 109.698 50.9C111.157 50.9 112.336 49.6707 112.336 48.1555V37.4346C112.336 35.9196 111.157 34.6905 109.698 34.6905Z" fill="#EDFF40"/>
<path d="M131.038 32.1591C130.257 32.1591 129.56 32.0246 128.947 31.7557C128.337 31.4867 127.854 31.1136 127.498 30.6364C127.146 30.1553 126.956 29.5985 126.93 28.9659H128.714C128.737 29.3106 128.852 29.6098 129.06 29.8636C129.272 30.1136 129.549 30.3068 129.89 30.4432C130.231 30.5795 130.61 30.6477 131.026 30.6477C131.485 30.6477 131.89 30.5682 132.242 30.4091C132.598 30.25 132.877 30.0284 133.077 29.7443C133.278 29.4564 133.379 29.125 133.379 28.75C133.379 28.3598 133.278 28.017 133.077 27.7216C132.88 27.4223 132.591 27.1875 132.208 27.017C131.829 26.8466 131.371 26.7614 130.833 26.7614H129.85V25.3295H130.833C131.265 25.3295 131.644 25.2519 131.969 25.0966C132.299 24.9413 132.557 24.7254 132.742 24.4489C132.928 24.1686 133.021 23.8409 133.021 23.4659C133.021 23.1061 132.939 22.7936 132.776 22.5284C132.617 22.2595 132.39 22.0492 132.094 21.8977C131.803 21.7462 131.458 21.6705 131.06 21.6705C130.682 21.6705 130.327 21.7405 129.998 21.8807C129.672 22.017 129.407 22.214 129.202 22.4716C128.998 22.7254 128.888 23.0303 128.873 23.3864H127.174C127.193 22.7576 127.379 22.2045 127.731 21.7273C128.087 21.25 128.557 20.8769 129.14 20.608C129.723 20.339 130.371 20.2045 131.083 20.2045C131.829 20.2045 132.473 20.3504 133.015 20.642C133.56 20.9299 133.981 21.3144 134.276 21.7955C134.576 22.2765 134.723 22.803 134.719 23.375C134.723 24.0265 134.541 24.5795 134.174 25.0341C133.81 25.4886 133.326 25.7936 132.719 25.9489V26.0398C133.492 26.1572 134.091 26.464 134.515 26.9602C134.943 27.4564 135.155 28.072 135.151 28.8068C135.155 29.447 134.977 30.0208 134.617 30.5284C134.261 31.036 133.774 31.4356 133.157 31.7273C132.54 32.0152 131.833 32.1591 131.038 32.1591ZM139.862 32.1932C139.308 32.1932 138.808 32.0909 138.362 31.8864C137.915 31.678 137.56 31.3769 137.299 30.983C137.041 30.589 136.913 30.1061 136.913 29.5341C136.913 29.0417 137.007 28.6364 137.197 28.3182C137.386 28 137.642 27.7481 137.964 27.5625C138.286 27.3769 138.646 27.2367 139.043 27.142C139.441 27.0473 139.846 26.9754 140.259 26.9261C140.782 26.8655 141.206 26.8163 141.532 26.7784C141.858 26.7367 142.094 26.6705 142.242 26.5795C142.39 26.4886 142.464 26.3409 142.464 26.1364V26.0966C142.464 25.6004 142.324 25.2159 142.043 24.9432C141.767 24.6705 141.354 24.5341 140.805 24.5341C140.233 24.5341 139.782 24.661 139.452 24.9148C139.127 25.1648 138.901 25.4432 138.776 25.75L137.18 25.3864C137.369 24.8561 137.646 24.428 138.009 24.1023C138.377 23.7727 138.799 23.5341 139.276 23.3864C139.754 23.2348 140.255 23.1591 140.782 23.1591C141.13 23.1591 141.5 23.2008 141.89 23.2841C142.284 23.3636 142.651 23.5114 142.992 23.7273C143.337 23.9432 143.619 24.2519 143.839 24.6534C144.058 25.0511 144.168 25.5682 144.168 26.2045V32H142.509V30.8068H142.441C142.331 31.0265 142.166 31.2424 141.947 31.4545C141.727 31.6667 141.445 31.8428 141.1 31.983C140.755 32.1231 140.343 32.1932 139.862 32.1932ZM140.231 30.8295C140.701 30.8295 141.102 30.7367 141.435 30.5511C141.772 30.3655 142.028 30.1231 142.202 29.8239C142.38 29.5208 142.469 29.197 142.469 28.8523V27.7273C142.409 27.7879 142.291 27.8447 142.117 27.8977C141.947 27.947 141.752 27.9905 141.532 28.0284C141.312 28.0625 141.098 28.0947 140.89 28.125C140.682 28.1515 140.507 28.1742 140.367 28.1932C140.038 28.2348 139.737 28.3049 139.464 28.4034C139.195 28.5019 138.979 28.6439 138.816 28.8295C138.657 29.0114 138.577 29.2538 138.577 29.5568C138.577 29.9773 138.733 30.2955 139.043 30.5114C139.354 30.7235 139.75 30.8295 140.231 30.8295ZM152.011 23.2727V24.7386H148.107V32H146.431V23.2727H152.011ZM153.806 35.2727V23.2727H155.465V24.6875H155.607C155.706 24.5057 155.848 24.2955 156.033 24.0568C156.219 23.8182 156.477 23.6098 156.806 23.4318C157.136 23.25 157.571 23.1591 158.113 23.1591C158.817 23.1591 159.446 23.3371 159.999 23.6932C160.552 24.0492 160.986 24.5625 161.3 25.233C161.619 25.9034 161.778 26.7102 161.778 27.6534C161.778 28.5966 161.621 29.4053 161.306 30.0795C160.992 30.75 160.56 31.267 160.011 31.6307C159.461 31.9905 158.835 32.1705 158.13 32.1705C157.6 32.1705 157.166 32.0814 156.829 31.9034C156.496 31.7254 156.234 31.517 156.045 31.2784C155.855 31.0398 155.71 30.8277 155.607 30.642H155.505V35.2727H153.806ZM155.471 27.6364C155.471 28.25 155.56 28.7879 155.738 29.25C155.916 29.7121 156.174 30.0739 156.511 30.3352C156.848 30.5928 157.261 30.7216 157.749 30.7216C158.257 30.7216 158.681 30.5871 159.022 30.3182C159.363 30.0455 159.621 29.6761 159.795 29.2102C159.973 28.7443 160.062 28.2197 160.062 27.6364C160.062 27.0606 159.975 26.5436 159.8 26.0852C159.63 25.6269 159.372 25.2652 159.028 25C158.687 24.7348 158.261 24.6023 157.749 24.6023C157.257 24.6023 156.84 24.7292 156.499 24.983C156.162 25.2367 155.906 25.5909 155.732 26.0455C155.558 26.5 155.471 27.0303 155.471 27.6364ZM164.458 35.2727C164.204 35.2727 163.973 35.2519 163.765 35.2102C163.557 35.1723 163.401 35.1307 163.299 35.0852L163.708 33.6932C164.019 33.7765 164.295 33.8125 164.538 33.8011C164.78 33.7898 164.994 33.6989 165.18 33.5284C165.369 33.358 165.536 33.0795 165.68 32.6932L165.89 32.1136L162.697 23.2727H164.515L166.725 30.0455H166.816L169.026 23.2727H170.85L167.254 33.1648C167.087 33.6193 166.875 34.0038 166.617 34.3182C166.36 34.6364 166.053 34.875 165.697 35.0341C165.341 35.1932 164.928 35.2727 164.458 35.2727ZM171.93 29.6932H173.668C173.691 30.0492 173.852 30.3239 174.151 30.517C174.454 30.7102 174.846 30.8068 175.327 30.8068C175.816 30.8068 176.233 30.7027 176.577 30.4943C176.922 30.2822 177.094 29.9545 177.094 29.5114C177.094 29.2462 177.028 29.0152 176.896 28.8182C176.767 28.6174 176.583 28.4621 176.344 28.3523C176.11 28.2424 175.831 28.1875 175.509 28.1875H174.089V26.8523H175.509C175.99 26.8523 176.35 26.7424 176.589 26.5227C176.827 26.303 176.947 26.0284 176.947 25.6989C176.947 25.3428 176.818 25.0568 176.56 24.8409C176.307 24.6212 175.952 24.5114 175.498 24.5114C175.036 24.5114 174.651 24.6155 174.344 24.8239C174.038 25.0284 173.877 25.2936 173.862 25.6193H172.146C172.157 25.1307 172.305 24.7027 172.589 24.3352C172.877 23.964 173.263 23.6761 173.748 23.4716C174.237 23.2633 174.791 23.1591 175.413 23.1591C176.06 23.1591 176.621 23.2633 177.094 23.4716C177.568 23.6799 177.933 23.9678 178.191 24.3352C178.452 24.7027 178.583 25.125 178.583 25.6023C178.583 26.0833 178.439 26.4773 178.151 26.7841C177.867 27.0871 177.496 27.3049 177.038 27.4375V27.5284C177.375 27.5511 177.674 27.6534 177.935 27.8352C178.197 28.017 178.401 28.2576 178.549 28.5568C178.697 28.8561 178.771 29.1951 178.771 29.5739C178.771 30.108 178.623 30.5701 178.327 30.9602C178.036 31.3504 177.63 31.6515 177.112 31.8636C176.596 32.072 176.007 32.1761 175.344 32.1761C174.701 32.1761 174.123 32.0758 173.612 31.875C173.104 31.6705 172.701 31.3826 172.401 31.0114C172.106 30.6402 171.949 30.2008 171.93 29.6932ZM182.19 29.6193L186.036 23.2727H187.866V32H186.201V25.6477L182.371 32H180.525V23.2727H182.19V29.6193ZM189.067 24.7386V23.2727H196.431V24.7386H193.585V32H191.925V24.7386H189.067ZM199.506 26.2727H202.04C203.109 26.2727 203.931 26.5379 204.506 27.0682C205.082 27.5985 205.37 28.2822 205.37 29.1193C205.37 29.6648 205.241 30.1553 204.984 30.5909C204.726 31.0265 204.349 31.3712 203.853 31.625C203.357 31.875 202.753 32 202.04 32H198.228V23.2727H199.893V30.5341H202.04C202.529 30.5341 202.931 30.4072 203.245 30.1534C203.559 29.8958 203.717 29.5682 203.717 29.1705C203.717 28.75 203.559 28.4072 203.245 28.142C202.931 27.8731 202.529 27.7386 202.04 27.7386H199.506V26.2727Z" fill="white"/>
<path d="M138.101 60.2159C137.48 60.2159 136.946 59.9962 136.499 59.5568C136.052 59.1098 135.828 58.572 135.828 57.9432C135.828 57.322 136.052 56.7917 136.499 56.3523C136.946 55.9053 137.48 55.6818 138.101 55.6818C138.722 55.6818 139.256 55.9053 139.703 56.3523C140.15 56.7917 140.374 57.322 140.374 57.9432C140.374 58.3598 140.268 58.7424 140.055 59.0909C139.851 59.4318 139.578 59.7045 139.237 59.9091C138.896 60.1136 138.518 60.2159 138.101 60.2159ZM150.004 60.3864C148.898 60.3864 147.898 60.1818 147.004 59.7727C146.11 59.3561 145.402 58.7538 144.879 57.9659C144.364 57.178 144.107 56.2121 144.107 55.0682C144.107 54.0833 144.296 53.2727 144.675 52.6364C145.054 52 145.565 51.4962 146.209 51.125C146.853 50.7538 147.572 50.4735 148.368 50.2841C149.163 50.0947 149.974 49.9508 150.8 49.8523C151.845 49.7311 152.694 49.6326 153.345 49.5568C153.997 49.4735 154.47 49.3409 154.766 49.1591C155.061 48.9773 155.209 48.6818 155.209 48.2727V48.1932C155.209 47.2008 154.929 46.4318 154.368 45.8864C153.815 45.3409 152.989 45.0682 151.891 45.0682C150.747 45.0682 149.845 45.322 149.186 45.8295C148.535 46.3295 148.084 46.8864 147.834 47.5L144.641 46.7727C145.019 45.7121 145.572 44.8561 146.3 44.2045C147.035 43.5455 147.879 43.0682 148.834 42.7727C149.788 42.4697 150.792 42.3182 151.845 42.3182C152.542 42.3182 153.281 42.4015 154.061 42.5682C154.849 42.7273 155.584 43.0227 156.266 43.4545C156.955 43.8864 157.519 44.5038 157.959 45.3068C158.398 46.1023 158.618 47.1364 158.618 48.4091V60H155.3V57.6136H155.163C154.944 58.053 154.614 58.4848 154.175 58.9091C153.735 59.3333 153.171 59.6856 152.482 59.9659C151.792 60.2462 150.966 60.3864 150.004 60.3864ZM150.743 57.6591C151.682 57.6591 152.485 57.4735 153.152 57.1023C153.826 56.7311 154.338 56.2462 154.686 55.6477C155.042 55.0417 155.22 54.3939 155.22 53.7045V51.4545C155.099 51.5758 154.864 51.6894 154.516 51.7955C154.175 51.8939 153.785 51.9811 153.345 52.0568C152.906 52.125 152.478 52.1894 152.061 52.25C151.644 52.303 151.296 52.3485 151.016 52.3864C150.357 52.4697 149.754 52.6098 149.209 52.8068C148.671 53.0038 148.239 53.2879 147.913 53.6591C147.595 54.0227 147.436 54.5076 147.436 55.1136C147.436 55.9545 147.747 56.5909 148.368 57.0227C148.989 57.447 149.781 57.6591 150.743 57.6591ZM163.143 66.5455V42.5455H166.462V45.375H166.746C166.943 45.0114 167.227 44.5909 167.598 44.1136C167.969 43.6364 168.484 43.2197 169.143 42.8636C169.803 42.5 170.674 42.3182 171.757 42.3182C173.166 42.3182 174.424 42.6742 175.53 43.3864C176.636 44.0985 177.503 45.125 178.132 46.4659C178.768 47.8068 179.087 49.4205 179.087 51.3068C179.087 53.1932 178.772 54.8106 178.143 56.1591C177.515 57.5 176.651 58.5341 175.553 59.2614C174.454 59.9811 173.2 60.3409 171.791 60.3409C170.731 60.3409 169.863 60.1629 169.189 59.8068C168.522 59.4508 168 59.0341 167.621 58.5568C167.242 58.0795 166.95 57.6553 166.746 57.2841H166.541V66.5455H163.143ZM166.473 51.2727C166.473 52.5 166.651 53.5758 167.007 54.5C167.363 55.4242 167.878 56.1477 168.553 56.6705C169.227 57.1856 170.053 57.4432 171.03 57.4432C172.045 57.4432 172.893 57.1742 173.575 56.6364C174.257 56.0909 174.772 55.3523 175.121 54.4205C175.477 53.4886 175.655 52.4394 175.655 51.2727C175.655 50.1212 175.481 49.0871 175.132 48.1705C174.791 47.2538 174.276 46.5303 173.587 46C172.905 45.4697 172.053 45.2045 171.03 45.2045C170.045 45.2045 169.212 45.4583 168.53 45.9659C167.856 46.4735 167.344 47.1818 166.996 48.0909C166.647 49 166.473 50.0606 166.473 51.2727ZM186.018 54.0795L185.996 49.9318H186.587L193.541 42.5455H197.609L189.678 50.9545H189.143L186.018 54.0795ZM182.893 60V36.7273H186.291V60H182.893ZM193.916 60L187.666 51.7045L190.007 49.3295L198.087 60H193.916Z" fill="white"/>
</svg>
