<svg width="283" height="85" viewBox="0 0 283 85" fill="none" xmlns="http://www.w3.org/2000/svg">
<rect width="283" height="85" rx="10" fill="black"/>
<g clip-path="url(#clip0_7176_126228)">
<path fill-rule="evenodd" clip-rule="evenodd" d="M51.7033 72.03C38.1725 72.03 31.407 72.03 27.2035 67.8102C23 63.5905 23 56.7987 23 43.2155L23 40.8143C23 27.231 23 20.4393 27.2035 16.2195C31.407 12 38.1725 12 51.7032 12L54.0952 12C67.6261 12 74.3915 12 78.595 16.2195C82.7985 20.4393 82.7985 27.231 82.7985 40.8143V43.2155C82.7985 56.7987 82.7985 63.5905 78.595 67.8102C74.3915 72.03 67.6261 72.03 54.0952 72.03H51.7033Z" fill="#0077FF"/>
<path d="M57.5787 48.9952C55.9676 48.5911 54.8379 47.1443 54.8379 45.485V25.9357C54.8379 24.051 56.612 22.6687 58.442 23.1276L70.0307 26.0338C71.6418 26.4377 72.7715 27.8845 72.7715 29.5439V49.0931C72.7715 50.9779 70.9974 52.3602 69.1675 51.9013L57.5787 48.9952Z" fill="white"/>
<path d="M35.7682 57.9952C34.157 57.5911 33.0273 56.1443 33.0273 54.485V34.9357C33.0273 33.051 34.8014 31.6687 36.6314 32.1276L48.2201 35.0338C49.8312 35.4377 50.9609 36.8845 50.9609 38.5439V58.0931C50.9609 59.9779 49.1868 61.3602 47.3568 60.9012L35.7682 57.9952Z" fill="white"/>
<path d="M46.6734 53.4952C45.0623 53.0911 43.9326 51.6443 43.9326 49.985V30.4358C43.9326 28.5511 45.7067 27.1687 47.5367 27.6276L59.1254 30.5338C60.7365 30.9378 61.8662 32.3846 61.8662 34.0439V53.5931C61.8662 55.4779 60.0922 56.8602 58.2621 56.4013L46.6734 53.4952Z" fill="white"/>
<path d="M54.2578 55.4017C53.7503 55.272 53.3892 54.8215 53.3714 54.2961L52.8673 39.3664C52.7215 37.3905 51.2603 35.819 49.7335 35.3562C49.6478 35.3302 49.5562 35.3652 49.5055 35.4392C49.4539 35.5145 49.4738 35.6186 49.5458 35.6746C49.9228 35.9675 50.9605 36.9237 50.9605 38.5729L50.9575 54.5621L54.2578 55.4017Z" fill="#0077FF"/>
<path d="M65.1671 50.8959C64.66 50.7686 64.2984 50.3194 64.2807 49.795L63.7764 34.8664C63.6306 32.8905 62.1696 31.319 60.6426 30.8562C60.557 30.8302 60.4654 30.8652 60.4147 30.9392C60.363 31.0145 60.383 31.1186 60.455 31.1746C60.832 31.4675 61.8697 32.4237 61.8697 34.0729L61.8667 50.0676L65.1671 50.8959Z" fill="#0077FF"/>
<path d="M117.222 57.1995C121.751 56.0405 124.726 52.5636 124.726 48.0136C124.726 42.3904 120.241 38.4414 113.944 38.4414H102.731V68.7033H107.907V57.5858H111.573L119.594 68.7033H125.675L117.222 57.1995ZM113.944 43.1631C117.179 43.1631 119.422 45.1376 119.422 48.0136C119.422 50.8895 117.179 52.8641 113.944 52.8641H107.907V43.1631H113.944Z" fill="white"/>
<path d="M137.323 69.1329C140.04 69.1329 142.541 67.7164 143.965 65.3555L144.956 68.7037H148.666V46.3828H143.706V59.3032C143.706 62.4796 141.592 64.7117 138.703 64.7117C135.857 64.7117 133.872 62.4796 133.872 59.3032V46.3828H128.913V59.8612C128.913 65.2268 132.536 69.1329 137.323 69.1329Z" fill="white"/>
<path d="M164.493 69.1321C170.229 69.1321 174.974 65.8698 174.974 60.4613C174.974 54.4089 170.014 52.649 165.744 51.1896C162.424 50.0736 159.534 49.0434 159.534 46.3391C159.534 43.9782 161.733 42.7334 164.321 42.7334C167.038 42.7334 168.979 44.1499 170.057 46.5537L174.974 45.7382C173.421 41.0164 169.496 38.0117 164.149 38.0117C158.628 38.0117 154.229 41.1881 154.229 46.5967C154.229 52.692 159.189 54.366 163.458 55.7825C166.737 56.8557 169.669 57.8858 169.669 60.633C169.669 63.0368 167.47 64.4104 164.537 64.4104C161.173 64.4104 159.362 62.8222 157.766 59.9462L152.763 60.8047C154.229 65.9128 158.887 69.1321 164.493 69.1321Z" fill="white"/>
<path d="M188.465 64.4085C186.784 64.4085 185.964 63.5929 185.964 61.9189V50.6726H192.649V46.3801H185.964V39.9414H182.255L181.004 46.3801H177.339V50.6726H181.004V61.9189C181.004 66.2972 183.549 68.701 188.465 68.701H192.649L193.08 64.4085H188.465Z" fill="white"/>
<path d="M207.253 69.1324C214.283 69.1324 219.242 64.3249 219.242 57.5428C219.242 50.7606 214.283 45.9531 207.253 45.9531C200.224 45.9531 195.264 50.7606 195.264 57.5428C195.264 64.3249 200.224 69.1324 207.253 69.1324ZM207.253 64.6253C203.199 64.6253 200.439 61.7494 200.439 57.5428C200.439 53.3361 203.199 50.4602 207.253 50.4602C211.307 50.4602 214.067 53.3361 214.067 57.5428C214.067 61.7494 211.307 64.6253 207.253 64.6253Z" fill="white"/>
<path d="M228.514 68.7037V55.5258C228.514 52.6928 229.894 51.1045 232.913 51.1045H235.76L235.328 46.3828H234.38C231.748 46.3828 229.721 47.1125 228.212 49.6022L227.264 46.3828H223.555V68.7037H228.514Z" fill="white"/>
<path d="M260.163 57.2852C260.163 50.8465 255.333 45.9531 248.518 45.9531C241.705 45.9531 236.874 50.8036 236.874 57.5428C236.874 64.2819 241.705 69.1324 248.518 69.1324C253.177 69.1324 257.575 66.9433 259.258 62.6937L254.6 61.9211C253.522 63.5093 251.451 64.6253 248.821 64.6253C245.026 64.6253 242.524 62.3074 242.049 58.8734H260.077C260.12 58.4012 260.163 57.8861 260.163 57.2852ZM248.518 50.2456C251.624 50.2456 253.953 52.2201 254.772 55.0102H242.352C243.171 52.1342 245.5 50.2456 248.518 50.2456Z" fill="white"/>
<path d="M103.15 30.8577V26.4875H103.435C103.804 26.4875 104.099 26.3968 104.32 26.2154C104.542 26.034 104.726 25.6711 104.874 25.1269C105.032 24.5719 105.153 23.7555 105.237 22.6776L105.696 16.7227H112.716V26.4875H114.344V30.8577H112.716V28.0083H104.779V30.8577H103.15ZM111.087 26.4875V18.2434H107.198L106.866 22.7577C106.739 24.5612 106.413 25.8045 105.886 26.4875H111.087Z" fill="white"/>
<path d="M119.521 28.1684C118.688 28.1684 117.945 27.987 117.292 27.6241C116.638 27.2613 116.127 26.7543 115.758 26.1033C115.389 25.4524 115.205 24.7106 115.205 23.8782C115.205 23.0458 115.389 22.3041 115.758 21.6531C116.127 21.0021 116.638 20.4952 117.292 20.1324C117.945 19.7588 118.688 19.5721 119.521 19.5721C120.353 19.5721 121.097 19.7588 121.75 20.1324C122.404 20.4952 122.915 21.0021 123.284 21.6531C123.653 22.3041 123.837 23.0458 123.837 23.8782C123.837 24.7106 123.653 25.4524 123.284 26.1033C122.915 26.7543 122.404 27.2613 121.75 27.6241C121.097 27.987 120.353 28.1684 119.521 28.1684ZM119.521 26.7277C120.322 26.7277 120.97 26.4662 121.465 25.9433C121.971 25.4203 122.224 24.732 122.224 23.8782C122.224 23.0245 121.971 22.3361 121.465 21.8132C120.97 21.2796 120.322 21.0128 119.521 21.0128C118.72 21.0128 118.072 21.2796 117.576 21.8132C117.081 22.3361 116.833 23.0245 116.833 23.8782C116.833 24.7213 117.081 25.4097 117.576 25.9433C118.072 26.4662 118.72 26.7277 119.521 26.7277Z" fill="white"/>
<path d="M129.261 28.1684C128.45 28.1684 127.717 27.987 127.064 27.6241C126.421 27.2506 125.92 26.7383 125.562 26.0873C125.203 25.4363 125.024 24.7 125.024 23.8782C125.024 23.0458 125.203 22.3041 125.562 21.6531C125.92 21.0021 126.421 20.4952 127.064 20.1324C127.707 19.7588 128.439 19.5721 129.261 19.5721C130.136 19.5721 130.916 19.7855 131.601 20.2124C132.297 20.6393 132.792 21.2529 133.088 22.0533L131.633 22.2934C131.443 21.9092 131.143 21.5998 130.732 21.365C130.331 21.1302 129.873 21.0128 129.356 21.0128C128.555 21.0128 127.902 21.2796 127.396 21.8132C126.9 22.3468 126.653 23.0351 126.653 23.8782C126.653 24.7213 126.9 25.4097 127.396 25.9433C127.902 26.4662 128.555 26.7277 129.356 26.7277C129.894 26.7277 130.368 26.6049 130.779 26.3595C131.201 26.114 131.507 25.7885 131.696 25.383L133.151 25.6231C132.856 26.4342 132.35 27.0638 131.633 27.512C130.927 27.9496 130.136 28.1684 129.261 28.1684Z" fill="white"/>
<path d="M137.935 28.0083H136.385V21.1729H133.555V19.7322H140.765V21.1729H137.935V28.0083Z" fill="white"/>
<path d="M148.084 19.7322H149.681L146.266 29.2569C146.013 29.9719 145.681 30.4895 145.27 30.8097C144.859 31.1299 144.311 31.2899 143.626 31.2899H142.409L142.266 29.8492H143.721C144.026 29.8492 144.264 29.7798 144.432 29.6411C144.601 29.513 144.743 29.2836 144.859 28.9528L145.033 28.4725L141.397 19.7322H143.057L145.65 26.1194H145.871L148.084 19.7322Z" fill="white"/>
<path d="M152.632 28.0083H151.082V19.7322H158.039V28.0083H156.49V21.1729H152.632V28.0083Z" fill="white"/>
<path d="M165.663 23.1098V19.7322H167.212V28.0083H165.663V24.5506H161.726V28.0083H160.176V19.7322H161.726V23.1098H165.663Z" fill="white"/>
<path d="M173.19 28.1684C172.357 28.1684 171.614 27.987 170.96 27.6241C170.307 27.2613 169.796 26.7543 169.427 26.1033C169.058 25.4524 168.873 24.7106 168.873 23.8782C168.873 23.0458 169.058 22.3041 169.427 21.6531C169.796 21.0021 170.307 20.4952 170.96 20.1324C171.614 19.7588 172.357 19.5721 173.19 19.5721C174.022 19.5721 174.765 19.7588 175.419 20.1324C176.072 20.4952 176.584 21.0021 176.952 21.6531C177.321 22.3041 177.506 23.0458 177.506 23.8782C177.506 24.7106 177.321 25.4524 176.952 26.1033C176.584 26.7543 176.072 27.2613 175.419 27.6241C174.765 27.987 174.022 28.1684 173.19 28.1684ZM173.19 26.7277C173.991 26.7277 174.639 26.4662 175.134 25.9433C175.64 25.4203 175.893 24.732 175.893 23.8782C175.893 23.0245 175.64 22.3361 175.134 21.8132C174.639 21.2796 173.991 21.0128 173.19 21.0128C172.389 21.0128 171.74 21.2796 171.245 21.8132C170.75 22.3361 170.502 23.0245 170.502 23.8782C170.502 24.7213 170.75 25.4097 171.245 25.9433C171.74 26.4662 172.389 26.7277 173.19 26.7277Z" fill="white"/>
<path d="M188.389 23.6701C188.81 23.8302 189.147 24.0917 189.4 24.4545C189.664 24.8067 189.796 25.2229 189.796 25.7031C189.796 26.1407 189.669 26.5356 189.416 26.8877C189.174 27.2399 188.831 27.5174 188.389 27.7202C187.946 27.9122 187.44 28.0083 186.871 28.0083H182.966V19.7322H186.728C187.266 19.7322 187.746 19.8282 188.167 20.0203C188.589 20.2124 188.916 20.4739 189.147 20.8047C189.39 21.1355 189.511 21.5144 189.511 21.9413C189.511 22.3468 189.411 22.699 189.211 22.9978C189.021 23.2859 188.747 23.51 188.389 23.6701ZM184.515 21.0608V23.0938H186.728C187.087 23.0938 187.382 23.0031 187.614 22.8217C187.846 22.6296 187.962 22.3842 187.962 22.0853C187.962 21.7865 187.846 21.5411 187.614 21.349C187.382 21.1569 187.087 21.0608 186.728 21.0608H184.515ZM186.871 26.6796C187.282 26.6796 187.614 26.5729 187.867 26.3595C188.12 26.146 188.246 25.8686 188.246 25.5271C188.246 25.1856 188.12 24.9081 187.867 24.6946C187.614 24.4812 187.282 24.3745 186.871 24.3745H184.515V26.6796H186.871Z" fill="white"/>
</g>
<defs>
<clipPath id="clip0_7176_126228">
<rect width="237.156" height="60.03" fill="white" transform="translate(23 12)"/>
</clipPath>
</defs>
</svg>
